<svg width="99" height="99" viewBox="0 0 99 99" fill="none" xmlns="http://www.w3.org/2000/svg">
<path d="M49.9748 62.7899C50.0684 62.7058 50.1335 62.6344 50.243 62.5376C51.0904 61.7965 52.3711 60.6744 52.3711 58.5653C52.3711 56.4562 51.0888 55.3358 50.2414 54.5946C49.6891 54.1122 49.4082 53.8297 49.2844 53.4948C51.0825 52.814 52.3711 51.0873 52.3711 49.0528V42.7048C52.3711 40.6147 51.0079 38.8531 49.1305 38.2152C48.4544 29.2041 40.9225 22.0737 31.7401 22.0737C22.5577 22.0737 15.0258 29.2041 14.3497 38.2152C12.4723 38.8531 11.109 40.6147 11.109 42.7048V49.0528C11.109 51.0873 12.3977 52.814 14.1958 53.4948C14.0704 53.8297 13.7911 54.1122 13.2388 54.5962C12.3913 55.3358 11.109 56.4578 11.109 58.5653C11.109 60.6744 12.3897 61.7965 13.2372 62.5392C13.3483 62.636 13.4134 62.7058 13.5054 62.7899C5.35138 68.5412 0 78.014 0 88.7279V90.3149C0 94.6903 3.55965 98.2499 7.93502 98.2499H17.457H19.0441H44.4361H46.0231H55.5452C59.9205 98.2499 63.4802 94.6903 63.4802 90.3149V88.7279C63.4802 78.014 58.1288 68.5412 49.9748 62.7899ZM39.345 57.948C41.4589 56.6117 43.1998 54.7438 44.3726 52.5236C44.8535 52.9727 45.428 53.3139 46.0628 53.5345C46.2548 55.3056 47.3784 56.3086 48.1529 56.9862C48.9416 57.675 49.1971 57.9496 49.1971 58.5653C49.1971 59.1842 48.9416 59.4588 48.1529 60.1507C47.8577 60.4094 47.5324 60.7046 47.2261 61.0474C44.7805 59.6746 42.1334 58.6367 39.345 57.948ZM20.758 44.2918H24.4319C28.2407 44.2918 31.9369 43.2428 35.168 41.2527L42.5523 43.3618C42.7396 44.1728 42.8491 45.0123 42.8491 45.8788C42.8491 52.0046 37.8643 56.9878 31.7401 56.9878C25.6158 56.9878 20.6311 52.0046 20.6311 45.8788C20.6311 45.3392 20.6834 44.8123 20.758 44.2918ZM21.7182 41.1178C23.5051 37.3709 27.3203 34.7698 31.7401 34.7698C35.5299 34.7698 38.88 36.6805 40.886 39.5863L34.6459 37.8025L34.0349 38.2088C31.1799 40.1132 27.8615 41.1178 24.4319 41.1178H21.7182ZM41.4653 61.9028C40.5861 62.7978 39.3815 63.3358 38.0881 63.3358C36.0567 63.3358 34.3333 62.052 33.6493 60.2586C36.3789 60.4411 38.9975 61.0045 41.4653 61.9028ZM46.0231 42.7048C46.0231 41.8303 46.7341 41.1178 47.6101 41.1178C48.4862 41.1178 49.1971 41.8303 49.1971 42.7048V49.0528C49.1971 49.9272 48.4862 50.6398 47.6101 50.6398C46.7341 50.6398 46.0231 49.9272 46.0231 49.0528V42.7048ZM31.7401 25.2477C39.1863 25.2477 45.3106 30.9768 45.9581 38.2564C45.3645 38.477 44.8281 38.8103 44.3726 39.234C41.9779 34.6983 37.2168 31.5958 31.7401 31.5958C26.2633 31.5958 21.5023 34.6983 19.1075 39.234C18.6521 38.8087 18.1157 38.477 17.5221 38.2564C18.1696 30.9768 24.2939 25.2477 31.7401 25.2477ZM14.283 42.7048C14.283 41.8303 14.994 41.1178 15.87 41.1178C16.7461 41.1178 17.457 41.8303 17.457 42.7048V49.0528C17.457 49.9272 16.7461 50.6398 15.87 50.6398C14.994 50.6398 14.283 49.9272 14.283 49.0528V42.7048ZM15.3273 60.1507C14.5385 59.4588 14.283 59.1842 14.283 58.5653C14.283 57.9496 14.5385 57.675 15.3273 56.9847C16.1017 56.307 17.2253 55.3056 17.4174 53.5329C18.0522 53.3123 18.6251 52.9711 19.1075 52.522C20.2803 54.7422 22.0213 56.6085 24.1352 57.9464C21.3468 58.6351 18.6997 59.6746 16.2557 61.0474C15.9478 60.7046 15.6225 60.4094 15.3273 60.1507ZM29.8309 60.2586C29.1469 62.052 27.4234 63.3358 25.3921 63.3358C24.0987 63.3358 22.8941 62.7978 22.0149 61.9028C24.4827 61.0045 27.1013 60.4396 29.8309 60.2586ZM47.6101 88.7279H15.87V77.6189C15.87 74.994 18.0062 72.8579 20.6311 72.8579H42.8491C45.474 72.8579 47.6101 74.994 47.6101 77.6189V88.7279ZM44.4361 95.0759H19.0441H17.457C15.3876 95.0759 13.6228 93.7492 12.9674 91.9019H50.5128C49.8573 93.7492 48.0926 95.0759 46.0231 95.0759H44.4361ZM60.3062 90.3149C60.3062 92.9398 58.1701 95.0759 55.5452 95.0759H52.3299C53.3376 93.746 53.9581 92.1082 53.9581 90.3149V88.7279H50.7841V77.6189C50.7841 73.2435 47.2245 69.6839 42.8491 69.6839H20.6311C16.2557 69.6839 12.696 73.2435 12.696 77.6189V88.7279H9.52203V90.3149C9.52203 92.1082 10.1425 93.746 11.1503 95.0759H7.93502C5.31012 95.0759 3.17401 92.9398 3.17401 90.3149V88.7279C3.17401 77.5649 9.62677 67.9032 18.9837 63.2057C20.4565 65.245 22.8211 66.5098 25.3921 66.5098C27.9963 66.5098 30.2927 65.2307 31.7401 63.2866C33.1874 65.2307 35.4838 66.5098 38.0881 66.5098C40.6591 66.5098 43.0237 65.245 44.4964 63.2057C53.8534 67.9032 60.3062 77.5649 60.3062 88.7279V90.3149Z" fill="url(#paint0_linear)"/>
<path d="M60.1621 0V28.5661H72.8581V31.0831C72.8581 33.1954 74.5769 34.9141 76.6892 34.9141C77.7001 34.9141 78.6872 34.5047 79.3982 33.7921L84.6242 28.5661H98.2502V0H60.1621ZM85.6621 14.8321L95.0762 5.41803V23.3909L85.6621 14.8321ZM72.7502 14.8337L63.3361 23.3909V5.41803L72.7502 14.8337ZM65.5801 3.17401H92.8322L80.7932 15.2114C79.9441 16.0605 78.4682 16.0605 77.6192 15.2114L65.5801 3.17401ZM83.3102 25.3921L77.1526 31.5481C76.7796 31.9242 76.0322 31.6179 76.0322 31.0831V25.3921H65.8547L74.9974 17.0793L75.3751 17.457C76.4003 18.4807 77.7604 19.0441 79.2062 19.0441C80.6519 19.0441 82.0136 18.4807 83.0372 17.457L83.4149 17.0793L92.5576 25.3921H83.3102Z" fill="url(#paint1_linear)"/>
<path d="M93.4892 38.0879H64.9231C62.2982 38.0879 60.1621 40.224 60.1621 42.8489V61.893C60.1621 64.5179 62.2982 66.654 64.9231 66.654H66.5101V69.171C66.5101 71.2833 68.2289 73.002 70.3412 73.002C71.3521 73.002 72.3392 72.5925 73.0502 71.88L78.2762 66.654H93.4892C96.1141 66.654 98.2502 64.5179 98.2502 61.893V42.8489C98.2502 40.224 96.1141 38.0879 93.4892 38.0879ZM95.0762 61.893C95.0762 62.7674 94.3652 63.48 93.4892 63.48H76.9621L70.8046 69.636C70.4316 70.0105 69.6841 69.7074 69.6841 69.171V63.48H64.9231C64.0471 63.48 63.3361 62.7674 63.3361 61.893V42.8489C63.3361 41.9745 64.0471 41.2619 64.9231 41.2619H93.4892C94.3652 41.2619 95.0762 41.9745 95.0762 42.8489V61.893Z" fill="url(#paint2_linear)"/>
<path d="M71.2708 44.436C68.6459 44.436 66.5098 46.5721 66.5098 49.197V50.7841H69.6838V49.197C69.6838 48.3226 70.3948 47.61 71.2708 47.61C72.1468 47.61 72.8578 48.3226 72.8578 49.197V49.4684C72.8578 49.8922 72.6927 50.2921 72.3928 50.592L66.5098 56.475V60.3061H76.0318V57.1321H70.3408L74.6368 52.836C75.5366 51.9378 76.0318 50.7412 76.0318 49.4684V49.197C76.0318 46.5721 73.8957 44.436 71.2708 44.436Z" fill="url(#paint3_linear)"/>
<path d="M88.7281 44.436H84.6558L79.2061 53.5185V57.1321H85.5541V60.3061H88.7281V57.1321H91.9021V53.9581H88.7281V44.436ZM85.5541 53.9581H82.6435L85.5541 49.1082V53.9581Z" fill="url(#paint4_linear)"/>
<defs>
<linearGradient id="paint0_linear" x1="31.7401" y1="22.0737" x2="31.7401" y2="98.2499" gradientUnits="userSpaceOnUse">
<stop stop-color="#515669"/>
<stop offset="1" stop-color="#282D41"/>
</linearGradient>
<linearGradient id="paint1_linear" x1="79.2062" y1="0" x2="79.2062" y2="34.9141" gradientUnits="userSpaceOnUse">
<stop stop-color="#515669"/>
<stop offset="1" stop-color="#282D41"/>
</linearGradient>
<linearGradient id="paint2_linear" x1="79.2062" y1="38.0879" x2="79.2062" y2="73.002" gradientUnits="userSpaceOnUse">
<stop stop-color="#515669"/>
<stop offset="1" stop-color="#282D41"/>
</linearGradient>
<linearGradient id="paint3_linear" x1="71.2708" y1="44.436" x2="71.2708" y2="60.3061" gradientUnits="userSpaceOnUse">
<stop stop-color="#515669"/>
<stop offset="1" stop-color="#282D41"/>
</linearGradient>
<linearGradient id="paint4_linear" x1="85.5541" y1="44.436" x2="85.5541" y2="60.3061" gradientUnits="userSpaceOnUse">
<stop stop-color="#515669"/>
<stop offset="1" stop-color="#282D41"/>
</linearGradient>
</defs>
</svg>
