<svg width="45" height="20" viewBox="0 0 45 20" fill="none" xmlns="http://www.w3.org/2000/svg">
<path d="M8.52123 3.35114C9.04191 2.68169 9.41383 1.78909 9.30226 0.896484C8.52123 0.933676 7.59143 1.41717 7.03356 2.04943C6.55006 2.60731 6.10376 3.5371 6.21534 4.39251C7.10794 4.50409 7.96335 4.02059 8.52123 3.35114ZM9.30226 4.61566C8.03774 4.54128 6.95917 5.32231 6.36411 5.32231C5.76904 5.32231 4.83924 4.65285 3.83507 4.65285C2.53335 4.69005 1.34322 5.39669 0.673764 6.58683C-0.66514 8.92991 0.301847 12.3887 1.64075 14.2855C2.27301 15.2153 3.05404 16.2567 4.05822 16.2195C5.0252 16.1823 5.39712 15.5872 6.55007 15.5872C7.70301 15.5872 8.03774 16.2195 9.07911 16.1823C10.1205 16.1451 10.7899 15.2525 11.4222 14.2855C12.166 13.207 12.4636 12.1656 12.4636 12.1284C12.4264 12.0912 10.418 11.3474 10.418 9.04148C10.3808 7.10751 11.9801 6.17772 12.0544 6.14052C11.199 4.80162 9.78575 4.65285 9.30226 4.61566Z" fill="black"/>
<path d="M20.238 1.9751C22.9902 1.9751 24.887 3.87188 24.887 6.58688C24.887 9.33907 22.953 11.2359 20.1636 11.2359H17.1511V16.0336H14.9568V1.9751H20.238ZM17.1511 9.41345H19.643C21.5397 9.41345 22.6183 8.37208 22.6183 6.62407C22.6183 4.83886 21.5397 3.83469 19.643 3.83469H17.1139V9.41345H17.1511ZM25.4449 13.1698C25.4449 11.3846 26.821 10.2689 29.2756 10.1201L32.1022 9.97133V9.1903C32.1022 8.03736 31.3212 7.36791 30.0566 7.36791C28.8293 7.36791 28.0855 7.96297 27.8995 8.85558H25.8912C26.0027 6.99599 27.602 5.61989 30.131 5.61989C32.6229 5.61989 34.2221 6.9216 34.2221 9.00434V16.0708H32.2138V14.3972H32.1766C31.5815 15.5501 30.2798 16.2567 28.9409 16.2567C26.8582 16.2567 25.4449 14.9922 25.4449 13.1698ZM32.1022 12.24V11.4218L29.5732 11.5706C28.3086 11.645 27.602 12.2028 27.602 13.0954C27.602 13.988 28.3458 14.5831 29.4616 14.5831C30.9493 14.5831 32.1022 13.5789 32.1022 12.24ZM36.0817 19.8643V18.1535C36.2305 18.1907 36.6024 18.1907 36.7512 18.1907C37.7182 18.1907 38.2388 17.7816 38.5736 16.7402C38.5736 16.703 38.7595 16.108 38.7595 16.108L35.0403 5.84304H37.309L39.9125 14.2112H39.9497L42.5531 5.84304H44.7846L40.9538 16.6658C40.0612 19.1577 39.0571 19.9387 36.9371 19.9387C36.7884 19.9015 36.2677 19.9015 36.0817 19.8643Z" fill="black"/>
</svg>
