<svg width="100" height="100" viewBox="0 0 100 100" fill="none" xmlns="http://www.w3.org/2000/svg">
<path d="M93.242 0H6.66014C2.98185 0 0 2.98185 0 6.66014V79.9217C0 83.6 2.98185 86.5819 6.66014 86.5819H55.2475L56.7611 91.9483C57.0643 93.0229 57.886 93.8741 58.9493 94.215C60.0126 94.5559 61.176 94.3413 62.0476 93.6433L65.1911 91.1274L71.6115 98.4036C72.2198 99.0923 73.0857 99.499 74.0042 99.5275H74.1057C74.9889 99.5267 75.8359 99.1766 76.4618 98.5535L78.8178 96.1974C80.0525 94.9546 80.1172 92.9691 78.966 91.6486L74.5287 86.5819H93.242C96.9203 86.5819 99.9021 83.6 99.9021 79.9217V6.66014C99.9021 2.98185 96.9203 0 93.242 0V0ZM3.33007 6.66014C3.33007 4.821 4.82099 3.33007 6.66014 3.33007H93.242C95.0811 3.33007 96.5721 4.821 96.5721 6.66014V13.3203H3.33007V6.66014ZM76.4618 93.8381L74.1074 96.1908L66.6381 87.7341C66.0496 87.0681 65.0419 86.9816 64.3486 87.5376L59.9663 91.0442L54.9462 73.2616L72.509 81.004L69.5818 83.3517C69.227 83.6357 69.0036 84.0525 68.9637 84.5053C68.9238 84.9581 69.0707 85.4076 69.3704 85.7493L76.4618 93.8364V93.8381ZM52.7633 70.7524C52.0323 71.3807 51.6131 72.2976 51.6161 73.2616H34.9657C31.2875 73.2616 28.3056 70.2797 28.3056 66.6014C28.3056 62.9231 31.2875 59.9413 34.9657 59.9413H64.9364C68.6147 59.9413 71.5965 62.9231 71.5965 66.6014C71.5965 70.2797 68.6147 73.2616 64.9364 73.2616H63.1948L56.2932 70.2179C55.1135 69.6889 53.7335 69.8978 52.7633 70.7524ZM96.5721 79.9217C96.5721 81.7609 95.0811 83.2518 93.242 83.2518H74.9366C75.6762 82.4708 75.9882 81.3781 75.7727 80.3244C75.5572 79.2706 74.8411 78.3882 73.8543 77.9603L68.8908 75.7724C73.2388 73.8941 75.6703 69.2208 74.713 64.5822C73.7557 59.9436 69.6727 56.6147 64.9364 56.6112H34.9657C29.4483 56.6112 24.9755 61.084 24.9755 66.6014C24.9755 72.1189 29.4483 76.5916 34.9657 76.5916H52.4286L54.3068 83.2518H6.66014C4.82099 83.2518 3.33007 81.7609 3.33007 79.9217V16.6504H96.5721V79.9217Z" fill="white"/>
<path d="M8.32519 9.99023C9.24477 9.99023 9.99023 9.24477 9.99023 8.32519C9.99023 7.40562 9.24477 6.66016 8.32519 6.66016C7.40562 6.66016 6.66016 7.40562 6.66016 8.32519C6.66016 9.24477 7.40562 9.99023 8.32519 9.99023Z" fill="white"/>
<path d="M14.9853 9.99023C15.9049 9.99023 16.6504 9.24477 16.6504 8.32519C16.6504 7.40562 15.9049 6.66016 14.9853 6.66016C14.0658 6.66016 13.3203 7.40562 13.3203 8.32519C13.3203 9.24477 14.0658 9.99023 14.9853 9.99023Z" fill="white"/>
<path d="M21.6455 9.99023C22.5651 9.99023 23.3105 9.24477 23.3105 8.32519C23.3105 7.40562 22.5651 6.66016 21.6455 6.66016C20.7259 6.66016 19.9805 7.40562 19.9805 8.32519C19.9805 9.24477 20.7259 9.99023 21.6455 9.99023Z" fill="white"/>
<path d="M8.32519 79.9219H13.3203C14.2399 79.9219 14.9853 79.1764 14.9853 78.2568C14.9853 77.3373 14.2399 76.5918 13.3203 76.5918H9.99023V73.2617C9.99023 72.3421 9.24477 71.5967 8.32519 71.5967C7.40562 71.5967 6.66016 72.3421 6.66016 73.2617V78.2568C6.66016 79.1764 7.40562 79.9219 8.32519 79.9219Z" fill="white"/>
</svg>
