<svg width="90" height="97" viewBox="0 0 90 97" fill="none" xmlns="http://www.w3.org/2000/svg">
<path d="M11.1291 49.0541V3.78906H7.69133C6.64498 3.78906 5.7968 2.94088 5.7968 1.89453C5.7968 0.848182 6.64498 0 7.69133 0H13.0237C14.07 0 14.9182 0.848182 14.9182 1.89453V7.61261H15.5705C20.3813 7.61261 24.2952 11.5265 24.2952 16.3373V27.246H34.4241C35.4705 27.246 36.3186 28.0942 36.3186 29.1405C36.3186 30.1869 35.4705 31.0351 34.4241 31.0351H24.2952V36.2905H66.2577V33.0939C66.2577 31.9587 65.3342 31.0351 64.1989 31.0351H51.5531C50.5068 31.0351 49.6586 30.1869 49.6586 29.1405C49.6586 28.0942 50.5068 27.246 51.5531 27.246H64.1989C67.4234 27.246 70.0468 29.8694 70.0468 33.0939V38.185C70.0468 39.2314 69.1986 40.0796 68.1523 40.0796H58.849V49.1621H66.1289C71.372 49.1621 75.6377 53.4279 75.6377 58.671V76.2329C80.0488 77.0447 83.5002 80.6385 84.1042 85.1239H88.1055C89.1518 85.1239 90 85.9721 90 87.0185C90 88.0648 89.1518 88.913 88.1055 88.913H84.022C83.9896 88.913 83.9576 88.9122 83.9256 88.9105C82.8464 93.5408 78.6906 97 73.7432 97C67.9783 97 63.2884 92.3035 63.2884 86.5304C63.2884 81.4052 66.9852 77.1283 71.8487 76.2331V70.3313H53.1661C53.1663 70.383 53.1667 70.4349 53.1667 70.4868C53.1665 85.1061 41.2918 97 26.6956 97C12.0995 97 0.224602 85.1061 0.224602 70.4868C0.224602 61.6899 4.52424 53.8799 11.1291 49.0541ZM20.5061 16.3373C20.5061 13.6158 18.2922 11.4017 15.5705 11.4017H14.9182V46.7453C16.679 45.8655 18.5506 45.1766 20.5061 44.7056V16.3373ZM55.0599 40.0796H24.2952V44.0818C25.086 44.0102 25.8866 43.9736 26.6957 43.9736C32.5811 43.9736 38.0239 45.9073 42.4243 49.1737C42.4929 49.1661 42.5626 49.1621 42.6333 49.1621H55.0599V40.0796ZM67.0775 86.5304C67.0775 90.2142 70.0678 93.2109 73.7432 93.2109C77.4188 93.2109 80.4091 90.2142 80.4091 86.5304C80.4091 82.8467 77.4188 79.8499 73.7432 79.8499C70.0678 79.8499 67.0775 82.8467 67.0775 86.5304ZM71.8487 66.5422V58.6712C71.8487 55.5173 69.2829 52.9514 66.1289 52.9514H46.534C49.8365 56.6952 52.1018 61.3777 52.8742 66.5424H71.8487V66.5422ZM26.6956 93.2109C39.2023 93.2109 49.3775 83.0168 49.3775 70.4868C49.3775 57.9567 39.2023 47.7626 26.6956 47.7626C14.1886 47.7626 4.01366 57.9567 4.01366 70.4868C4.01366 83.0168 14.1888 93.2109 26.6956 93.2109Z" fill="url(#paint0_linear)"/>
<defs>
<linearGradient id="paint0_linear" x1="45.1123" y1="0" x2="45.1123" y2="97" gradientUnits="userSpaceOnUse">
<stop stop-color="#515669"/>
<stop offset="1" stop-color="#282D41"/>
</linearGradient>
</defs>
</svg>
