<svg width="34" height="24" viewBox="0 0 34 24" fill="none" xmlns="http://www.w3.org/2000/svg">
<path d="M33.7627 21.8311C33.7627 22.9124 32.8862 23.789 31.805 23.789H2.60081C1.51957 23.789 0.643066 22.9124 0.643066 21.8311V2.90605C0.643066 1.82481 1.51957 0.948242 2.60081 0.948242H31.805C32.8863 0.948242 33.7627 1.82481 33.7627 2.90605V21.8311Z" fill="#306FC5"/>
<path opacity="0.15" d="M2.03493 21.8311V2.90605C2.03493 1.82481 2.91157 0.948242 3.99281 0.948242H2.60075C1.51957 0.948242 0.643066 1.82475 0.643066 2.90605V21.8311C0.643066 22.9124 1.51957 23.789 2.60081 23.789H3.99287C2.91163 23.789 2.03493 22.9124 2.03493 21.8311Z" fill="#202121"/>
<path d="M5.46826 10.0886H6.45784L5.96318 8.8291L5.46826 10.0886Z" fill="white"/>
<path d="M10.731 14.3164V14.9012H12.3953V15.5311H10.731V16.206H12.5751L13.4297 15.2612L12.6201 14.3164H10.731Z" fill="white"/>
<path d="M23.7295 8.8291L23.1897 10.0886H24.2244L23.7295 8.8291Z" fill="white"/>
<path d="M15.544 16.5657V14.002L14.3745 15.2615L15.544 16.5657Z" fill="white"/>
<path d="M17.7486 14.7214C17.7035 14.4515 17.5234 14.3164 17.2534 14.3164H16.3091V15.126H17.2987C17.5685 15.1261 17.7486 14.9912 17.7486 14.7214Z" fill="white"/>
<path d="M20.8961 15.0361C20.9861 14.991 21.0312 14.8559 21.0312 14.7212C21.0763 14.5415 20.9861 14.4514 20.8961 14.4064C20.8064 14.3613 20.6713 14.3613 20.5365 14.3613H19.6367V15.0811H20.5364C20.6712 15.0811 20.8063 15.0811 20.8961 15.0361Z" fill="white"/>
<path d="M27.3721 7.65967V8.19942L27.1024 7.65967H24.9886V8.19942L24.7186 7.65967H21.8399C21.3452 7.65967 20.9402 7.74971 20.5805 7.92961V7.65967H18.5565V7.70469V7.92961C18.3317 7.74978 18.0618 7.65967 17.7019 7.65967H10.4603L9.96528 8.78418L9.47062 7.65967H7.85144H7.17669V8.19942L6.95178 7.65967H6.90676H4.97268L4.07296 9.77363L3.03855 12.0676L3.01953 12.1126H3.03855H5.33254H5.36126L5.37756 12.0676L5.64756 11.393H6.23227L6.50214 12.1126H9.1107V12.0676V11.5729L9.33574 12.1126H10.64L10.8648 11.5729V12.0676V12.1126H11.8993H17.072H17.117V10.9431H17.2072C17.2971 10.9431 17.2971 10.9431 17.2971 11.0781V12.0676H20.5356V11.7977C20.8055 11.9329 21.21 12.0676 21.7499 12.0676H23.0994L23.3693 11.3481H23.9988L24.2687 12.0676H26.8774V11.6179V11.3931L27.2824 12.0676H27.3721H27.4173H29.3964V7.65967H27.3722H27.3721ZM12.1244 11.4381H11.6745H11.4047V11.1684V8.96414L11.3597 9.06732V9.06609L10.3133 11.4381H10.2802H10.0396H9.65038L8.57095 8.96414V11.4381H7.04176L6.72693 10.7634H5.19747L4.88258 11.4381H4.09191L5.42252 8.28946H6.5469L7.80629 11.303V8.28946H8.0761H8.99795L9.01917 8.33455H9.02072L9.58822 9.56968L9.99574 10.4951L10.0102 10.4484L10.9097 8.28952H12.1243V11.4381H12.1244ZM15.2281 8.96414H13.4738V9.54885H15.183V10.1785H13.4738V10.8084H15.2281V11.4829H12.7092V8.28952H15.2281V8.96414ZM18.4362 10.124C18.4374 10.125 18.4389 10.1257 18.4403 10.1267C18.4573 10.1447 18.4718 10.1627 18.4843 10.18C18.5704 10.2929 18.6401 10.4609 18.6436 10.7073C18.6439 10.7115 18.644 10.7157 18.6443 10.72C18.6443 10.7225 18.6448 10.7246 18.6448 10.7271C18.6448 10.7285 18.6446 10.7296 18.6446 10.731C18.6457 10.7558 18.6463 10.7811 18.6463 10.8084V11.4382H17.9718V11.0782C17.9718 10.8983 17.9718 10.6283 17.8366 10.4484C17.7941 10.4059 17.7511 10.3779 17.7043 10.358C17.6369 10.3143 17.5091 10.3136 17.2971 10.3136H16.4872V11.4382H15.7227V8.28952H17.4321C17.8366 8.28952 18.1066 8.28952 18.3316 8.42446C18.552 8.55681 18.6851 8.77629 18.6902 9.12385C18.6798 9.60254 18.3725 9.86516 18.1516 9.95372C18.1516 9.95372 18.3017 9.98393 18.4362 10.124ZM19.9508 11.4381H19.1861V8.28946H19.9508V11.4381ZM28.7219 11.4381H27.7322L26.2929 9.05406V11.0331L26.2881 11.0285V11.44H25.5283V11.4382H24.7635L24.4937 10.7635H22.9193L22.6494 11.483H21.7948C21.4352 11.483 20.9851 11.3931 20.7154 11.1233C20.4455 10.8534 20.3107 10.4935 20.3107 9.90889C20.3107 9.45912 20.4006 9.00903 20.7154 8.64931C20.9401 8.37924 21.3451 8.28952 21.8398 8.28952H22.5596V8.96414H21.8398C21.5699 8.96414 21.4352 9.00897 21.2549 9.14417C21.1203 9.27904 21.0302 9.54885 21.0302 9.86368C21.0302 10.2236 21.0752 10.4484 21.2549 10.6283C21.3902 10.7635 21.57 10.8085 21.7948 10.8085H22.1096L23.144 8.33467H23.5941H24.2686L25.5282 11.3482V11.1945V10.1786V10.0888V8.33474H26.6526L27.9567 10.5386V8.33474H28.7217V11.4382H28.7219V11.4381Z" fill="white"/>
<path d="M17.7965 9.60107C17.8096 9.58703 17.8215 9.57112 17.8316 9.55288C17.8724 9.48838 17.9191 9.37221 17.8939 9.21366C17.8929 9.1991 17.8902 9.18565 17.8871 9.17265C17.8863 9.16902 17.8864 9.16586 17.8854 9.16223L17.885 9.1623C17.8626 9.08525 17.8055 9.0379 17.7485 9.00918C17.6583 8.96436 17.5234 8.96436 17.3885 8.96436H16.4888V9.68413H17.3885C17.5234 9.68413 17.6584 9.68413 17.7485 9.63904C17.762 9.63218 17.774 9.62287 17.7856 9.61232L17.7857 9.61291C17.7858 9.61284 17.7904 9.60805 17.7965 9.60107Z" fill="white"/>
<path d="M31.3762 15.9358C31.3762 15.6209 31.2864 15.306 31.1515 15.0811V13.0571H31.1494V12.922C31.1494 12.922 29.2641 12.922 28.9835 12.922C28.703 12.922 28.3627 13.1918 28.3627 13.1918V12.922H26.2937C25.9787 12.922 25.5741 13.012 25.394 13.1918V12.922H21.7058V13.0571V13.1917C21.4361 12.967 20.9409 12.9219 20.7162 12.9219H18.2873V13.0571V13.1917C18.0625 12.967 17.5224 12.9219 17.2524 12.9219H14.5541L13.9242 13.5966L13.3395 12.9219H13.1512H12.8447H9.2915V13.057V13.4123V17.465H13.2497L13.9 16.8145L14.4638 17.465H14.5089H16.7897H16.893H16.9381H16.9828V17.0153V16.4306H17.2079C17.5224 16.4306 17.9275 16.4306 18.2423 16.2954V17.4198V17.51H20.2664V17.4198V16.3404H20.3561C20.4912 16.3404 20.4912 16.3404 20.4912 16.4754V17.4198V17.51H26.6082C27.0134 17.51 27.4179 17.4198 27.6428 17.2399V17.4198V17.51H29.577C29.9816 17.51 30.3867 17.465 30.6566 17.285C31.0707 17.0365 31.3317 16.5967 31.3705 16.0722C31.3723 16.0567 31.3746 16.0411 31.376 16.0255L31.3734 16.023C31.3751 15.9939 31.3762 15.9651 31.3762 15.9358ZM17.2079 15.666H16.3081V15.8006V16.0706V16.3405V16.8353H14.8297L13.9693 15.8457L13.9663 15.849L13.9242 15.8006L12.9347 16.8353H10.0561V13.6868H12.9798L13.7785 14.5617L13.9464 14.7449L13.9692 14.7213L14.9139 13.6869H17.2977C17.7604 13.6869 18.2784 13.801 18.4748 14.2718C18.4984 14.365 18.5121 14.4686 18.5121 14.5863C18.5121 15.4859 17.8824 15.666 17.2079 15.666ZM21.7058 15.6209C21.7957 15.7555 21.8407 15.9357 21.8407 16.2057V16.8352H21.0761V16.4306C21.0761 16.2503 21.0761 15.9357 20.941 15.8006C20.8513 15.666 20.6711 15.666 20.4015 15.666H19.5919V16.8353H18.8273V13.6418H20.5364C20.896 13.6418 21.2108 13.6418 21.4361 13.7766C21.6608 13.9116 21.8407 14.1366 21.8407 14.4964C21.8407 14.9911 21.526 15.261 21.301 15.3511C21.526 15.4407 21.6608 15.5309 21.7058 15.6209ZM24.8095 14.3162H23.055V14.901H24.7643V15.5308H23.055V16.1606H24.8095V16.8352H22.2906V13.6417H24.8095V14.3162ZM26.6985 16.8353H25.2591V16.1607H26.6985C26.8331 16.1607 26.9233 16.1607 27.0135 16.0706C27.0585 16.0255 27.1032 15.9358 27.1032 15.8457C27.1032 15.7555 27.0585 15.666 27.0135 15.6209C26.9683 15.576 26.8782 15.531 26.7434 15.531C26.0236 15.4859 25.1691 15.531 25.1691 14.5415C25.1691 14.0917 25.4389 13.5968 26.2486 13.5968H27.7329V14.3613H26.3386C26.2037 14.3613 26.1136 14.3614 26.0236 14.4064C25.9339 14.4515 25.9339 14.5415 25.9339 14.6314C25.9339 14.7664 26.0236 14.8114 26.1136 14.856C26.2037 14.9011 26.2936 14.9011 26.3834 14.9011H26.7883C27.1932 14.9011 27.463 14.9911 27.6429 15.171C27.7779 15.306 27.8679 15.531 27.8679 15.8457C27.8679 16.5202 27.4631 16.8353 26.6985 16.8353ZM30.5667 16.5202C30.387 16.7004 30.0719 16.8353 29.622 16.8353H28.183V16.1607H29.6219C29.7569 16.1607 29.8471 16.1607 29.9369 16.0706C29.9818 16.0255 30.0269 15.9358 30.0269 15.8457C30.0269 15.7555 29.9818 15.666 29.9369 15.6209C29.8919 15.576 29.8021 15.531 29.6671 15.531C28.9476 15.4859 28.0928 15.531 28.0928 14.5416C28.0928 14.1141 28.3374 13.7279 28.9406 13.6132C29.0127 13.6032 29.0889 13.5968 29.1723 13.5968H30.6568V14.3613H29.6671H29.3073H29.2623C29.1273 14.3613 29.0375 14.3614 28.9476 14.4064C28.9023 14.4515 28.8573 14.5415 28.8573 14.6314C28.8573 14.7664 28.9023 14.8114 29.0375 14.856C29.1273 14.9011 29.2173 14.9011 29.3073 14.9011H29.352H29.712C29.9086 14.9011 30.0573 14.9254 30.1933 14.9732C30.3179 15.0182 30.7303 15.2027 30.8226 15.6843C30.8306 15.7348 30.8365 15.7874 30.8365 15.8457C30.8365 16.1157 30.7465 16.3405 30.5667 16.5202Z" fill="white"/>
</svg>
