<svg width="17" height="14" viewBox="0 0 17 14" fill="none" xmlns="http://www.w3.org/2000/svg">
<path d="M1.7 0C1.1339 0 0.634751 0.286193 0.327051 0.726318C0.119651 1.02207 0.211278 1.44129 0.511328 1.63379L7.97539 6.42236C8.29669 6.62886 8.70331 6.62886 9.02461 6.42236L16.4571 1.59277C16.7691 1.38977 16.8469 0.948582 16.6165 0.652832C16.3063 0.255582 15.833 0 15.3 0H1.7ZM16.5883 3.5752C16.5172 3.576 16.445 3.59617 16.3774 3.64014L9.02461 8.41333C8.70331 8.61896 8.29669 8.61812 7.97539 8.41162L0.620898 3.69482C0.350598 3.52157 0 3.72217 0 4.05029V12.25C0 13.2169 0.76075 14 1.7 14H15.3C16.2393 14 17 13.2169 17 12.25V3.9939C17 3.74715 16.8015 3.57278 16.5883 3.5752Z" fill="#F28F3B"/>
</svg>
