<svg width="18" height="18" viewBox="0 0 18 18" fill="none" xmlns="http://www.w3.org/2000/svg">
<path d="M16.1937 12.24L13.6737 11.95C13.0637 11.88 12.4637 12.09 12.0337 12.52L10.1837 14.37C8.76467 13.65 7.47767 12.711 6.36567 11.598C5.25267 10.486 4.31367 9.199 3.59367 7.78L5.44367 5.93C5.87367 5.5 6.08367 4.9 6.01367 4.29L5.72367 1.77C5.60367 0.76 4.75367 0 3.73367 0H2.00367C0.873674 0 -0.0663265 0.94 0.00367348 2.07C0.268673 6.339 2.10767 10.178 4.94667 13.017C7.78567 15.856 11.6247 17.695 15.8937 17.96C17.0237 18.03 17.9637 17.09 17.9637 15.96V14.23C17.9637 13.21 17.2037 12.36 16.1937 12.24Z" fill="#F28F3B"/>
</svg>
