<svg width="39" height="40" viewBox="0 0 39 40" fill="none" xmlns="http://www.w3.org/2000/svg">
<path d="M31.2 0C31.2 0 28.08 4.45385 28.08 6.15385C28.08 7.85385 29.4762 9.23077 31.2 9.23077C32.9238 9.23077 34.32 7.85385 34.32 6.15385C34.32 4.45385 31.2 0 31.2 0ZM7.8 1.53846C7.40266 1.53854 7.02032 1.68814 6.73099 1.95672C6.44166 2.2253 6.26714 2.59264 6.24305 2.98377L5.88047 8.82812L0.984141 18.6058C0.872707 18.8279 0.817308 19.0732 0.822656 19.3209C0.369074 20.5022 0 21.7376 0 23.0769V30.7692C0 35.8487 4.20946 40 9.36 40H29.64C32.2062 40 34.32 37.9153 34.32 35.3846C34.32 34.7022 33.8936 34.1937 33.5887 33.6238C33.6723 33.5731 33.7509 33.5148 33.8234 33.4495C35.8383 32.9494 37.44 31.3621 37.44 29.2308C37.44 28.2968 36.9147 27.557 36.4223 26.8269C37.8606 26.0354 39 24.8021 39 23.0769C39 21.3518 37.8606 20.1184 36.4223 19.3269C36.9147 18.5968 37.44 17.8571 37.44 16.9231C37.44 14.3924 35.3262 12.3077 32.76 12.3077H15.0881C15.2915 11.436 15.6 10.519 15.6 9.72957C15.6 6.50648 14.5313 4.25419 12.8883 2.9988C11.2452 1.74341 9.3103 1.53846 7.8 1.53846ZM9.24422 4.98798C9.84829 5.11222 10.5405 5.0985 10.9779 5.43269C11.7798 6.04538 12.48 7.12035 12.48 9.72957C12.48 10.4222 12.1658 11.9068 11.7091 13.4014C11.6388 13.6312 11.624 13.874 11.6658 14.1105C11.7077 14.3469 11.805 14.5705 11.9501 14.7632C12.0952 14.9559 12.284 15.1125 12.5014 15.2204C12.7187 15.3283 12.9587 15.3845 13.2021 15.3846H32.76C33.6414 15.3846 34.32 16.0538 34.32 16.9231C34.32 17.7924 33.6414 18.4615 32.76 18.4615H21.84C21.6333 18.4587 21.428 18.4963 21.2362 18.5723C21.0444 18.6484 20.8698 18.7612 20.7226 18.9044C20.5753 19.0475 20.4585 19.2181 20.3787 19.4062C20.2989 19.5943 20.2578 19.7961 20.2578 20C20.2578 20.2039 20.2989 20.4057 20.3787 20.5938C20.4585 20.7819 20.5753 20.9525 20.7226 21.0956C20.8698 21.2388 21.0444 21.3516 21.2362 21.4277C21.428 21.5037 21.6333 21.5413 21.84 21.5385H32.76H34.32C35.2014 21.5385 35.88 22.2076 35.88 23.0769C35.88 23.9462 35.2014 24.6154 34.32 24.6154H32.76H21.84C21.6333 24.6125 21.428 24.6502 21.2362 24.7262C21.0444 24.8022 20.8698 24.9151 20.7226 25.0582C20.5753 25.2014 20.4585 25.3719 20.3787 25.56C20.2989 25.7481 20.2578 25.95 20.2578 26.1538C20.2578 26.3577 20.2989 26.5596 20.3787 26.7477C20.4585 26.9358 20.5753 27.1063 20.7226 27.2495C20.8698 27.3926 21.0444 27.5055 21.2362 27.5815C21.428 27.6575 21.6333 27.6952 21.84 27.6923H32.76C33.6414 27.6923 34.32 28.3615 34.32 29.2308C34.32 30.1 33.6414 30.7692 32.76 30.7692H21.84C21.6333 30.7663 21.428 30.804 21.2362 30.88C21.0444 30.9561 20.8698 31.0689 20.7226 31.2121C20.5753 31.3552 20.4585 31.5258 20.3787 31.7139C20.2989 31.902 20.2578 32.1038 20.2578 32.3077C20.2578 32.5116 20.2989 32.7134 20.3787 32.9015C20.4585 33.0896 20.5753 33.2602 20.7226 33.4033C20.8698 33.5465 21.0444 33.6593 21.2362 33.7354C21.428 33.8114 21.6333 33.849 21.84 33.8462H29.64C30.5214 33.8462 31.2 34.5153 31.2 35.3846C31.2 36.2539 30.5214 36.9231 29.64 36.9231H9.36C5.89622 36.9231 3.12 34.1852 3.12 30.7692V23.0769C3.12 21.9516 3.3684 20.8898 3.81164 19.9189C3.818 19.9029 3.8241 19.8869 3.82992 19.8708L8.81766 9.91286C8.90975 9.72893 8.96362 9.52869 8.97609 9.32392L9.24422 4.98798Z" fill="#FAFBFF"/>
</svg>
