<svg width="42" height="18" viewBox="0 0 42 18" fill="none" xmlns="http://www.w3.org/2000/svg">
<path d="M19.525 8.90692V13.7108H17.9998V1.84458H22.0428C23.0181 1.82383 23.9605 2.19389 24.6609 2.87176C25.3699 3.50987 25.7694 4.42292 25.7538 5.37575C25.7746 6.33549 25.3751 7.25547 24.6609 7.8953C23.9536 8.56971 23.0804 8.90692 22.0428 8.90519L19.525 8.90692ZM19.525 3.30581V7.44914H22.0808C22.648 7.46644 23.1945 7.24336 23.5888 6.83525C24.3894 6.05708 24.4084 4.77569 23.6285 3.97504C23.6147 3.96121 23.6026 3.94737 23.5888 3.93527C23.1997 3.51851 22.6498 3.29025 22.0808 3.30581H19.525ZM29.2677 5.32733C30.3952 5.32733 31.284 5.62822 31.9359 6.23001C32.5879 6.83179 32.913 7.65839 32.913 8.70632V13.7108H31.4552V12.5833H31.3895C30.7583 13.512 29.9179 13.9754 28.8699 13.9754C27.9759 13.9754 27.2271 13.7108 26.6254 13.1799C26.0409 12.6871 25.7088 11.9574 25.7227 11.1913C25.7227 10.3509 26.0409 9.68336 26.6755 9.18706C27.3101 8.69076 28.1575 8.44174 29.2193 8.44174C30.1237 8.44174 30.8707 8.60776 31.4552 8.93805V8.58873C31.4587 8.06649 31.2269 7.57192 30.8258 7.2399C30.4228 6.87676 29.8971 6.67789 29.3541 6.68481C28.5033 6.68481 27.8289 7.04449 27.3326 7.76214L25.9907 6.91653C26.7274 5.85649 27.8203 5.32733 29.2677 5.32733ZM27.2946 11.2259C27.2929 11.6201 27.4813 11.9902 27.7995 12.2202C28.1367 12.4848 28.5552 12.6266 28.9841 12.6179C29.6274 12.6162 30.2447 12.3603 30.6995 11.9055C31.2045 11.4299 31.4569 10.8731 31.4569 10.2315C30.9814 9.85283 30.3191 9.66261 29.4683 9.66261C28.8492 9.66261 28.3321 9.81133 27.9188 10.1105C27.5021 10.4148 27.2946 10.7832 27.2946 11.2259ZM41.2827 5.59191L36.1934 17.2904H34.6198L36.5081 13.1972L33.1603 5.59191H34.8169L37.2362 11.4247H37.269L39.6226 5.59191H41.2827Z" fill="#5F6368"/>
<path d="M13.3637 7.8693C13.3637 7.40412 13.3256 6.94068 13.2461 6.48242H6.81665V9.10745H10.4983C10.3461 9.9548 9.85498 10.7036 9.13733 11.1791V12.8842H11.3352C12.6218 11.6996 13.3637 9.94442 13.3637 7.8693Z" fill="#4285F4"/>
<path d="M6.81681 14.5324C8.65675 14.5324 10.2062 13.9289 11.3354 12.8862L9.13749 11.1811C8.52533 11.5961 7.73851 11.8331 6.81681 11.8331C5.03912 11.8331 3.52947 10.6347 2.98993 9.01953H0.726318V10.7765C1.8832 13.0799 4.2402 14.5324 6.81681 14.5324Z" fill="#34A853"/>
<path d="M2.98991 9.01924C2.70458 8.17363 2.70458 7.25538 2.98991 6.40977V4.65283H0.726294C-0.242098 6.57924 -0.242098 8.84977 0.726294 10.7762L2.98991 9.01924Z" fill="#FBBC04"/>
<path d="M6.81681 3.59629C7.78866 3.58073 8.72765 3.94733 9.43147 4.61829L11.3786 2.67286C10.1439 1.51425 8.50977 0.877877 6.81681 0.896899C4.2402 0.896899 1.8832 2.35122 0.726318 4.65287L2.98993 6.40981C3.52947 4.79467 5.03912 3.59629 6.81681 3.59629Z" fill="#EA4335"/>
</svg>
