<svg width="92" height="92" viewBox="0 0 92 92" fill="none" xmlns="http://www.w3.org/2000/svg">
<path d="M31.9169 51.3431C32.251 51.6772 32.4414 52.1406 32.4414 52.613C32.4414 53.0872 32.251 53.5488 31.9169 53.8829C31.581 54.2186 31.1194 54.4091 30.647 54.4091C30.1728 54.4091 29.7112 54.2186 29.3754 53.8829C29.0413 53.5488 28.8509 53.0854 28.8509 52.613C28.8509 52.1406 29.0413 51.679 29.3754 51.3431C29.7094 51.0092 30.1728 50.8186 30.647 50.8186C31.1194 50.8186 31.5828 51.009 31.9169 51.3431Z" fill="#3C4154"/>
<path d="M1.13677 85.3478L1.25011 85.2345L5.99377 65.2999C8.02289 56.7729 15.5619 50.8175 24.327 50.8175H24.461C25.453 50.8175 26.2571 51.6218 26.2571 52.6137C26.2571 53.6055 25.453 54.4098 24.461 54.4098H24.327C17.2327 54.4098 11.131 59.23 9.48856 66.1317L6.09597 80.3886L21.3933 65.0912C21.7301 64.7545 22.187 64.5651 22.6634 64.5651H30.6599C30.8873 64.5651 31.1079 64.6099 31.3132 64.6901C35.7619 62.1207 40.8328 60.7611 46 60.7611C51.178 60.7611 56.2358 62.1173 60.6894 64.6892C60.8939 64.6097 61.1136 64.5651 61.3401 64.5651H69.3366C69.813 64.5651 70.2699 64.7545 70.6067 65.0912L85.915 80.3995L82.5438 66.1508C80.9082 59.2379 74.8045 54.4098 67.7007 54.4098H53.9207C51.7357 56.3349 48.9608 57.3891 46.0226 57.3891C42.8258 57.3891 39.8205 56.1442 37.5598 53.8837C37.2231 53.5468 37.0338 53.09 37.0338 52.6137V43.3977C33.1136 40.9419 30.2633 36.9312 29.353 32.236H27.9563C24.5889 32.236 21.8494 29.4965 21.8494 26.1291V25.1604C21.8494 21.793 24.5889 19.0535 27.9563 19.0535H29.0419V16.9805C29.0419 7.61734 36.6594 0 46.0225 0C55.3855 0 63.003 7.61734 63.003 16.9805V19.0537H64.0886C67.456 19.0537 70.1955 21.7932 70.1955 25.1606V26.1293C70.1955 29.4967 67.456 32.2362 64.0886 32.2362H62.6919C61.7816 36.9314 58.9313 40.942 55.0112 43.3979V50.8177H67.7003C71.9256 50.8177 76.0776 52.2613 79.3915 54.8826C82.7054 57.5041 85.0663 61.2121 86.0391 65.3238L90.7506 85.2354L90.8631 85.3478C91.9752 86.46 92.305 88.1178 91.7031 89.5711C91.1011 91.0246 89.6957 91.9634 88.1228 91.9634H75.9616C75.3268 91.9634 74.7391 91.6284 74.4158 91.082L68.3877 80.8955L67.8361 81.2502C67.2987 81.5956 66.7142 81.8208 66.1161 81.9358C67.1595 84.4761 67.7364 87.2553 67.7364 90.1672C67.7364 91.1591 66.9323 91.9634 65.9403 91.9634C64.9482 91.9634 64.1441 91.1591 64.1441 90.1672C64.1441 85.8103 62.6001 81.8076 60.0311 78.6763L52.4062 86.3014C53.0902 87.4304 53.4844 88.7537 53.4844 90.1672C53.4844 91.1591 52.6803 91.9634 51.6883 91.9634C50.6962 91.9634 49.8921 91.1591 49.8921 90.1672C49.8921 88.0214 48.1462 86.2753 46.0002 86.2753C43.8541 86.2753 42.1083 88.0214 42.1083 90.1672C42.1083 91.1591 41.3041 91.9634 40.3121 91.9634C39.3201 91.9634 38.5159 91.1591 38.5159 90.1672C38.5159 88.7537 38.9102 87.4304 39.5942 86.3014L31.9693 78.6765C29.4002 81.8077 27.8563 85.8105 27.8563 90.1674C27.8563 91.1593 27.0521 91.9636 26.0601 91.9636C25.0681 91.9636 24.264 91.1593 24.264 90.1674C24.264 87.2555 24.8409 84.4763 25.8843 81.936C25.2861 81.821 24.7017 81.5958 24.1643 81.2504L23.6127 80.8956L17.5846 91.0822C17.2613 91.6286 16.6736 91.9636 16.0388 91.9636H3.87753C2.30463 91.9636 0.899139 91.0246 0.297241 89.5713C-0.305191 88.1178 0.0245895 86.4601 1.13677 85.3478ZM25.4421 25.1606V26.1293C25.4421 27.5159 26.57 28.6439 27.9567 28.6439H29.0423V22.646H27.9567C26.57 22.646 25.4421 23.7742 25.4421 25.1606ZM59.411 16.9805C59.411 9.59814 53.405 3.59232 46.0228 3.59232C38.6406 3.59232 32.6346 9.59832 32.6346 16.9805V19.0537H37.3515C38.2927 19.0537 39.1956 18.8029 39.9832 18.3329C38.9894 17.6146 38.0461 16.8117 37.1622 15.9278C36.4608 15.2264 36.4608 14.0891 37.1622 13.3875C37.8636 12.6863 39.0009 12.6863 39.7023 13.3875C43.3559 17.0413 48.2138 19.0535 53.381 19.0535H59.4109V16.9805H59.411ZM66.6036 26.1293V25.1606C66.6036 23.774 65.4756 22.646 64.089 22.646H63.0034V28.6439H64.089C65.4756 28.6439 66.6036 27.5159 66.6036 26.1293ZM59.4109 29.0017V22.646H53.381C49.8244 22.646 46.3914 21.842 43.2896 20.32C41.6691 21.8226 39.5737 22.646 37.3513 22.646H32.6344V28.9981C32.6344 36.3805 38.6404 42.3863 46.0226 42.3863C53.404 42.3865 59.4091 36.3823 59.4109 29.0017ZM46.0228 45.9788C44.1372 45.9788 42.3225 45.6693 40.6264 45.0994V51.8273C43.7332 54.4486 48.3126 54.4486 51.4194 51.8273V45.0994C49.7231 45.6693 47.9084 45.9788 46.0228 45.9788ZM33.4641 67.5996L34.9209 70.0921C35.1275 70.4456 35.2841 70.8179 35.3949 71.1994C38.5339 69.4374 42.1514 68.4306 46 68.4306C49.8486 68.4306 53.4661 69.4374 56.6051 71.1994C56.7159 70.8179 56.8725 70.4458 57.0791 70.0923L58.5356 67.6003C54.7155 65.4747 50.4085 64.3535 46 64.3535C41.6003 64.3535 37.2811 65.4756 33.4641 67.5996ZM76.9858 88.3711H88.1228C88.1746 88.3711 88.312 88.3711 88.3844 88.1963C88.4567 88.0216 88.3596 87.9244 88.3229 87.8879L78.1137 77.6787L73.4301 82.3624L76.9858 88.3711ZM68.0129 76.866C68.4231 76.6021 68.923 76.5163 69.3981 76.629C69.8728 76.7415 70.2814 77.0422 70.5298 77.4621L71.541 79.171L75.5732 75.1388L68.5923 68.1578H62.3704L60.1802 71.9053C59.8964 72.3906 59.9502 73.0048 60.314 73.4335L64.1637 77.9708C64.5924 78.476 65.336 78.5865 65.8934 78.2287L68.0129 76.866ZM49.8659 83.7612L57.4908 76.1362C54.3595 73.5671 50.3568 72.0231 45.9998 72.0231C41.6429 72.0231 37.6401 73.5671 34.5089 76.1362L42.1339 83.7612C43.263 83.0773 44.5863 82.6832 45.9998 82.6832C47.4136 82.683 48.7368 83.0773 49.8659 83.7612ZM23.987 76.8658L26.1065 78.2283C26.6638 78.5869 27.4074 78.4759 27.836 77.9706L31.6857 73.4333C32.0494 73.0046 32.1033 72.3905 31.8195 71.905L29.6293 68.1576H23.4074L16.4264 75.1386L20.4586 79.1708L21.4698 77.4619C21.7183 77.042 22.1269 76.7413 22.6016 76.6289C23.0767 76.5164 23.5766 76.6021 23.987 76.8658ZM3.61565 88.1965C3.68803 88.3713 3.82526 88.3713 3.87717 88.3713H15.0143L18.5699 82.3627L13.8863 77.6791L3.67709 87.8883C3.64044 87.9246 3.54327 88.0217 3.61565 88.1965Z" fill="#3C4154"/>
</svg>
