<svg width="34" height="40" viewBox="0 0 34 40" fill="none" xmlns="http://www.w3.org/2000/svg">
<path d="M17 0C9.27273 0 0 6.15383 0 16.923V21.5384V23.0769V24.6153C0 26.9486 1.02649 28.61 2.07369 29.5222C2.7122 30.0783 2.97947 30.0871 3.40785 30.2553C3.96039 31.6768 7.47169 39.6811 16.5835 39.9488H16.5865C16.7214 39.9843 16.8605 40.0015 17 39.9999C17.1365 40.0007 17.2725 39.9835 17.4045 39.9488C26.5255 39.6885 30.0394 31.6774 30.5922 30.2553C31.0205 30.0871 31.2878 30.0783 31.9263 29.5222C32.9735 28.61 34 26.9486 34 24.6153V23.0769V21.5384V16.923C34 10.7692 30.9091 3.07692 24.7273 3.07692C24.7273 3.07692 23.1818 0 17 0ZM24.7273 9.23075C24.7273 9.23075 29.3636 13.4769 29.3636 23.0769H30.9091V24.6153C30.9091 26.1281 30.3901 26.7745 29.8919 27.2085C29.7457 27.3358 29.6397 27.3828 29.5176 27.4579C25.4395 24.5961 21.2398 23.0769 17 23.0769C12.7602 23.0769 8.56048 24.5961 4.48242 27.4579C4.36027 27.3828 4.25429 27.3358 4.10813 27.2085C3.60988 26.7745 3.09091 26.1281 3.09091 24.6153V23.0769H4.63636C4.63636 12.3077 20.0909 19.9999 24.7273 9.23075Z" fill="#FAFBFF"/>
</svg>
