<svg width="26" height="21" viewBox="0 0 26 21" fill="none" xmlns="http://www.w3.org/2000/svg">
<path d="M24.7256 19.8268V19.876H24.7715C24.7801 19.8761 24.7886 19.874 24.7961 19.8697C24.7991 19.8676 24.8015 19.8648 24.8031 19.8615C24.8047 19.8582 24.8055 19.8546 24.8053 19.8509C24.8055 19.8473 24.8047 19.8437 24.8031 19.8405C24.8015 19.8373 24.7991 19.8346 24.7961 19.8326C24.7887 19.8281 24.7801 19.8259 24.7715 19.8263H24.7256V19.8268ZM24.772 19.792C24.7916 19.7908 24.8111 19.7964 24.8271 19.808C24.8335 19.8132 24.8386 19.8199 24.8419 19.8274C24.8453 19.835 24.8468 19.8432 24.8464 19.8515C24.8467 19.8586 24.8455 19.8657 24.8428 19.8723C24.8401 19.8789 24.8361 19.8849 24.8309 19.8898C24.8186 19.9005 24.8031 19.9069 24.7869 19.9081L24.8484 19.9782H24.801L24.7444 19.9086H24.7261V19.9782H24.6865V19.7921H24.7726L24.772 19.792ZM24.7597 20.0424C24.7805 20.0426 24.801 20.0384 24.8201 20.0301C24.8384 20.0222 24.8551 20.0109 24.8693 19.9968C24.8834 19.9827 24.8948 19.966 24.9026 19.9476C24.9187 19.9086 24.9187 19.8648 24.9026 19.8258C24.8946 19.8075 24.8833 19.7908 24.8693 19.7766C24.8551 19.7625 24.8384 19.7512 24.8201 19.7433C24.8009 19.7354 24.7804 19.7315 24.7597 19.7317C24.7386 19.7315 24.7177 19.7354 24.6982 19.7433C24.6794 19.751 24.6623 19.7623 24.6479 19.7766C24.6261 19.7989 24.6114 19.8271 24.6056 19.8578C24.5997 19.8884 24.603 19.92 24.615 19.9488C24.6225 19.9673 24.6337 19.984 24.6479 19.998C24.6623 20.0122 24.6794 20.0236 24.6982 20.0313C24.7176 20.0396 24.7386 20.0438 24.7597 20.0436V20.0424ZM24.7597 19.6869C24.8137 19.6869 24.8656 19.7081 24.9042 19.746C24.9228 19.7642 24.9376 19.7859 24.9477 19.8098C24.9583 19.8344 24.9637 19.8609 24.9637 19.8876C24.9637 19.9143 24.9583 19.9408 24.9477 19.9654C24.9374 19.9892 24.9226 20.0109 24.9042 20.0292C24.8853 20.0473 24.8634 20.0619 24.8394 20.0723C24.8142 20.083 24.7871 20.0884 24.7597 20.0883C24.732 20.0885 24.7045 20.083 24.679 20.0723C24.6547 20.0622 24.6326 20.0475 24.6137 20.0292C24.5953 20.0102 24.5807 19.9878 24.5708 19.9633C24.5602 19.9387 24.5548 19.9123 24.5548 19.8855C24.5548 19.8588 24.5602 19.8323 24.5708 19.8077C24.5809 19.7838 24.5957 19.7621 24.6143 19.7439C24.6329 19.7253 24.6552 19.7106 24.6796 19.7008C24.7051 19.6901 24.7326 19.6847 24.7603 19.6849L24.7597 19.6869ZM5.92664 18.9683C5.92664 18.6134 6.1591 18.3219 6.53903 18.3219C6.90211 18.3219 7.14712 18.6009 7.14712 18.9683C7.14712 19.3357 6.90211 19.6146 6.53903 19.6146C6.1591 19.6146 5.92664 19.3231 5.92664 18.9683ZM7.561 18.9683V17.9585H7.12203V18.2045C6.9828 18.0227 6.77161 17.9087 6.48442 17.9087C5.91864 17.9087 5.47463 18.3524 5.47463 18.9688C5.47463 19.5851 5.9184 20.0289 6.48442 20.0289C6.77149 20.0289 6.9828 19.9147 7.12203 19.7331V19.9782H7.56051V18.9683H7.561ZM22.3933 18.9683C22.3933 18.6134 22.6257 18.3219 23.0058 18.3219C23.3692 18.3219 23.6139 18.6009 23.6139 18.9683C23.6139 19.3357 23.3692 19.6146 23.0058 19.6146C22.6258 19.6146 22.3933 19.3231 22.3933 18.9683ZM24.0281 18.9683V17.1479H23.5888V18.2045C23.4495 18.0227 23.2384 17.9087 22.9512 17.9087C22.3854 17.9087 21.9414 18.3524 21.9414 18.9688C21.9414 19.5851 22.3851 20.0289 22.9512 20.0289C23.2384 20.0289 23.4495 19.9147 23.5888 19.7331V19.9782H24.0281V18.9683ZM13.0092 18.3012C13.2921 18.3012 13.4738 18.4785 13.5201 18.7908H12.4727C12.5196 18.4993 12.6965 18.3012 13.0093 18.3012H13.0092ZM13.0181 17.9076C12.4264 17.9076 12.0126 18.3381 12.0126 18.9677C12.0126 19.6096 12.4431 20.0278 13.0475 20.0278C13.3515 20.0278 13.63 19.9519 13.875 19.7449L13.6598 19.4196C13.4906 19.5548 13.2751 19.6307 13.0725 19.6307C12.7897 19.6307 12.5321 19.4997 12.4688 19.1363H13.9677C13.972 19.0817 13.9764 19.0266 13.9764 18.9675C13.972 18.3382 13.5829 17.9074 13.0178 17.9074L13.0181 17.9076ZM18.3177 18.9675C18.3177 18.6127 18.5501 18.3212 18.9301 18.3212C19.2932 18.3212 19.5382 18.6002 19.5382 18.9675C19.5382 19.3349 19.2932 19.6139 18.9301 19.6139C18.5501 19.6139 18.3176 19.3224 18.3176 18.9675H18.3177ZM19.9519 18.9675V17.9585H19.5132V18.2045C19.3735 18.0227 19.1628 17.9087 18.8756 17.9087C18.3098 17.9087 17.8658 18.3524 17.8658 18.9688C17.8658 19.5851 18.3096 20.0289 18.8756 20.0289C19.1628 20.0289 19.3735 19.9147 19.5132 19.7331V19.9782H19.952V18.9683L19.9519 18.9675ZM15.8387 18.9675C15.8387 19.5799 16.265 20.0276 16.9157 20.0276C17.2197 20.0276 17.4223 19.96 17.6413 19.7869L17.4305 19.4321C17.2657 19.5505 17.0926 19.6139 16.9016 19.6139C16.5512 19.6096 16.2935 19.3562 16.2935 18.9675C16.2935 18.5789 16.5512 18.3256 16.9016 18.3212C17.0922 18.3212 17.2652 18.3845 17.4305 18.503L17.6413 18.1481C17.4219 17.9751 17.2193 17.9074 16.9157 17.9074C16.265 17.9074 15.8387 18.355 15.8387 18.9675ZM21.4977 17.9074C21.2445 17.9074 21.0795 18.0259 20.9655 18.2032V17.9585H20.5305V19.9771H20.9699V18.8455C20.9699 18.5115 21.1135 18.3259 21.4004 18.3259C21.4944 18.3245 21.5877 18.3418 21.675 18.3767L21.8103 17.9629C21.7131 17.9247 21.5864 17.9078 21.4975 17.9078L21.4977 17.9074ZM9.73125 18.119C9.52007 17.9798 9.22906 17.9078 8.90804 17.9078C8.39663 17.9078 8.06737 18.1529 8.06737 18.554C8.06737 18.8832 8.3125 19.0862 8.76389 19.1496L8.97126 19.1791C9.21197 19.2129 9.32561 19.2763 9.32561 19.3903C9.32561 19.5464 9.16572 19.6354 8.86549 19.6354C8.56144 19.6354 8.34202 19.5382 8.19406 19.4242L7.98779 19.7665C8.22849 19.9439 8.53254 20.0285 8.8618 20.0285C9.4448 20.0285 9.78266 19.754 9.78266 19.3696C9.78266 19.0148 9.51675 18.8292 9.07741 18.7658L8.87053 18.7358C8.6805 18.7112 8.52823 18.673 8.52823 18.5377C8.52823 18.3901 8.67177 18.3013 8.91259 18.3013C9.17027 18.3013 9.4197 18.3984 9.54196 18.4743L9.73199 18.1195L9.73125 18.119ZM15.3953 17.9082C15.1421 17.9082 14.9771 18.0266 14.8636 18.204V17.9585H14.4286V19.9771H14.8675V18.8455C14.8675 18.5115 15.0111 18.3259 15.298 18.3259C15.392 18.3245 15.4853 18.3418 15.5725 18.3767L15.7078 17.9629C15.6107 17.9247 15.484 17.9078 15.3951 17.9078L15.3953 17.9082ZM11.6494 17.9585H10.9316V17.3461H10.4878V17.9585H10.0783V18.3597H10.4878V19.2806C10.4878 19.7489 10.6696 20.0279 11.1889 20.0279C11.3794 20.0279 11.5988 19.9688 11.738 19.8718L11.6112 19.4959C11.4802 19.5718 11.3367 19.6101 11.2226 19.6101C11.0031 19.6101 10.9316 19.4748 10.9316 19.2722V18.3601H11.6494V17.9585ZM5.08646 19.9776V18.7107C5.08646 18.2336 4.78241 17.9126 4.29227 17.9083C4.0346 17.904 3.76881 17.9842 3.58271 18.2675C3.44348 18.0436 3.22406 17.9083 2.91559 17.9083C2.69998 17.9083 2.48929 17.9716 2.32435 18.208V17.9585H1.88501V19.9771H2.32779V18.8578C2.32779 18.5074 2.52213 18.3212 2.82223 18.3212C3.11373 18.3212 3.2612 18.5112 3.2612 18.8534V19.9768H3.70497V18.8576C3.70497 18.5072 3.90755 18.321 4.19892 18.321C4.49866 18.321 4.6417 18.511 4.6417 18.8532V19.9766L5.08646 19.9776Z" fill="#231F20"/>
<path d="M16.2383 14.5289H9.58594V2.57373H16.2384L16.2383 14.5289Z" fill="#FF5F00"/>
<path d="M10.0079 8.55145C10.0079 6.12635 11.1434 3.96606 12.9116 2.57388C11.5732 1.51851 9.91776 0.945732 8.2133 0.94825C4.01461 0.94825 0.611084 4.35227 0.611084 8.55145C0.611084 12.7506 4.01461 16.1547 8.2133 16.1547C9.9178 16.1572 11.5733 15.5844 12.9117 14.529C11.1437 13.1371 10.0079 10.9767 10.0079 8.55145Z" fill="#EB001B"/>
<path d="M25.2131 8.55145C25.2131 12.7506 21.8096 16.1547 17.6109 16.1547C15.9062 16.1572 14.2506 15.5844 12.9119 14.529C14.6805 13.1368 15.816 10.9767 15.816 8.55145C15.816 6.12623 14.6805 3.96606 12.9119 2.57388C14.2505 1.51855 15.9061 0.945776 17.6108 0.94825C21.8095 0.94825 25.213 4.35227 25.213 8.55145" fill="#F79E1B"/>
</svg>
