<svg width="97" height="94" viewBox="0 0 97 94" fill="none" xmlns="http://www.w3.org/2000/svg">
<path d="M5.18779 57.9566C5.50475 58.8157 6.00415 59.5891 6.64317 60.2228C7.77629 61.3559 9.33398 62.0593 11.0523 62.0593C12.7655 62.0593 14.3283 61.3559 15.4613 60.2228C16.5944 59.0899 17.2978 57.5271 17.2978 55.8138V52.3393C15.9823 52.452 14.8275 52.1674 13.9254 51.7914C13.8447 52.1833 13.7535 52.5647 13.6353 52.9406C13.1895 54.3905 12.4431 55.7117 11.2617 56.6622C10.0641 57.629 8.47462 58.1875 6.36922 58.0799C5.99335 58.0638 5.60118 58.021 5.18779 57.9566ZM41.9966 48.6499H54.488V44.724H44.8697C44.0802 44.724 43.3605 45.0518 42.8397 45.5726C42.3187 46.0936 41.9966 46.8078 41.9966 47.5973V48.6499ZM54.4879 51.4907H41.9965V55.8136C41.9965 57.5269 42.6999 59.0897 43.833 60.2226C44.9659 61.3557 46.5287 62.0592 48.242 62.0592C49.9603 62.0592 51.5231 61.3557 52.6511 60.2226C53.784 59.0897 54.4877 57.5269 54.4877 55.8136V51.4907H54.4879ZM93.4233 60.9747C94.1859 61.3775 94.8571 61.9254 95.4103 62.575C96.4038 63.7459 97 65.2549 97 66.8927V76.4733C97 77.2575 96.3663 77.891 95.5823 77.891C94.7984 77.891 94.1591 77.2573 94.1591 76.4733V66.8927C94.1591 65.9477 93.8153 65.0775 93.2462 64.4063C92.7413 63.8101 92.0592 63.3698 91.2806 63.1604C89.7824 64.2559 87.94 64.9004 85.9532 64.9004C83.8965 64.9004 81.9951 64.213 80.4645 63.0477C80.1747 63.0799 79.8952 63.1606 79.6268 63.2842C79.2615 63.4558 78.9286 63.7191 78.66 64.0734L71.0286 74.1806C70.7602 74.535 70.3413 74.7499 69.8957 74.7499H60.1163C59.3913 74.7499 58.7362 75.0397 58.2637 75.5122C57.791 75.9902 57.4956 76.6453 57.4956 77.3651C57.4956 78.0899 57.791 78.7452 58.2637 79.2177C58.7362 79.6902 59.3913 79.9858 60.1163 79.9858H71.7967C72.2642 79.9858 72.6238 79.9375 73.0698 79.7118C73.8968 79.2983 74.6701 78.0418 75.2339 77.2899L80.2876 70.6039C80.7601 69.9756 81.6461 69.8519 82.2744 70.3246C82.8973 70.7971 83.0208 71.6885 82.5483 72.3116L77.7419 78.6806V91.0646H94.1591V82.907C94.1591 82.1228 94.7982 81.4893 95.5823 81.4893C96.3665 81.4893 97 82.123 97 82.907V92.4876C97 93.2717 96.3663 93.9053 95.5823 93.9053C64.1922 93.9053 32.8078 93.9053 1.42317 93.9053C0.639215 93.9053 0 93.2716 0 92.4876V82.907C0 82.1228 0.639215 81.4893 1.42317 81.4893C2.20732 81.4893 2.84085 82.123 2.84085 82.907V91.0646H19.2636V78.6806L14.4519 72.3116C13.9794 71.6885 14.1029 70.7971 14.7313 70.3246C15.3542 69.8519 16.2456 69.9755 16.7183 70.6039L21.6588 77.1449C22.1099 77.7409 22.5612 78.3423 23.0121 78.944C23.2698 79.2822 23.5867 79.54 23.9359 79.7118C24.3279 79.9106 24.6931 79.9858 25.1228 79.9858H36.8892C37.6089 79.9858 38.264 79.6902 38.7418 79.2177C39.2145 78.7452 39.5044 78.0899 39.5044 77.3651C39.5044 76.6453 39.2145 75.9902 38.7418 75.5122C38.264 75.0397 37.6089 74.7499 36.8892 74.7499H27.1045C26.6748 74.7499 26.2506 74.5511 25.9716 74.1806L18.3402 64.0734C17.905 63.4988 17.2552 63.1284 16.5358 63.0477C15.0106 64.2077 13.1096 64.9004 11.0527 64.9004C9.06571 64.9004 7.21816 64.2561 5.71997 63.1659C4.95742 63.3647 4.28069 63.7997 3.7758 64.3796C3.1957 65.0561 2.84123 65.9316 2.84123 66.8929V76.4735C2.84123 77.2577 2.20751 77.8912 1.42355 77.8912C0.639594 77.8912 0.000378906 77.2575 0.000378906 76.4735V66.8929C0.000378906 65.2334 0.617996 63.703 1.6329 62.5269C2.18079 61.8987 2.84123 61.3669 3.58237 60.9749C2.52446 59.4551 1.96596 57.6614 1.96596 55.814V47.5974C1.96596 46.0238 2.60498 44.5954 3.64148 43.5591C4.67817 42.5281 6.10115 41.8835 7.67456 41.8835H14.425C15.9986 41.8835 17.427 42.5279 18.4633 43.5591C19.5 44.5956 20.1391 46.024 20.1391 47.5974V55.814C20.1391 57.6345 19.5967 59.3371 18.6674 60.7601C19.4354 61.1468 20.0851 61.6784 20.6061 62.3659L27.8079 71.9035H33.4949V66.1413C33.4949 64.5088 34.3596 63.0318 35.7612 61.7805C36.8462 60.8139 38.2746 59.9706 39.8535 59.3049C39.4025 58.2254 39.1556 57.0493 39.1556 55.814V50.073V47.5973C39.1556 46.0237 39.7999 44.5952 40.8313 43.5589C41.8678 42.5279 43.2963 41.8834 44.8697 41.8834H55.911C56.6954 41.8834 57.3344 42.5224 57.3344 43.3065V50.0732V55.814C57.3344 56.9794 57.1089 58.0966 56.7062 59.1276C58.4031 59.7935 59.939 60.6527 61.0992 61.6515C62.5866 62.9297 63.5051 64.4548 63.5051 66.1411V71.9033H69.1921L76.3939 62.3657C76.9257 61.6674 77.5915 61.1305 78.3381 60.7654C77.4035 59.3369 76.8611 57.6345 76.8611 55.8138V47.5973C76.8611 46.0237 77.5057 44.5952 78.5368 43.5589C79.5733 42.5279 81.0018 41.8834 82.5752 41.8834H89.326C90.8994 41.8834 92.3281 42.5277 93.3644 43.5589C94.3954 44.5954 95.0399 46.0238 95.0399 47.5973V55.8138C95.0397 57.661 94.4759 59.4547 93.4233 60.9747ZM91.8122 57.9566C91.4041 58.021 91.0067 58.0638 90.6308 58.0799C88.5309 58.1873 86.9412 57.6288 85.7436 56.6622C84.5567 55.7117 83.8103 54.3907 83.3645 52.9406C83.2516 52.5647 83.1551 52.1833 83.0797 51.7914C82.1723 52.1672 81.023 52.4518 79.702 52.3393V55.8138C79.702 57.5271 80.4054 59.0899 81.5385 60.2228C82.6715 61.3559 84.2345 62.0593 85.953 62.0593C87.666 62.0593 89.229 61.3559 90.3621 60.2228C90.996 59.5891 91.4953 58.8157 91.8122 57.9566ZM79.702 49.4929C81.5976 49.7614 82.9831 48.6605 83.2302 48.4456C83.5096 48.2094 83.7726 48.0644 84.1539 48.0482C84.9381 48.0106 85.5985 48.6122 85.636 49.3961C85.6845 50.3199 85.8132 51.2545 86.0763 52.1081C86.3664 53.0586 86.8228 53.8964 87.5158 54.4549C88.1978 55.0028 89.1593 55.3142 90.4965 55.2496C91.012 55.2227 91.5758 55.1424 92.1987 55.0026V47.5969C92.1987 46.8074 91.8711 46.0932 91.3501 45.5722C90.8293 45.0514 90.1149 44.7236 89.3256 44.7236H82.575C81.7856 44.7236 81.0712 45.0514 80.5504 45.5722C80.0294 46.0932 79.702 46.8074 79.702 47.5969V49.4929ZM17.298 49.4929V47.5971C17.298 46.8076 16.9759 46.0934 16.455 45.5724C15.9341 45.0516 15.2144 44.7238 14.425 44.7238H7.67418C6.89022 44.7238 6.17049 45.0516 5.64949 45.5724C5.12869 46.0934 4.80643 46.8076 4.80643 47.5971V55.0028C5.42404 55.1424 5.98786 55.2229 6.50355 55.2498C7.8409 55.3144 8.80218 55.0028 9.48402 54.4551C10.1769 53.8968 10.6332 53.0588 10.9288 52.1083C11.1919 51.2545 11.3208 50.3201 11.3638 49.3963C11.4013 48.6122 12.0672 48.0108 12.8459 48.0483C13.2111 48.0646 13.4902 48.1988 13.7588 48.435C13.9578 48.6122 15.3648 49.7667 17.298 49.4929ZM41.3737 61.7481C39.8913 62.3227 38.581 63.053 37.6464 63.891C36.8356 64.6105 36.336 65.3839 36.336 66.1411V71.9033H36.8892C38.3931 71.9033 39.7624 72.5154 40.7506 73.5036C41.7388 74.4918 42.3509 75.8559 42.3509 77.3651C42.3509 78.3156 42.1039 79.2071 41.6797 79.9858H55.3203C54.8961 79.2071 54.6544 78.3156 54.6544 77.3651C54.6544 75.8559 55.2665 74.4918 56.2549 73.5036C57.2431 72.5154 58.6069 71.9033 60.1161 71.9033H60.664V66.1411C60.664 65.357 60.1269 64.5514 59.257 63.805C58.2366 62.9297 56.8187 62.1725 55.2398 61.5978C55.0572 61.818 54.8639 62.0328 54.6652 62.2316C53.0166 63.8802 50.7448 64.9006 48.2423 64.9006C45.745 64.9006 43.4681 63.8802 41.8248 62.2316C41.6689 62.0755 41.5185 61.9146 41.3737 61.7481ZM11.8418 10.5203C11.0576 10.5203 10.4241 9.88131 10.4241 9.09716C10.4241 8.31301 11.0578 7.67948 11.8418 7.67948H38.1458C38.93 7.67948 39.5637 8.3132 39.5637 9.09716C39.5637 9.88131 38.9298 10.5203 38.1458 10.5203H11.8418ZM11.8418 25.4714C11.0576 25.4714 10.4241 24.8324 10.4241 24.0482C10.4241 23.2641 11.0578 22.6251 11.8418 22.6251H24.994C25.7781 22.6251 26.4172 23.2641 26.4172 24.0482C26.4172 24.8324 25.7781 25.4714 24.994 25.4714H11.8418ZM11.8418 17.996C11.0576 17.996 10.4241 17.3567 10.4241 16.5728C10.4241 15.7886 11.0578 15.1551 11.8418 15.1551H38.1458C38.93 15.1551 39.5637 15.7888 39.5637 16.5728C39.5637 17.3567 38.9298 17.996 38.1458 17.996H11.8418ZM39.6012 33.1456C39.7999 33.6988 40.1167 34.1927 40.5197 34.5955C41.2394 35.3205 42.2382 35.7716 43.3497 35.7716H51.7006C52.4848 35.7716 53.1183 36.4053 53.1183 37.1948C53.1183 37.9789 52.4846 38.6124 51.7006 38.6124H43.3497C41.454 38.6124 39.7461 37.8393 38.5109 36.5933C37.5873 35.6644 36.932 34.4721 36.6527 33.1456H16.8416L10.408 39.5792C10.1503 39.8371 9.79586 39.9981 9.39839 39.9981C8.61424 39.9981 7.97522 39.3644 7.97522 38.5804V33.0275C6.17068 32.7267 4.55407 31.8622 3.31372 30.6162C1.75093 29.0587 0.784336 26.9052 0.784336 24.5315V8.61405C0.784336 6.2457 1.75112 4.09219 3.31372 2.52958C4.87103 0.972084 7.02454 0 9.39839 0H40.5898C42.9632 0 45.1169 0.972084 46.6742 2.52958C48.237 4.09219 49.2036 6.2457 49.2036 8.61405V11.2456H73.3384C75.2233 11.2456 76.9312 12.0136 78.1718 13.2541C79.4123 14.4947 80.1804 16.2024 80.1804 18.0875V31.7711C80.1804 33.6562 79.4123 35.3639 78.1718 36.6044C77.2533 37.5229 76.0721 38.1833 74.7563 38.4628V44.0478C74.7563 44.4076 74.622 44.7727 74.3427 45.0521C73.7895 45.6052 72.8874 45.6052 72.334 45.0521L65.895 38.613H58.1348C57.3507 38.613 56.7117 37.9793 56.7117 37.1953C56.7117 36.4059 57.3507 35.7722 58.1348 35.7722H66.4857C66.8832 35.7722 67.2375 35.9334 67.4953 36.1963L71.9151 40.6161V37.1951C71.9151 36.4057 72.5541 35.772 73.3384 35.772C74.4339 35.772 75.4381 35.3209 76.1632 34.5958C76.8882 33.871 77.3393 32.872 77.3393 31.7711V18.0875C77.3393 16.9866 76.8882 15.9878 76.1632 15.2627C75.4381 14.5377 74.4339 14.0866 73.3384 14.0866H49.2034V24.5319C49.2034 26.9056 48.2369 29.0591 46.674 30.6166C45.1166 32.1792 42.963 33.146 40.5896 33.146H39.6012V33.1456ZM16.2507 30.3047H40.5896C42.1793 30.3047 43.6184 29.6549 44.6657 28.6078C45.7128 27.5605 46.3626 26.1159 46.3626 24.5315V8.61405C46.3626 7.02985 45.7128 5.58527 44.6657 4.53797C43.6185 3.49067 42.1793 2.84085 40.5896 2.84085H9.3982C7.8085 2.84085 6.36922 3.49067 5.32193 4.53797C4.27482 5.58508 3.62481 7.02966 3.62481 8.61405V24.5317C3.62481 26.1159 4.27482 27.5605 5.32193 28.608C6.36904 29.6551 7.8085 30.3049 9.3982 30.3049C10.1823 30.3049 10.8159 30.9439 10.8159 31.7281V35.149L15.2464 30.724C15.5259 30.4444 15.8856 30.3047 16.2507 30.3047ZM74.9009 82.8264H22.1046V91.0644H74.9011V82.8264H74.9009Z" fill="white"/>
</svg>
