<svg width="47" height="13" viewBox="0 0 47 13" fill="none" xmlns="http://www.w3.org/2000/svg">
<path d="M8.56878 1.7392C8.01962 1.11328 7.02693 0.844928 5.75705 0.844928H2.07139C1.94568 0.844861 1.82407 0.889664 1.72845 0.971272C1.63283 1.05288 1.56947 1.16593 1.54978 1.29009L0.0158148 11.0237C0.00870202 11.0689 0.0114627 11.115 0.0239069 11.159C0.0363511 11.203 0.058183 11.2438 0.0878982 11.2785C0.117613 11.3132 0.154506 11.3411 0.196033 11.3602C0.237561 11.3793 0.282737 11.3892 0.328448 11.3892H2.60381L3.17528 7.76452L3.15756 7.87803C3.17688 7.75411 3.23981 7.64117 3.33502 7.55955C3.43023 7.47794 3.55146 7.43301 3.67687 7.43286H4.75813C6.88226 7.43286 8.54548 6.57008 9.03133 4.07427C9.04576 4.00046 9.05823 3.92861 9.06905 3.85841C9.2134 2.93593 9.06807 2.30804 8.5691 1.73953" fill="#003087"/>
<path d="M36.4244 6.3706C36.2853 7.28389 35.5879 7.28389 34.9134 7.28389H34.5296L34.7989 5.57868C34.8153 5.47567 34.9039 5.39989 35.0082 5.39989H35.1844C35.6436 5.39989 36.0773 5.3999 36.301 5.66135C36.4346 5.81783 36.4749 6.05009 36.4244 6.3706ZM36.1308 3.98763H33.5864C33.5022 3.98768 33.4207 4.01775 33.3566 4.07246C33.2925 4.12718 33.25 4.20294 33.2367 4.28616L32.2086 10.8101C32.2039 10.8404 32.2057 10.8713 32.2141 10.9007C32.2224 10.9302 32.237 10.9575 32.2569 10.9808C32.2768 11.0041 32.3015 11.0228 32.3293 11.0356C32.357 11.0484 32.3873 11.0551 32.4179 11.0552H33.7235C33.8453 11.0552 33.9489 10.9666 33.9679 10.8465L34.2599 8.99632C34.2868 8.82475 34.4351 8.6978 34.609 8.6978H35.414C37.0903 8.6978 38.0574 7.88718 38.31 6.2794C38.4239 5.57671 38.3146 5.02428 37.9856 4.6375C37.6237 4.21235 36.9824 3.98731 36.1311 3.98731" fill="#009CDE"/>
<path d="M18.2775 6.37086C18.1384 7.28416 17.4409 7.28416 16.7661 7.28416H16.3823L16.6517 5.57895C16.6681 5.47594 16.7566 5.40016 16.861 5.40016H17.0371C17.4964 5.40016 17.9301 5.40016 18.1538 5.66162C18.2876 5.8181 18.328 6.05036 18.2775 6.37086ZM17.9839 3.9879H15.4395C15.2656 3.9879 15.1174 4.11453 15.0901 4.28642L14.0617 10.8104C14.0569 10.8406 14.0587 10.8716 14.067 10.9011C14.0754 10.9305 14.09 10.9579 14.1099 10.9812C14.1298 11.0044 14.1545 11.0231 14.1823 11.036C14.2101 11.0488 14.2404 11.0554 14.271 11.0554H15.4861C15.66 11.0554 15.8079 10.9288 15.8351 10.7569L16.113 8.99692C16.1399 8.82502 16.2882 8.69839 16.462 8.69839H17.2671C18.9434 8.69839 19.9105 7.88745 20.1631 6.27966C20.277 5.57698 20.1677 5.02454 19.8387 4.63777C19.4768 4.21261 18.8355 3.98757 17.9842 3.98757L17.9839 3.9879ZM23.8911 8.71315C23.773 9.40928 23.2209 9.87675 22.5159 9.87675C22.1626 9.87675 21.8795 9.76292 21.6977 9.54771C21.5173 9.33448 21.4497 9.03038 21.5068 8.69216C21.6164 8.00194 22.178 7.5197 22.8722 7.5197C23.2183 7.5197 23.4987 7.63452 23.6844 7.85169C23.8711 8.0705 23.9446 8.37624 23.8911 8.71315ZM25.5891 6.34134H24.3707C24.3201 6.34128 24.2711 6.35933 24.2326 6.39224C24.194 6.42515 24.1686 6.47074 24.1608 6.52078L24.1076 6.8613L24.0223 6.73795C23.7586 6.35512 23.1704 6.22685 22.5832 6.22685C21.2372 6.22685 20.0873 7.24709 19.8636 8.67739C19.7471 9.39156 19.9125 10.0736 20.3173 10.5496C20.689 10.9869 21.2194 11.1689 21.8516 11.1689C22.9368 11.1689 23.5384 10.4722 23.5384 10.4722L23.484 10.8107C23.4792 10.841 23.481 10.872 23.4894 10.9015C23.4977 10.931 23.5123 10.9583 23.5323 10.9816C23.5522 11.0049 23.5769 11.0236 23.6048 11.0364C23.6326 11.0492 23.663 11.0558 23.6936 11.0558H24.7906C24.9645 11.0558 25.1128 10.9295 25.14 10.7572L25.7987 6.58672C25.8035 6.55642 25.8016 6.52545 25.7932 6.49595C25.7848 6.46645 25.7702 6.43911 25.7502 6.41582C25.7302 6.39253 25.7055 6.37384 25.6776 6.36104C25.6497 6.34824 25.6194 6.34163 25.5888 6.34167" fill="#003087"/>
<path d="M42.0376 8.71315C41.9195 9.40928 41.3674 9.87675 40.6624 9.87675C40.3091 9.87675 40.026 9.76292 39.8442 9.54771C39.6638 9.33448 39.5962 9.03038 39.6533 8.69216C39.7629 8.00194 40.3242 7.5197 41.0186 7.5197C41.3647 7.5197 41.6452 7.63452 41.8309 7.85169C42.0176 8.0705 42.091 8.37624 42.0376 8.71315ZM43.7356 6.34134H42.5172C42.4665 6.34128 42.4175 6.35933 42.379 6.39224C42.3405 6.42515 42.315 6.47074 42.3072 6.52078L42.2541 6.8613L42.1688 6.73795C41.905 6.35512 41.3168 6.22685 40.7296 6.22685C39.384 6.22685 38.2341 7.24709 38.0101 8.67739C37.8936 9.39156 38.0593 10.0736 38.4641 10.5496C38.8358 10.9869 39.3662 11.1689 39.9984 11.1689C41.0839 11.1689 41.6856 10.4722 41.6856 10.4722L41.6311 10.8107C41.6262 10.841 41.6279 10.8719 41.6362 10.9014C41.6444 10.9309 41.659 10.9583 41.6789 10.9816C41.6988 11.0049 41.7235 11.0236 41.7513 11.0364C41.7792 11.0492 41.8094 11.0558 41.8401 11.0558H42.9368C43.1106 11.0558 43.2589 10.9295 43.2865 10.7572L43.9452 6.58672C43.9499 6.55642 43.948 6.52545 43.9397 6.49595C43.9313 6.46645 43.9166 6.43911 43.8967 6.41582C43.8767 6.39253 43.8519 6.37384 43.8241 6.36104C43.7962 6.34824 43.7659 6.34163 43.7352 6.34167" fill="#009CDE"/>
<path d="M32.0771 6.3417H30.8521C30.735 6.3417 30.6258 6.39977 30.5601 6.49687L28.8707 8.98481L28.1545 6.59397C28.1327 6.52105 28.0879 6.4571 28.0269 6.41161C27.9659 6.36611 27.8918 6.34148 27.8157 6.34137H26.612C26.5783 6.34139 26.545 6.34946 26.515 6.3649C26.485 6.38034 26.4591 6.40272 26.4395 6.43018C26.4199 6.45764 26.4071 6.48938 26.4022 6.52277C26.3973 6.55616 26.4004 6.59024 26.4113 6.62219L27.7596 10.5805L26.4913 12.37C26.4689 12.4017 26.4557 12.4391 26.453 12.4778C26.4503 12.5166 26.4584 12.5554 26.4763 12.5899C26.4941 12.6244 26.5211 12.6534 26.5543 12.6736C26.5875 12.6938 26.6257 12.7046 26.6645 12.7046H27.8882C28.0036 12.7046 28.1122 12.6478 28.1785 12.5527L32.2509 6.67467C32.273 6.6429 32.286 6.60568 32.2885 6.56704C32.2909 6.52841 32.2828 6.48985 32.2648 6.45553C32.2469 6.42122 32.2199 6.39247 32.1868 6.3724C32.1537 6.35233 32.1158 6.34172 32.0771 6.3417Z" fill="#003087"/>
<path d="M45.1726 4.16724L44.128 10.8106C44.1233 10.8409 44.1252 10.8718 44.1335 10.9013C44.1419 10.9308 44.1565 10.9581 44.1764 10.9814C44.1964 11.0047 44.2211 11.0234 44.2489 11.0362C44.2767 11.049 44.307 11.0557 44.3377 11.0557H45.3878C45.5616 11.0557 45.7099 10.929 45.7371 10.7571L46.7669 4.23285C46.7717 4.20257 46.7698 4.17161 46.7615 4.1421C46.7532 4.1126 46.7385 4.08526 46.7186 4.06196C46.6987 4.03866 46.6739 4.01997 46.6461 4.00716C46.6182 3.99436 46.5879 3.98775 46.5573 3.98779H45.3822C45.3316 3.98767 45.2826 4.00566 45.2442 4.03852C45.2057 4.07138 45.1803 4.11693 45.1726 4.16691" fill="#009CDE"/>
<path d="M8.56878 1.7392C8.01962 1.11328 7.02693 0.844928 5.75705 0.844928H2.07139C1.94568 0.844861 1.82407 0.889664 1.72845 0.971272C1.63283 1.05288 1.56947 1.16593 1.54978 1.29009L0.0158148 11.0237C0.00870202 11.0689 0.0114627 11.115 0.0239069 11.159C0.0363511 11.203 0.058183 11.2438 0.0878982 11.2785C0.117613 11.3132 0.154506 11.3411 0.196033 11.3602C0.237561 11.3793 0.282737 11.3892 0.328448 11.3892H2.60381L3.17528 7.76452L3.15756 7.87803C3.17688 7.75411 3.23981 7.64117 3.33502 7.55955C3.43023 7.47794 3.55146 7.43301 3.67687 7.43286H4.75813C6.88226 7.43286 8.54548 6.57008 9.03133 4.07427C9.04576 4.00046 9.05823 3.92861 9.06905 3.85841C9.2134 2.93593 9.06807 2.30804 8.5691 1.73953" fill="#003087"/>
<path d="M3.78944 3.87039C3.80669 3.7619 3.86203 3.66311 3.94554 3.59174C4.02905 3.52038 4.13526 3.48111 4.24511 3.48099H7.13459C7.47674 3.48099 7.79594 3.5033 8.08758 3.54988C8.24703 3.57553 8.40478 3.61081 8.55997 3.65551C8.73621 3.70506 8.90675 3.77302 9.06878 3.85825C9.21378 2.93544 9.06812 2.30788 8.56916 1.73904C8.01967 1.11344 7.02731 0.845097 5.75743 0.845097H2.07144C1.94584 0.845186 1.82439 0.890059 1.72891 0.971652C1.63342 1.05325 1.57016 1.16622 1.55049 1.29026L0.0158666 11.0229C0.00870572 11.068 0.0114193 11.1142 0.0238205 11.1582C0.0362217 11.2022 0.0580157 11.243 0.0877005 11.2778C0.117385 11.3125 0.154255 11.3405 0.19577 11.3596C0.237284 11.3788 0.282456 11.3887 0.328172 11.3887H2.60387L3.17533 7.7637L3.78944 3.87039Z" fill="#003087"/>
<path d="M9.06996 3.85802C9.0587 3.9302 9.04612 4.00216 9.03223 4.07388C8.54639 6.56937 6.88317 7.43247 4.75903 7.43247H3.67745C3.55206 7.43256 3.43084 7.47748 3.33567 7.55912C3.24049 7.64075 3.17765 7.75373 3.15847 7.87764L2.60472 11.3884L2.44725 12.3844C2.44099 12.424 2.44338 12.4644 2.45425 12.5029C2.46513 12.5414 2.48422 12.5771 2.51023 12.6076C2.53624 12.638 2.56853 12.6625 2.6049 12.6792C2.64126 12.6959 2.68082 12.7046 2.72085 12.7046H4.63897C4.86598 12.7046 5.05887 12.5393 5.09463 12.3152L5.11333 12.2174L5.47484 9.92632L5.49781 9.79969C5.51499 9.69112 5.57037 9.59225 5.65396 9.52086C5.73755 9.44948 5.84387 9.41027 5.9538 9.4103H6.24084C8.09893 9.4103 9.55384 8.65578 9.97899 6.47227C10.1561 5.56028 10.0643 4.79822 9.59517 4.26317C9.44621 4.09728 9.26823 3.95999 9.06996 3.85802Z" fill="#009CDE"/>
<path d="M8.56039 3.65591C8.48625 3.63393 8.40982 3.61424 8.33109 3.59686C8.25236 3.57947 8.171 3.56405 8.08767 3.55093C7.79571 3.50336 7.47684 3.48105 7.13436 3.48105H4.24521C4.13523 3.48092 4.02884 3.52014 3.94527 3.59162C3.8617 3.6631 3.80646 3.76212 3.78954 3.87078L3.17543 7.76475L3.15771 7.87793C3.17689 7.75402 3.23974 7.64104 3.33491 7.55941C3.43008 7.47777 3.5513 7.43285 3.67669 7.43276H4.75828C6.88241 7.43276 8.54563 6.56999 9.03148 4.07417C9.04591 4.00036 9.05805 3.92885 9.0692 3.85831C8.9409 3.79118 8.80725 3.73478 8.66964 3.6897C8.63388 3.67789 8.59746 3.66673 8.56039 3.65558" fill="#012169"/>
</svg>
