<svg width="111" height="80" viewBox="0 0 111 80" fill="none" xmlns="http://www.w3.org/2000/svg">
<path d="M13.2322 47.5538C12.2767 48.0047 11.8551 49.1399 12.2809 50.1101L16.6457 59.5339C16.8601 60.0032 17.2514 60.3685 17.7325 60.5488C17.9433 60.6257 18.1668 60.6655 18.3916 60.6655C18.6729 60.6679 18.9505 60.6074 19.2062 60.4907L52.1842 44.9986L49.1972 76.4099C49.1395 77.0282 49.3764 77.6361 49.8363 78.0491C51.2821 79.2528 53.0839 79.9383 54.9586 80C55.4756 79.9994 55.9895 79.934 56.4907 79.8057C59.1679 79.1031 61.2436 76.7038 62.6597 72.6059L75.6374 33.9563L101.34 21.898C108.906 18.3476 112.805 11.1484 110.186 5.52916C108.7 2.59216 105.854 0.594251 102.601 0.202611C98.9867 -0.346051 95.2926 0.225828 92.0097 1.84249L62.3486 15.8309L30.4581 3.28563C26.442 1.76428 23.2612 1.80339 21.0305 3.4231C19.1589 4.96766 18.0939 7.2894 18.1395 9.72416C18.1589 10.3419 18.4681 10.9131 18.9736 11.2663L40.4476 26.1132L28.1496 31.9664L7.52794 26.6979C6.68293 26.4889 5.80329 26.872 5.37501 27.6345L0.23508 36.9404C-0.0316065 37.4334 -0.073523 38.0188 0.120265 38.5454C0.312838 39.0727 0.722283 39.49 1.24411 39.6916L16.5108 46.033L13.2322 47.5538ZM22.1155 8.74904C22.2297 7.92421 22.6446 7.17331 23.28 6.64176C24.3863 5.84137 26.4037 5.95868 29.0998 6.97291L57.4997 18.1136L44.5408 24.2008L22.1155 8.74904ZM4.65757 36.9214L8.03276 30.8929L27.8775 35.8479C28.3052 35.9567 28.7565 35.9158 29.1587 35.7319L93.6591 5.43201C96.2233 4.15995 99.1112 3.69682 101.942 4.10496C103.927 4.28886 105.696 5.44118 106.676 7.18736C108.304 10.6999 105.103 15.8309 99.6908 18.3671L77.3438 28.9035L78.7022 24.8637C79.0454 23.8244 78.4847 22.7014 77.4513 22.3568C76.4168 22.0122 75.3008 22.5762 74.9582 23.6155L58.9929 71.3955C58.0422 74.1083 56.8588 75.728 55.5399 76.0781C54.7229 76.2364 53.8773 76.0751 53.1732 75.6303L57.0532 34.6578C57.1546 33.5806 56.3692 32.6244 55.297 32.5224C54.226 32.4191 53.2752 33.2103 53.1732 34.2875L52.5724 40.5501L19.2834 56.1582L16.5497 50.305L22.0189 47.7303C22.723 47.4181 23.1768 46.7179 23.1768 45.945C23.1768 45.1715 22.723 44.4714 22.0189 44.1598L4.65757 36.9214Z" fill="url(#paint0_linear)"/>
<defs>
<linearGradient id="paint0_linear" x1="55.5" y1="0" x2="55.5" y2="80" gradientUnits="userSpaceOnUse">
<stop stop-color="#515669"/>
<stop offset="1" stop-color="#282D41"/>
</linearGradient>
</defs>
</svg>
