<svg width="56" height="102" viewBox="0 0 56 102" fill="none" xmlns="http://www.w3.org/2000/svg">
<path d="M53.2414 34.3842L39.2841 16.736C36.9084 13.7452 33.4721 11.7725 29.6964 11.221V2.12117C29.6964 0.954527 28.7419 0 27.5752 0C26.4086 0 25.4541 0.954527 25.4541 2.12117V11.221C21.6784 11.7513 18.2421 13.724 15.8876 16.736L1.88784 34.4054C0.678774 35.9538 0 37.8629 0 39.8356V92.8437C0.0212117 97.6375 3.92417 101.519 8.71801 101.498C8.73923 101.498 8.73922 101.498 8.76044 101.498H46.3688C51.1627 101.54 55.0868 97.6799 55.1292 92.8861C55.1292 92.8649 55.1292 92.8649 55.1292 92.8437V39.8356C55.1292 37.8629 54.4505 35.9539 53.2414 34.3842ZM27.5752 31.9024C30.9903 31.9024 33.7478 34.6599 33.7478 38.075C33.7478 41.4901 30.9903 44.2476 27.5752 44.2476C24.1601 44.2476 21.4026 41.4901 21.4026 38.075C21.4026 34.6811 24.1601 31.9024 27.5752 31.9024ZM50.9081 92.8437C50.9081 95.3254 48.8718 97.2557 46.39 97.2557H8.76044C6.27867 97.2557 4.24234 95.3254 4.24234 92.8437V39.8356C4.24234 38.8174 4.58173 37.8205 5.21808 37.0357L19.1966 19.3663C20.7663 17.3936 22.9723 16.0148 25.4541 15.527V27.8722C19.8117 29.0388 16.2057 34.5539 17.3724 40.1962C18.539 45.8385 24.0541 49.4445 29.6964 48.2779C35.3387 47.1112 38.9447 41.5962 37.7781 35.9539C36.9296 31.9024 33.769 28.7207 29.6964 27.8722V15.527C30.5661 15.6967 31.4145 15.9936 32.2206 16.3754C33.663 17.0754 34.9357 18.0936 35.9326 19.3663L49.9324 37.0144C50.5687 37.8205 50.9081 38.8174 50.9081 39.8356V92.8437Z" fill="url(#paint0_linear)"/>
<path d="M22.187 85.3333L23.2039 83.7845C23.6992 83.0301 23.9981 81.9649 23.9997 80.4944L23.9241 77.3574L23.8995 76.3333H24.9238H29.6315C29.6887 76.3333 29.7692 76.2794 29.7692 76.1733V76.16C29.7692 76.0539 29.6887 76 29.6315 76H24.7852H23.8143L23.7857 75.0295L23.6392 70.0682L23.6388 70.0534V70.0387C23.6388 68.512 24.0462 67.1753 24.9449 66.1256L24.9455 66.1249C25.8579 65.0612 27.07 64.5333 28.4925 64.5333C29.8939 64.5333 31.1204 64.9252 32.0457 65.8153L32.0472 65.8168C32.4175 66.1744 32.6932 66.6728 32.8788 67.0655C33.0751 67.4809 33.2232 67.8939 33.3074 68.1674L33.3075 68.168C33.3781 68.398 33.4686 68.5185 33.5355 68.5764C33.588 68.6219 33.6664 68.6667 33.8292 68.6667C34.1151 68.6667 34.38 68.426 34.3827 68.0879M22.187 85.3333L33.0204 65.4382C33.6707 66.0497 34.1077 66.788 34.3366 67.6765L34.3384 67.6904C34.344 67.7322 34.3513 67.789 34.3585 67.8493C34.3658 67.9103 34.3726 67.9709 34.3773 68.0217C34.3817 68.0685 34.3826 68.088 34.3827 68.088C34.3827 68.088 34.3827 68.088 34.3827 68.0879M22.187 85.3333H24.0398M22.187 85.3333H24.0398M34.3827 68.0879C34.3828 68.0862 34.3828 68.0844 34.3828 68.0827L34.3827 68.0879ZM24.0398 85.3333H34.6923C34.8437 85.3333 35 85.4646 35 85.6667C35 85.8688 34.8437 86 34.6923 86H20.3077C20.1563 86 20 85.8688 20 85.6667C20 85.4646 20.1563 85.3333 20.3077 85.3333H20.5692H20.8162L21.0348 85.2183C21.6678 84.8853 22.0654 84.2652 22.3263 83.5946L22.3272 83.5924C22.6531 82.7489 22.8123 81.7584 22.8362 80.6495L22.8364 80.6388V80.628V80.4987V80.4805L22.8357 80.4623L22.7206 77.297L22.6856 76.3333H21.7213H20.1377C20.0805 76.3333 20 76.2794 20 76.1733V76.16C20 76.0539 20.0805 76 20.1377 76H21.6206H22.6501M24.0398 85.3333L22.6501 76M22.6501 76L22.6202 74.971M22.6501 76L22.6202 74.971M22.6202 74.971L22.4768 70.0312M22.6202 74.971L22.4768 70.0312M22.4768 70.0312C22.4797 68.1263 23.0673 66.6993 24.1747 65.6406L22.4768 70.0312ZM28.7711 64C30.6588 64 32.0362 64.5139 33.02 65.4379L24.1751 65.6402C25.2949 64.5711 26.7935 64 28.7711 64Z" fill="#363B4F" stroke="#303549" stroke-width="2"/>
<defs>
<linearGradient id="paint0_linear" x1="27.5646" y1="0" x2="27.5646" y2="101.498" gradientUnits="userSpaceOnUse">
<stop stop-color="#515669"/>
<stop offset="1" stop-color="#282D41"/>
</linearGradient>
</defs>
</svg>
