<svg width="28" height="37" viewBox="0 0 28 37" fill="none" xmlns="http://www.w3.org/2000/svg">
<path d="M3.11111 0.000154177C2.90498 -0.00273497 2.70033 0.0350069 2.50904 0.111186C2.31776 0.187365 2.14366 0.300463 1.99686 0.443906C1.85007 0.587349 1.7335 0.758276 1.65394 0.946755C1.57437 1.13523 1.5334 1.33751 1.5334 1.54181C1.5334 1.74612 1.57437 1.94839 1.65394 2.13687C1.7335 2.32535 1.85007 2.49628 1.99686 2.63972C2.14366 2.78317 2.31776 2.89626 2.50904 2.97244C2.70033 3.04862 2.90498 3.08636 3.11111 3.08347H6.22222C7.47047 3.08347 8.83531 4.5661 9.33333 5.15809V6.1668C8.92079 6.16684 8.52515 6.32927 8.23344 6.61838C7.94172 6.90749 7.77782 7.29959 7.77778 7.70846V9.56327C3.40625 10.327 0 13.9562 0 18.5001V32.375C0 34.911 2.10782 37 4.66667 37H23.3333C25.8922 37 28 34.911 28 32.375V18.5001C28 13.9562 24.5938 10.327 20.2222 9.56327V7.70846C20.2222 7.29959 20.0583 6.90749 19.7666 6.61838C19.4748 6.32927 19.0792 6.16684 18.6667 6.1668V3.08347C18.6667 1.37994 17.2744 0.000154177 15.5556 0.000154177H12.4444C11.4059 0.000154177 10.4938 0.508431 9.92882 1.28286C8.97679 0.578682 7.74333 0.000154177 6.22222 0.000154177H3.11111ZM10.8889 9.25012H17.1111V10.7918C17.1112 11.2006 17.2751 11.5927 17.5668 11.8818C17.8585 12.171 18.2541 12.3334 18.6667 12.3334C21.5793 12.3334 23.9846 14.2941 24.6732 16.9584H3.32682C4.01539 14.2941 6.4207 12.3334 9.33333 12.3334C9.74588 12.3334 10.1415 12.171 10.4332 11.8818C10.7249 11.5927 10.8888 11.2006 10.8889 10.7918V9.25012Z" fill="#FAFBFF"/>
</svg>
