<svg width="98" height="98" viewBox="0 0 98 98" fill="none" xmlns="http://www.w3.org/2000/svg">
<path d="M62.0659 8.16675H39.1992V11.4334H62.0659V8.16675Z" fill="url(#paint0_linear)"/>
<path d="M53.9005 88.2H47.3672V91.4667H53.9005V88.2Z" fill="url(#paint1_linear)"/>
<path d="M37.5665 21.2334H31.0332V24.5001H37.5665V21.2334Z" fill="url(#paint2_linear)"/>
<path d="M47.3673 21.2334H40.834V24.5001H47.3673V21.2334Z" fill="url(#paint3_linear)"/>
<path d="M57.1671 27.7666H53.9004V31.0333H57.1671V27.7666Z" fill="url(#paint4_linear)"/>
<path d="M63.7002 24.5H60.4336V31.0333H63.7002V24.5Z" fill="url(#paint5_linear)"/>
<path d="M70.2335 21.2334H66.9668V31.0334H70.2335V21.2334Z" fill="url(#paint6_linear)"/>
<path d="M96.2829 37.0554C96.2737 37.034 96.2626 37.0132 96.2502 36.9934C96.2245 36.9329 96.1945 36.8745 96.1604 36.8186C96.1028 36.701 96.0303 36.5912 95.9448 36.4919C95.9003 36.4423 95.8529 36.3954 95.8027 36.3515C95.7034 36.2649 95.5938 36.1914 95.476 36.1326C95.4235 36.101 95.369 36.0732 95.3127 36.0493C95.1283 35.975 94.9317 35.9356 94.7328 35.9333H76.7662V8.16667C76.7608 3.65867 73.1075 0.00530833 68.5995 0H32.6662C28.1581 0.00530833 24.5048 3.65867 24.4995 8.16667V39.2H3.26615C2.36414 39.2 1.63281 39.9313 1.63281 40.8333C1.63281 41.7353 2.36414 42.4667 3.26615 42.4667H24.4995V45.7333H11.4328C10.5308 45.7333 9.79948 46.4647 9.79948 47.3667C9.79948 48.2687 10.5308 49 11.4328 49H24.4995V89.8333C24.5048 94.3413 28.1581 97.9947 32.6662 98H68.5995C73.1075 97.9947 76.7608 94.3413 76.7662 89.8333V75.1333H94.7328C95.6348 75.1333 96.3662 74.402 96.3662 73.5V37.5667C96.3666 37.3929 96.3384 37.2202 96.2829 37.0554ZM89.8328 39.2L68.5995 55.125L47.3662 39.2H89.8328ZM27.7661 8.16667C27.7661 5.46044 29.9599 3.26667 32.6662 3.26667H68.5995C71.3057 3.26667 73.4995 5.46044 73.4995 8.16667V14.7H27.7661V8.16667ZM73.4995 89.8333C73.4995 92.5396 71.3057 94.7333 68.5995 94.7333H32.6662C29.9599 94.7333 27.7661 92.5396 27.7661 89.8333V84.9333H73.4995V89.8333ZM73.4995 81.6667H27.7661V49H37.5662C38.4682 49 39.1995 48.2687 39.1995 47.3667C39.1995 46.4647 38.4682 45.7333 37.5662 45.7333H27.7661V42.4667H37.5662C38.4682 42.4667 39.1995 41.7353 39.1995 40.8333C39.1995 39.9313 38.4682 39.2 37.5662 39.2H27.7661V17.9667H73.4995V35.9333H42.4662C42.2679 35.9364 42.0717 35.9762 41.888 36.0509C41.8316 36.0748 41.7771 36.1026 41.7246 36.1342C41.6068 36.193 41.4972 36.2665 41.398 36.3531C41.3477 36.397 41.3004 36.444 41.2559 36.4936C41.1703 36.5928 41.0978 36.7026 41.0403 36.8202C41.0066 36.8762 40.9759 36.934 40.9488 36.9934C40.9406 37.0162 40.9243 37.0342 40.9178 37.0571C40.8626 37.2214 40.8338 37.3933 40.8328 37.5667V62.0667H32.6662C31.7641 62.0667 31.0328 62.798 31.0328 63.7C31.0328 64.602 31.7641 65.3333 32.6662 65.3333H40.8328V68.6H35.9328C35.0308 68.6 34.2995 69.3313 34.2995 70.2333C34.2995 71.1353 35.0308 71.8667 35.9328 71.8667H40.8328V73.5C40.8328 74.402 41.5641 75.1333 42.4662 75.1333H73.4995V81.6667ZM93.0995 71.8667H44.0995V40.8333L67.6195 58.4733C68.2001 58.9088 68.9988 58.9088 69.5795 58.4733L93.0995 40.8333V71.8667Z" fill="url(#paint7_linear)"/>
<defs>
<linearGradient id="paint0_linear" x1="50.6325" y1="8.16675" x2="50.6325" y2="11.4334" gradientUnits="userSpaceOnUse">
<stop stop-color="#515669"/>
<stop offset="1" stop-color="#282D41"/>
</linearGradient>
<linearGradient id="paint1_linear" x1="50.6339" y1="88.2" x2="50.6339" y2="91.4667" gradientUnits="userSpaceOnUse">
<stop stop-color="#515669"/>
<stop offset="1" stop-color="#282D41"/>
</linearGradient>
<linearGradient id="paint2_linear" x1="34.2999" y1="21.2334" x2="34.2999" y2="24.5001" gradientUnits="userSpaceOnUse">
<stop stop-color="#515669"/>
<stop offset="1" stop-color="#282D41"/>
</linearGradient>
<linearGradient id="paint3_linear" x1="44.1007" y1="21.2334" x2="44.1007" y2="24.5001" gradientUnits="userSpaceOnUse">
<stop stop-color="#515669"/>
<stop offset="1" stop-color="#282D41"/>
</linearGradient>
<linearGradient id="paint4_linear" x1="55.5337" y1="27.7666" x2="55.5337" y2="31.0333" gradientUnits="userSpaceOnUse">
<stop stop-color="#515669"/>
<stop offset="1" stop-color="#282D41"/>
</linearGradient>
<linearGradient id="paint5_linear" x1="62.0669" y1="24.5" x2="62.0669" y2="31.0333" gradientUnits="userSpaceOnUse">
<stop stop-color="#515669"/>
<stop offset="1" stop-color="#282D41"/>
</linearGradient>
<linearGradient id="paint6_linear" x1="68.6001" y1="21.2334" x2="68.6001" y2="31.0334" gradientUnits="userSpaceOnUse">
<stop stop-color="#515669"/>
<stop offset="1" stop-color="#282D41"/>
</linearGradient>
<linearGradient id="paint7_linear" x1="48.9995" y1="0" x2="48.9995" y2="98" gradientUnits="userSpaceOnUse">
<stop stop-color="#515669"/>
<stop offset="1" stop-color="#282D41"/>
</linearGradient>
</defs>
</svg>
