<svg width="34" height="34" viewBox="0 0 34 34" fill="none" xmlns="http://www.w3.org/2000/svg">
<path d="M26.0294 24.1537L22.4837 22.7521C21.6253 22.4132 20.6725 22.4848 19.8809 22.9421L16.475 24.9094C14.6951 23.3116 13.1921 21.4471 12.0108 19.398C10.8277 17.3499 9.9653 15.1153 9.47224 12.7742L12.8781 10.8068C13.6697 10.3496 14.2081 9.55979 14.3439 8.64657L14.9036 4.87359C15.1225 3.35994 14.1842 1.92542 12.7033 1.52862L10.1917 0.855628C8.55113 0.416043 6.82059 1.41567 6.48244 3.08416C5.20576 9.38774 6.38158 15.6791 9.39841 20.907C12.4152 26.1349 17.2731 30.2994 23.3677 32.345C24.9811 32.8862 26.7116 31.8866 27.1514 30.2453L27.8247 27.7326C28.2216 26.2511 27.449 24.7209 26.0294 24.1537Z" fill="#F58992"/>
</svg>
