<svg width="32" height="22" viewBox="0 0 32 22" fill="none" xmlns="http://www.w3.org/2000/svg">
<path d="M31.9051 19.6544C31.9051 20.6721 31.0801 21.4971 30.0625 21.4971H2.57623C1.55859 21.4972 0.733643 20.6721 0.733643 19.6544V1.84265C0.733643 0.824947 1.55859 0 2.57623 0H30.0625C31.0802 0 31.9051 0.825008 31.9051 1.84265V19.6544Z" fill="white"/>
<path d="M7.65265 10.8723L6.92073 7.36116C6.79561 6.87697 6.43154 6.73292 5.97663 6.71387H2.62096L2.59106 6.87429C5.20465 7.50789 6.934 9.03638 7.65265 10.8723Z" fill="#F79F1A"/>
<path d="M15.4286 6.78467H13.2604L11.9062 14.7314H14.0708L15.4286 6.78467Z" fill="#059BBF"/>
<path d="M8.97499 14.7233L12.385 6.79004H10.0903L7.96898 12.2102L7.74256 11.3918C7.32674 10.4073 6.13833 8.9903 4.74316 8.09826L6.68225 14.726L8.97499 14.7233Z" fill="#059BBF"/>
<path d="M21.6125 12.1338C21.6206 11.2316 21.0413 10.5435 19.793 9.97508C19.0343 9.60796 18.5719 9.36315 18.5775 8.99062C18.5775 8.66149 18.969 8.30795 19.8175 8.30795C20.5274 8.29705 21.0386 8.45206 21.4384 8.61254L21.6343 8.70234L21.9281 6.98079C21.4984 6.82025 20.8265 6.64893 19.9863 6.64893C17.8459 6.64893 16.3393 7.72598 16.3256 9.27074C16.312 10.4131 17.4027 11.0495 18.224 11.4301C19.067 11.8182 19.3499 12.0665 19.3444 12.4147C19.339 12.947 18.6726 13.1897 18.0498 13.1897C17.1823 13.1897 16.7226 13.0701 16.0098 12.7731L15.7328 12.6458L15.4285 14.4266C15.934 14.6475 16.8694 14.8406 17.8405 14.8487C20.1167 14.8487 21.5962 13.7853 21.6125 12.1338Z" fill="#059BBF"/>
<path d="M24.1894 13.5404C24.4369 13.5404 26.6479 13.5431 26.9635 13.5431C27.0288 13.8198 27.2273 14.7343 27.2273 14.7343H29.2371L27.4829 6.79297H25.8104C25.2909 6.79297 24.9048 6.9344 24.6763 7.45104L21.459 14.7343H23.7355C23.7353 14.7343 24.1051 13.7553 24.1894 13.5404ZM25.6743 9.69203C25.6635 9.71377 25.8539 9.23244 25.9626 8.93327L26.1094 9.61855C26.1094 9.61855 26.5229 11.517 26.6099 11.914H24.8122C24.9917 11.4572 25.6743 9.69203 25.6743 9.69203Z" fill="#059BBF"/>
<path d="M30.0637 0H2.57745C1.55981 0 0.734863 0.824947 0.734863 1.84265V3.75506H31.9063V1.84265C31.9063 0.824947 31.0814 0 30.0637 0Z" fill="#059BBF"/>
<path d="M30.0625 21.4972H2.57623C1.55859 21.4972 0.733643 20.6722 0.733643 19.6546V17.7422H31.9051V19.6546C31.9051 20.6722 31.0802 21.4972 30.0625 21.4972Z" fill="#F79F1A"/>
<path opacity="0.15" d="M2.04363 19.6544V1.84265C2.04363 0.824947 2.86864 0 3.88634 0H2.57617C1.55859 0 0.733643 0.824947 0.733643 1.84265V19.6545C0.733643 20.6722 1.55859 21.4972 2.57623 21.4972H3.8864C2.8687 21.4972 2.04363 20.6721 2.04363 19.6544Z" fill="#202121"/>
</svg>
