<svg width="32" height="32" viewBox="0 0 32 32" fill="none" xmlns="http://www.w3.org/2000/svg">
<path d="M16.6065 0.000749404C15.8245 -0.0312898 15.5077 0.972162 16.132 1.44314C17.1569 2.21688 18.184 3.14074 19.1929 4.19963C19.4455 4.46716 19.85 4.53717 20.1702 4.35295L22.7409 2.87614C23.3153 2.54614 23.2625 1.71082 22.6592 1.43688C20.7557 0.575027 18.6982 0.0856532 16.6065 0.000749404ZM9.4508 1.83111C8.87407 1.79219 8.36804 1.88773 7.95492 2.12522C6.30247 3.07518 5.88895 6.43832 6.94929 10.7764C7.07479 11.2891 7.67548 11.5351 8.13405 11.2708L15.8209 6.85288C16.281 6.58855 16.3657 5.94782 15.9811 5.58257C13.5495 3.27095 11.181 1.94788 9.4508 1.83111ZM26.8545 4.39675C26.6822 4.37713 26.5023 4.41029 26.3454 4.5L22.4643 6.73398C22.0524 6.97107 21.9393 7.49932 22.2161 7.88539C22.9594 8.91705 23.6771 10.0167 24.3593 11.1926C25.0415 12.3684 25.6386 13.5371 26.1632 14.6937C26.3595 15.1262 26.8795 15.2938 27.2914 15.0567L31.1725 12.8258C31.4862 12.6448 31.6539 12.2786 31.5622 11.931C31.2082 10.5805 30.668 9.25419 29.9343 7.98864C29.2006 6.72309 28.3156 5.59617 27.3196 4.61577C27.1909 4.48921 27.0269 4.41637 26.8545 4.39675ZM2.62821 8.12944C2.31224 8.06176 1.96152 8.17612 1.77971 8.52054C0.806252 10.366 0.20687 12.3846 0.00413429 14.4559C-0.0602264 15.1127 0.639619 15.5775 1.21404 15.2475L3.78469 13.7707C4.10488 13.5865 4.24914 13.2017 4.14294 12.8477C3.72621 11.4492 3.43649 10.1038 3.27559 8.83342C3.22651 8.44735 2.94418 8.19712 2.62821 8.12944ZM18.5361 9.05244C18.44 9.06826 18.3449 9.1017 18.2564 9.15257L8.91656 14.5216C8.56258 14.7251 8.40836 15.1559 8.57087 15.5291C9.09219 16.7306 9.70739 17.9624 10.425 19.2024C11.1442 20.4407 11.9056 21.59 12.6908 22.6409C12.9354 22.9677 13.3896 23.0509 13.7436 22.8474L23.0834 17.4784C23.4374 17.2749 23.5916 16.841 23.4291 16.4678C22.9078 15.2663 22.2926 14.0376 21.575 12.7976C20.8557 11.5593 20.0943 10.41 19.3092 9.35907C19.1269 9.11277 18.8244 9.00498 18.5361 9.05244ZM31.229 16.6398C31.0838 16.6324 30.9327 16.6669 30.7891 16.7494L28.2184 18.2262C27.8966 18.4104 27.7508 18.7951 27.857 19.1492C28.2738 20.5477 28.5635 21.8931 28.7244 23.1634C28.8225 23.9356 29.8566 24.1652 30.2203 23.4763C31.1937 21.6309 31.7931 19.6123 31.9958 17.5409C32.0441 17.0483 31.6648 16.6621 31.229 16.6398ZM5.0323 16.8338C4.92274 16.8446 4.81159 16.8809 4.70861 16.9402L0.824354 19.1711C0.510596 19.3521 0.3461 19.7214 0.437814 20.069C0.793406 21.4179 1.33197 22.7427 2.06568 24.0082C2.79939 25.2738 3.68435 26.4007 4.68033 27.3811C4.93777 27.6342 5.34078 27.6763 5.65454 27.4969L9.53565 25.2629C9.94756 25.0258 10.0607 24.4976 9.78392 24.1115C9.04055 23.0798 8.32288 21.9802 7.64066 20.8043C6.95844 19.6285 6.36135 18.4598 5.83681 17.3032C5.68958 16.9788 5.36099 16.8014 5.0323 16.8338ZM24.2273 20.6197C24.1046 20.6259 23.9806 20.66 23.8659 20.7261L16.1791 25.144C15.7189 25.4083 15.6343 26.0491 16.0188 26.4143C19.261 29.4965 22.3957 30.8216 24.0482 29.8716C25.7007 28.9217 26.1142 25.5586 25.0538 21.2204C24.9585 20.836 24.5955 20.6012 24.2273 20.6197ZM12.3451 27.5501C12.1722 27.5222 11.9899 27.5518 11.8298 27.6439L9.2591 29.1239C8.68469 29.4539 8.73743 30.2892 9.34081 30.5631C11.2443 31.425 13.3017 31.9143 15.3935 31.9993C16.1754 32.0313 16.4923 31.0247 15.868 30.5537C14.8431 29.78 13.816 28.8561 12.8071 27.7972C12.6808 27.6627 12.5181 27.5779 12.3451 27.5501Z" fill="#F6918B"/>
</svg>
