<svg width="558" height="256" viewBox="0 0 558 256" fill="none" xmlns="http://www.w3.org/2000/svg">
<rect x="1" y="138" width="178" height="118" rx="10" fill="white"/>
<path d="M26.1667 218.614C25.8067 218.206 25.3267 217.876 24.7267 217.624C24.1267 217.372 23.4427 217.246 22.6747 217.246C21.5467 217.246 20.7247 217.462 20.2087 217.894C19.6927 218.314 19.4347 218.89 19.4347 219.622C19.4347 220.006 19.5007 220.324 19.6327 220.576C19.7767 220.816 19.9927 221.026 20.2807 221.206C20.5687 221.386 20.9347 221.542 21.3787 221.674C21.8347 221.806 22.3687 221.938 22.9807 222.07C23.6647 222.214 24.2767 222.376 24.8167 222.556C25.3687 222.736 25.8367 222.964 26.2207 223.24C26.6047 223.504 26.8987 223.828 27.1027 224.212C27.3067 224.596 27.4087 225.076 27.4087 225.652C27.4087 226.24 27.2947 226.75 27.0667 227.182C26.8387 227.614 26.5207 227.974 26.1127 228.262C25.7047 228.55 25.2187 228.766 24.6547 228.91C24.0907 229.042 23.4727 229.108 22.8007 229.108C20.8207 229.108 19.1107 228.49 17.6707 227.254L18.3007 226.228C18.5287 226.468 18.7987 226.696 19.1107 226.912C19.4347 227.128 19.7887 227.32 20.1727 227.488C20.5687 227.644 20.9887 227.77 21.4327 227.866C21.8767 227.95 22.3447 227.992 22.8367 227.992C23.8567 227.992 24.6487 227.812 25.2127 227.452C25.7887 227.08 26.0767 226.522 26.0767 225.778C26.0767 225.382 25.9927 225.052 25.8247 224.788C25.6687 224.512 25.4287 224.278 25.1047 224.086C24.7807 223.882 24.3787 223.708 23.8987 223.564C23.4187 223.42 22.8607 223.276 22.2247 223.132C21.5527 222.976 20.9647 222.814 20.4607 222.646C19.9567 222.478 19.5307 222.268 19.1827 222.016C18.8347 221.764 18.5707 221.464 18.3907 221.116C18.2227 220.756 18.1387 220.318 18.1387 219.802C18.1387 219.214 18.2467 218.692 18.4627 218.236C18.6907 217.768 19.0087 217.384 19.4167 217.084C19.8247 216.772 20.3047 216.538 20.8567 216.382C21.4087 216.214 22.0207 216.13 22.6927 216.13C23.5447 216.13 24.3007 216.262 24.9607 216.526C25.6327 216.778 26.2387 217.138 26.7787 217.606L26.1667 218.614ZM33.4283 229.18C32.7443 229.18 32.1143 229.054 31.5383 228.802C30.9743 228.538 30.4823 228.184 30.0623 227.74C29.6423 227.284 29.3123 226.762 29.0723 226.174C28.8443 225.586 28.7303 224.956 28.7303 224.284C28.7303 223.624 28.8443 223.006 29.0723 222.43C29.3123 221.842 29.6363 221.332 30.0443 220.9C30.4643 220.456 30.9623 220.108 31.5383 219.856C32.1143 219.592 32.7383 219.46 33.4103 219.46C34.0943 219.46 34.7183 219.592 35.2823 219.856C35.8583 220.108 36.3503 220.456 36.7583 220.9C37.1663 221.344 37.4843 221.854 37.7123 222.43C37.9403 223.006 38.0543 223.618 38.0543 224.266C38.0543 224.362 38.0543 224.458 38.0543 224.554C38.0543 224.65 38.0483 224.716 38.0363 224.752H30.0083C30.0443 225.256 30.1583 225.724 30.3503 226.156C30.5543 226.576 30.8123 226.942 31.1243 227.254C31.4363 227.566 31.7903 227.812 32.1863 227.992C32.5943 228.16 33.0263 228.244 33.4823 228.244C33.7823 228.244 34.0823 228.202 34.3823 228.118C34.6823 228.034 34.9583 227.92 35.2103 227.776C35.4623 227.632 35.6903 227.458 35.8943 227.254C36.0983 227.038 36.2543 226.804 36.3623 226.552L37.4243 226.84C37.2803 227.188 37.0763 227.506 36.8123 227.794C36.5483 228.07 36.2423 228.316 35.8943 228.532C35.5463 228.736 35.1623 228.892 34.7423 229C34.3223 229.12 33.8843 229.18 33.4283 229.18ZM36.8843 223.816C36.8483 223.312 36.7283 222.856 36.5243 222.448C36.3323 222.028 36.0803 221.668 35.7683 221.368C35.4683 221.068 35.1143 220.834 34.7063 220.666C34.3103 220.498 33.8843 220.414 33.4283 220.414C32.9723 220.414 32.5403 220.498 32.1323 220.666C31.7243 220.834 31.3643 221.068 31.0523 221.368C30.7523 221.668 30.5063 222.028 30.3143 222.448C30.1343 222.868 30.0263 223.324 29.9903 223.816H36.8843ZM39.2948 224.284C39.2948 223.624 39.4088 223 39.6368 222.412C39.8648 221.824 40.1828 221.314 40.5908 220.882C41.0108 220.438 41.5088 220.09 42.0848 219.838C42.6608 219.586 43.2968 219.46 43.9928 219.46C44.8808 219.46 45.6548 219.664 46.3148 220.072C46.9748 220.468 47.4728 221.008 47.8088 221.692L46.6208 222.07C46.3568 221.59 45.9848 221.218 45.5048 220.954C45.0368 220.678 44.5148 220.54 43.9388 220.54C43.4588 220.54 43.0088 220.636 42.5888 220.828C42.1808 221.02 41.8208 221.284 41.5088 221.62C41.2088 221.944 40.9688 222.334 40.7888 222.79C40.6208 223.246 40.5368 223.744 40.5368 224.284C40.5368 224.812 40.6268 225.31 40.8068 225.778C40.9868 226.246 41.2328 226.654 41.5448 227.002C41.8568 227.338 42.2168 227.608 42.6248 227.812C43.0448 228.004 43.4888 228.1 43.9568 228.1C44.2568 228.1 44.5508 228.058 44.8388 227.974C45.1388 227.89 45.4148 227.776 45.6668 227.632C45.9188 227.476 46.1348 227.302 46.3148 227.11C46.4948 226.918 46.6208 226.714 46.6928 226.498L47.8988 226.858C47.7668 227.194 47.5748 227.506 47.3228 227.794C47.0708 228.07 46.7708 228.316 46.4228 228.532C46.0868 228.736 45.7088 228.892 45.2888 229C44.8808 229.12 44.4548 229.18 44.0108 229.18C43.3268 229.18 42.6968 229.054 42.1208 228.802C41.5448 228.538 41.0468 228.184 40.6268 227.74C40.2068 227.284 39.8768 226.762 39.6368 226.174C39.4088 225.586 39.2948 224.956 39.2948 224.284ZM52.7557 229.18C51.7357 229.18 50.9737 228.844 50.4697 228.172C49.9777 227.488 49.7317 226.474 49.7317 225.13V219.622H50.9557V224.914C50.9557 227.038 51.6817 228.1 53.1337 228.1C53.4937 228.1 53.8477 228.04 54.1957 227.92C54.5437 227.8 54.8617 227.626 55.1497 227.398C55.4497 227.17 55.7137 226.9 55.9417 226.588C56.1817 226.276 56.3737 225.922 56.5177 225.526V219.622H57.7417V227.416C57.7417 227.752 57.8857 227.92 58.1737 227.92V229C58.0297 229.024 57.9097 229.036 57.8137 229.036C57.7297 229.036 57.6697 229.036 57.6337 229.036C57.3457 229.024 57.1117 228.922 56.9317 228.73C56.7517 228.538 56.6617 228.28 56.6617 227.956V226.876C56.2537 227.608 55.6957 228.178 54.9877 228.586C54.2917 228.982 53.5477 229.18 52.7557 229.18ZM65.1892 220.702C64.3612 220.726 63.6412 220.954 63.0292 221.386C62.4172 221.818 61.9852 222.412 61.7332 223.168V229H60.5092V219.622H61.6612V221.872C62.0092 221.152 62.4772 220.588 63.0652 220.18C63.6532 219.772 64.2832 219.568 64.9552 219.568C65.0512 219.568 65.1292 219.574 65.1892 219.586V220.702ZM70.3951 229.18C69.7111 229.18 69.0811 229.054 68.5051 228.802C67.9411 228.538 67.4491 228.184 67.0291 227.74C66.6091 227.284 66.2791 226.762 66.0391 226.174C65.8111 225.586 65.6971 224.956 65.6971 224.284C65.6971 223.624 65.8111 223.006 66.0391 222.43C66.2791 221.842 66.6031 221.332 67.0111 220.9C67.4311 220.456 67.9291 220.108 68.5051 219.856C69.0811 219.592 69.7051 219.46 70.3771 219.46C71.0611 219.46 71.6851 219.592 72.2491 219.856C72.8251 220.108 73.3171 220.456 73.7251 220.9C74.1331 221.344 74.4511 221.854 74.6791 222.43C74.9071 223.006 75.0211 223.618 75.0211 224.266C75.0211 224.362 75.0211 224.458 75.0211 224.554C75.0211 224.65 75.0151 224.716 75.0031 224.752H66.9751C67.0111 225.256 67.1251 225.724 67.3171 226.156C67.5211 226.576 67.7791 226.942 68.0911 227.254C68.4031 227.566 68.7571 227.812 69.1531 227.992C69.5611 228.16 69.9931 228.244 70.4491 228.244C70.7491 228.244 71.0491 228.202 71.3491 228.118C71.6491 228.034 71.9251 227.92 72.1771 227.776C72.4291 227.632 72.6571 227.458 72.8611 227.254C73.0651 227.038 73.2211 226.804 73.3291 226.552L74.3911 226.84C74.2471 227.188 74.0431 227.506 73.7791 227.794C73.5151 228.07 73.2091 228.316 72.8611 228.532C72.5131 228.736 72.1291 228.892 71.7091 229C71.2891 229.12 70.8511 229.18 70.3951 229.18ZM73.8511 223.816C73.8151 223.312 73.6951 222.856 73.4911 222.448C73.2991 222.028 73.0471 221.668 72.7351 221.368C72.4351 221.068 72.0811 220.834 71.6731 220.666C71.2771 220.498 70.8511 220.414 70.3951 220.414C69.9391 220.414 69.5071 220.498 69.0991 220.666C68.6911 220.834 68.3311 221.068 68.0191 221.368C67.7191 221.668 67.4731 222.028 67.2811 222.448C67.1011 222.868 66.9931 223.324 66.9571 223.816H73.8511ZM81.7495 229V216.22H87.0415C87.5935 216.22 88.0975 216.34 88.5535 216.58C89.0215 216.808 89.4235 217.114 89.7595 217.498C90.0955 217.87 90.3595 218.296 90.5515 218.776C90.7435 219.256 90.8395 219.742 90.8395 220.234C90.8395 220.762 90.7495 221.272 90.5695 221.764C90.3895 222.244 90.1375 222.67 89.8135 223.042C89.4895 223.414 89.0995 223.714 88.6435 223.942C88.1995 224.17 87.7015 224.284 87.1495 224.284H83.0095V229H81.7495ZM83.0095 223.168H87.0955C87.4675 223.168 87.8035 223.09 88.1035 222.934C88.4155 222.766 88.6795 222.55 88.8955 222.286C89.1115 222.01 89.2795 221.698 89.3995 221.35C89.5195 220.99 89.5795 220.618 89.5795 220.234C89.5795 219.838 89.5075 219.466 89.3635 219.118C89.2315 218.758 89.0455 218.446 88.8055 218.182C88.5775 217.918 88.3015 217.714 87.9775 217.57C87.6655 217.414 87.3355 217.336 86.9875 217.336H83.0095V223.168ZM94.9648 229.18C94.5208 229.18 94.1068 229.108 93.7228 228.964C93.3508 228.808 93.0208 228.598 92.7328 228.334C92.4568 228.07 92.2408 227.764 92.0848 227.416C91.9288 227.056 91.8508 226.672 91.8508 226.264C91.8508 225.856 91.9468 225.478 92.1388 225.13C92.3308 224.782 92.6008 224.482 92.9488 224.23C93.2968 223.978 93.7108 223.786 94.1908 223.654C94.6708 223.51 95.1988 223.438 95.7748 223.438C96.2548 223.438 96.7408 223.48 97.2328 223.564C97.7248 223.648 98.1628 223.768 98.5468 223.924V223.078C98.5468 222.25 98.3128 221.596 97.8448 221.116C97.3768 220.624 96.7288 220.378 95.9008 220.378C95.4208 220.378 94.9288 220.474 94.4248 220.666C93.9208 220.858 93.4108 221.134 92.8948 221.494L92.4628 220.684C93.6748 219.868 94.8508 219.46 95.9908 219.46C97.1668 219.46 98.0908 219.79 98.7628 220.45C99.4348 221.11 99.7708 222.022 99.7708 223.186V227.416C99.7708 227.752 99.9208 227.92 100.221 227.92V229C100.017 229.036 99.8608 229.054 99.7528 229.054C99.4408 229.054 99.1948 228.976 99.0148 228.82C98.8468 228.664 98.7568 228.448 98.7448 228.172L98.7088 227.434C98.2768 227.998 97.7308 228.43 97.0708 228.73C96.4228 229.03 95.7208 229.18 94.9648 229.18ZM95.2528 228.244C95.8888 228.244 96.4708 228.124 96.9988 227.884C97.5388 227.644 97.9468 227.326 98.2228 226.93C98.3308 226.822 98.4088 226.708 98.4568 226.588C98.5168 226.456 98.5468 226.336 98.5468 226.228V224.698C98.1388 224.542 97.7128 224.422 97.2688 224.338C96.8368 224.254 96.3928 224.212 95.9368 224.212C95.0728 224.212 94.3708 224.392 93.8308 224.752C93.2908 225.112 93.0208 225.586 93.0208 226.174C93.0208 226.462 93.0748 226.732 93.1828 226.984C93.3028 227.236 93.4588 227.458 93.6508 227.65C93.8548 227.83 94.0948 227.974 94.3708 228.082C94.6468 228.19 94.9408 228.244 95.2528 228.244ZM102.727 231.88C102.823 231.892 102.913 231.898 102.997 231.898C103.093 231.91 103.183 231.916 103.267 231.916C103.483 231.916 103.651 231.886 103.771 231.826C103.903 231.766 104.029 231.634 104.149 231.43C104.269 231.226 104.401 230.932 104.545 230.548C104.701 230.164 104.917 229.648 105.193 229L101.107 219.622H102.367L105.841 227.866L109.063 219.622H110.233L105.373 231.718C105.241 232.066 105.019 232.366 104.707 232.618C104.407 232.882 103.993 233.014 103.465 233.014C103.345 233.014 103.231 233.008 103.123 232.996C103.015 232.996 102.883 232.984 102.727 232.96V231.88ZM125.893 229H124.669V223.762C124.669 222.67 124.495 221.866 124.147 221.35C123.799 220.834 123.283 220.576 122.599 220.576C122.239 220.576 121.897 220.642 121.573 220.774C121.261 220.906 120.967 221.092 120.691 221.332C120.427 221.572 120.193 221.86 119.989 222.196C119.785 222.52 119.629 222.88 119.521 223.276V229H118.297V223.762C118.297 222.646 118.129 221.836 117.793 221.332C117.457 220.828 116.941 220.576 116.245 220.576C115.537 220.576 114.907 220.822 114.355 221.314C113.803 221.806 113.407 222.454 113.167 223.258V229H111.943V219.622H113.059V221.746C113.443 221.026 113.947 220.468 114.571 220.072C115.195 219.664 115.885 219.46 116.641 219.46C117.433 219.46 118.063 219.682 118.531 220.126C119.011 220.57 119.305 221.152 119.413 221.872C120.289 220.264 121.495 219.46 123.031 219.46C123.559 219.46 124.003 219.556 124.363 219.748C124.735 219.94 125.029 220.216 125.245 220.576C125.473 220.924 125.635 221.35 125.731 221.854C125.839 222.346 125.893 222.898 125.893 223.51V229ZM132.534 229.18C131.85 229.18 131.22 229.054 130.644 228.802C130.08 228.538 129.588 228.184 129.168 227.74C128.748 227.284 128.418 226.762 128.178 226.174C127.95 225.586 127.836 224.956 127.836 224.284C127.836 223.624 127.95 223.006 128.178 222.43C128.418 221.842 128.742 221.332 129.15 220.9C129.57 220.456 130.068 220.108 130.644 219.856C131.22 219.592 131.844 219.46 132.516 219.46C133.2 219.46 133.824 219.592 134.388 219.856C134.964 220.108 135.456 220.456 135.864 220.9C136.272 221.344 136.59 221.854 136.818 222.43C137.046 223.006 137.16 223.618 137.16 224.266C137.16 224.362 137.16 224.458 137.16 224.554C137.16 224.65 137.154 224.716 137.142 224.752H129.114C129.15 225.256 129.264 225.724 129.456 226.156C129.66 226.576 129.918 226.942 130.23 227.254C130.542 227.566 130.896 227.812 131.292 227.992C131.7 228.16 132.132 228.244 132.588 228.244C132.888 228.244 133.188 228.202 133.488 228.118C133.788 228.034 134.064 227.92 134.316 227.776C134.568 227.632 134.796 227.458 135 227.254C135.204 227.038 135.36 226.804 135.468 226.552L136.53 226.84C136.386 227.188 136.182 227.506 135.918 227.794C135.654 228.07 135.348 228.316 135 228.532C134.652 228.736 134.268 228.892 133.848 229C133.428 229.12 132.99 229.18 132.534 229.18ZM135.99 223.816C135.954 223.312 135.834 222.856 135.63 222.448C135.438 222.028 135.186 221.668 134.874 221.368C134.574 221.068 134.22 220.834 133.812 220.666C133.416 220.498 132.99 220.414 132.534 220.414C132.078 220.414 131.646 220.498 131.238 220.666C130.83 220.834 130.47 221.068 130.158 221.368C129.858 221.668 129.612 222.028 129.42 222.448C129.24 222.868 129.132 223.324 129.096 223.816H135.99ZM146.932 229H145.708V223.762C145.708 222.646 145.54 221.836 145.204 221.332C144.88 220.828 144.376 220.576 143.692 220.576C143.332 220.576 142.972 220.642 142.612 220.774C142.252 220.906 141.916 221.092 141.604 221.332C141.304 221.572 141.034 221.86 140.794 222.196C140.554 222.52 140.38 222.874 140.272 223.258V229H139.048V219.622H140.164V221.746C140.548 221.062 141.094 220.51 141.802 220.09C142.522 219.67 143.302 219.46 144.142 219.46C144.658 219.46 145.096 219.556 145.456 219.748C145.816 219.94 146.104 220.21 146.32 220.558C146.536 220.906 146.692 221.332 146.788 221.836C146.884 222.34 146.932 222.898 146.932 223.51V229ZM153.954 228.55C153.882 228.586 153.774 228.634 153.63 228.694C153.498 228.754 153.342 228.814 153.162 228.874C152.982 228.934 152.778 228.988 152.55 229.036C152.322 229.084 152.082 229.108 151.83 229.108C151.566 229.108 151.314 229.072 151.074 229C150.834 228.928 150.624 228.82 150.444 228.676C150.264 228.52 150.12 228.328 150.012 228.1C149.904 227.872 149.85 227.608 149.85 227.308V220.594H148.554V219.622H149.85V216.454H151.074V219.622H153.234V220.594H151.074V226.966C151.098 227.314 151.218 227.572 151.434 227.74C151.662 227.896 151.92 227.974 152.208 227.974C152.556 227.974 152.862 227.92 153.126 227.812C153.39 227.692 153.558 227.608 153.63 227.56L153.954 228.55ZM158.598 229.18C157.866 229.18 157.152 229.06 156.456 228.82C155.76 228.58 155.16 228.232 154.656 227.776L155.214 226.948C155.742 227.38 156.276 227.704 156.816 227.92C157.368 228.136 157.956 228.244 158.58 228.244C159.336 228.244 159.936 228.094 160.38 227.794C160.836 227.482 161.064 227.044 161.064 226.48C161.064 226.216 161.004 226 160.884 225.832C160.764 225.652 160.584 225.496 160.344 225.364C160.116 225.232 159.822 225.118 159.462 225.022C159.114 224.914 158.706 224.806 158.238 224.698C157.698 224.566 157.23 224.434 156.834 224.302C156.438 224.17 156.108 224.02 155.844 223.852C155.592 223.684 155.4 223.48 155.268 223.24C155.148 222.988 155.088 222.676 155.088 222.304C155.088 221.836 155.178 221.422 155.358 221.062C155.55 220.702 155.802 220.408 156.114 220.18C156.438 219.94 156.81 219.76 157.23 219.64C157.662 219.52 158.118 219.46 158.598 219.46C159.318 219.46 159.972 219.58 160.56 219.82C161.148 220.048 161.622 220.354 161.982 220.738L161.388 221.458C161.04 221.098 160.614 220.828 160.11 220.648C159.618 220.468 159.102 220.378 158.562 220.378C158.238 220.378 157.938 220.414 157.662 220.486C157.386 220.546 157.14 220.648 156.924 220.792C156.72 220.936 156.558 221.122 156.438 221.35C156.318 221.566 156.258 221.824 156.258 222.124C156.258 222.376 156.3 222.58 156.384 222.736C156.468 222.892 156.606 223.03 156.798 223.15C156.99 223.258 157.23 223.36 157.518 223.456C157.818 223.54 158.178 223.63 158.598 223.726C159.198 223.87 159.726 224.014 160.182 224.158C160.638 224.302 161.016 224.47 161.316 224.662C161.628 224.854 161.862 225.088 162.018 225.364C162.174 225.64 162.252 225.976 162.252 226.372C162.252 227.236 161.922 227.92 161.262 228.424C160.602 228.928 159.714 229.18 158.598 229.18Z" fill="#413F60"/>
<g clip-path="url(#clip0)">
<path d="M107.176 163.097V188.578H86.5876V159.167H103.245C105.413 159.167 107.176 160.929 107.176 163.097Z" fill="#B40042"/>
<path d="M86.5882 159.167V188.578H69.9304C67.7627 188.578 66 186.816 66 184.648V163.097C66 160.929 67.7627 159.167 69.9304 159.167H86.5882Z" fill="#FF415B"/>
<path d="M78.4858 167.99H74.5945C73.0995 167.99 71.8833 169.206 71.8833 170.701V174.102C71.8833 175.597 73.0995 176.814 74.5945 176.814H78.4858C79.9808 176.814 81.197 175.597 81.197 174.102V170.701C81.197 169.206 79.9808 167.99 78.4858 167.99Z" fill="#FFDD55"/>
<path d="M71.8833 179.755H77.7657V182.696H71.8833V179.755Z" fill="#FF8859"/>
<path d="M80.7063 179.755H86.5887V182.696H80.7063V179.755Z" fill="#FF8859"/>
<path d="M89.5293 179.755H95.4117V182.696H89.5293V179.755Z" fill="#FF415B"/>
<path d="M113.059 178.144V181.225H110.117V178.144C110.117 175.441 107.918 173.242 105.215 173.242L104.594 171.912L105.215 170.301C109.54 170.301 113.059 173.819 113.059 178.144Z" fill="#B4D2D7"/>
<path d="M105.215 170.301V173.242C102.512 173.242 100.313 175.441 100.313 178.144V181.225H97.3716V178.144C97.3716 173.819 100.89 170.301 105.215 170.301Z" fill="#E1EBF0"/>
<path d="M116 179.755V190.049C116 195.995 111.162 200.833 105.216 200.833V179.755H116Z" fill="#FFDA44"/>
<path d="M105.216 179.755V200.833C99.2701 200.833 94.4319 195.995 94.4319 190.049V179.755H105.216Z" fill="#FFF68E"/>
<path d="M110.12 188.201L105.215 192.615L104.594 190.599L105.215 188.659L108.154 186.014L110.12 188.201Z" fill="#FF9F22"/>
<path d="M105.216 188.659V192.616L104.183 193.546L100.254 189.618L102.335 187.538L104.289 189.493L105.216 188.659Z" fill="#FFDA44"/>
</g>
<rect x="194" y="138" width="173" height="118" rx="10" fill="white"/>
<g clip-path="url(#clip1)">
<path d="M294.175 160.428V192.572C294.175 194.462 292.637 196 290.747 196H268.428C266.539 196 265.001 194.462 265.001 192.572V160.428C265.001 158.538 266.539 157 268.428 157H290.747C292.637 157 294.175 158.538 294.175 160.428Z" fill="#EEF4FF"/>
<path d="M294.175 160.428V192.572C294.175 194.462 292.637 196 290.747 196H279.626V157H290.747C292.637 157 294.175 158.538 294.175 160.428Z" fill="#D9E6FC"/>
<path d="M289.3 165.531C289.3 166.162 288.788 166.674 288.157 166.674H271.094C270.464 166.674 269.952 166.162 269.952 165.531C269.952 164.901 270.464 164.389 271.094 164.389H288.157C288.788 164.389 289.3 164.901 289.3 165.531Z" fill="#425796"/>
<path d="M289.3 165.531C289.3 166.162 288.788 166.674 288.157 166.674H279.55V164.389H288.157C288.788 164.389 289.3 164.901 289.3 165.531Z" fill="#283758"/>
<path d="M285.643 171.625C285.643 172.256 285.131 172.768 284.501 172.768H271.094C270.464 172.768 269.952 172.256 269.952 171.625C269.952 170.994 270.464 170.482 271.094 170.482H284.501C285.131 170.482 285.643 170.994 285.643 171.625Z" fill="#425796"/>
<path d="M285.643 171.625C285.643 172.256 285.131 172.768 284.501 172.768H279.55V170.482H284.501C285.131 170.482 285.643 170.994 285.643 171.625Z" fill="#283758"/>
<path d="M281.987 177.719C281.987 178.349 281.475 178.861 280.844 178.861H271.094C270.464 178.861 269.952 178.349 269.952 177.719C269.952 177.088 270.464 176.576 271.094 176.576H280.844C281.475 176.576 281.987 177.088 281.987 177.719Z" fill="#425796"/>
<path d="M281.987 177.719C281.987 178.349 281.475 178.861 280.844 178.861H279.55V176.576H280.844C281.475 176.576 281.987 177.088 281.987 177.719Z" fill="#283758"/>
<path d="M303.686 174.008C303.543 174.249 303.067 174.738 299.877 177.886C298.028 179.711 295.268 182.429 291.133 186.511C290.935 186.708 291.384 186.467 284.35 189.749C283.379 190.204 282.384 189.189 282.831 188.23C286.119 181.187 285.872 181.644 286.076 181.443C290.196 177.322 292.934 174.583 294.754 172.763C298.29 169.225 298.36 169.158 298.368 169.167C299.285 168.427 300.602 168.5 301.426 169.324C303.49 171.388 303.39 171.281 303.49 171.405C304.075 172.118 304.182 173.161 303.686 174.008V174.008Z" fill="#FFE278"/>
<path d="M303.684 174.008C303.459 174.388 302.4 175.388 291.131 186.51C290.933 186.708 291.382 186.467 284.348 189.749C284.194 189.822 284.028 189.857 283.865 189.857C283.549 189.857 283.274 189.733 283.073 189.537L302.355 170.255C303.457 171.355 303.406 171.303 303.488 171.405C304.073 172.118 304.18 173.161 303.684 174.008Z" fill="#FFB454"/>
<path d="M303.686 174.008C303.544 174.249 303.068 174.738 299.878 177.886L299.872 177.881L297.302 175.311L294.754 172.765V172.763C298.291 169.225 298.36 169.158 298.369 169.167C299.285 168.427 300.602 168.5 301.426 169.324C301.805 169.702 302.11 170.008 302.358 170.255C303.461 171.357 303.409 171.304 303.491 171.405C304.076 172.118 304.183 173.161 303.686 174.008V174.008Z" fill="#DD5958"/>
<path d="M303.684 174.008C303.542 174.249 303.066 174.738 299.875 177.886L299.869 177.881L297.299 175.311L302.356 170.255C303.459 171.357 303.407 171.304 303.488 171.405C304.073 172.118 304.181 173.161 303.684 174.008Z" fill="#D8225B"/>
</g>
<path d="M233.811 216.22H234.873L240.183 229H238.851L237.195 225.004H231.453L229.815 229H228.465L233.811 216.22ZM236.907 224.014L234.333 217.696L231.723 224.014H236.907ZM255.713 229H254.489V223.762C254.489 222.67 254.315 221.866 253.967 221.35C253.619 220.834 253.103 220.576 252.419 220.576C252.059 220.576 251.717 220.642 251.393 220.774C251.081 220.906 250.787 221.092 250.511 221.332C250.247 221.572 250.013 221.86 249.809 222.196C249.605 222.52 249.449 222.88 249.341 223.276V229H248.117V223.762C248.117 222.646 247.949 221.836 247.613 221.332C247.277 220.828 246.761 220.576 246.065 220.576C245.357 220.576 244.727 220.822 244.175 221.314C243.623 221.806 243.227 222.454 242.987 223.258V229H241.763V219.622H242.879V221.746C243.263 221.026 243.767 220.468 244.391 220.072C245.015 219.664 245.705 219.46 246.461 219.46C247.253 219.46 247.883 219.682 248.351 220.126C248.831 220.57 249.125 221.152 249.233 221.872C250.109 220.264 251.315 219.46 252.851 219.46C253.379 219.46 253.823 219.556 254.183 219.748C254.555 219.94 254.849 220.216 255.065 220.576C255.293 220.924 255.455 221.35 255.551 221.854C255.659 222.346 255.713 222.898 255.713 223.51V229ZM262.354 229.18C261.67 229.18 261.04 229.054 260.464 228.802C259.9 228.538 259.408 228.184 258.988 227.74C258.568 227.284 258.238 226.762 257.998 226.174C257.77 225.586 257.656 224.956 257.656 224.284C257.656 223.624 257.77 223.006 257.998 222.43C258.238 221.842 258.562 221.332 258.97 220.9C259.39 220.456 259.888 220.108 260.464 219.856C261.04 219.592 261.664 219.46 262.336 219.46C263.02 219.46 263.644 219.592 264.208 219.856C264.784 220.108 265.276 220.456 265.684 220.9C266.092 221.344 266.41 221.854 266.638 222.43C266.866 223.006 266.98 223.618 266.98 224.266C266.98 224.362 266.98 224.458 266.98 224.554C266.98 224.65 266.974 224.716 266.962 224.752H258.934C258.97 225.256 259.084 225.724 259.276 226.156C259.48 226.576 259.738 226.942 260.05 227.254C260.362 227.566 260.716 227.812 261.112 227.992C261.52 228.16 261.952 228.244 262.408 228.244C262.708 228.244 263.008 228.202 263.308 228.118C263.608 228.034 263.884 227.92 264.136 227.776C264.388 227.632 264.616 227.458 264.82 227.254C265.024 227.038 265.18 226.804 265.288 226.552L266.35 226.84C266.206 227.188 266.002 227.506 265.738 227.794C265.474 228.07 265.168 228.316 264.82 228.532C264.472 228.736 264.088 228.892 263.668 229C263.248 229.12 262.81 229.18 262.354 229.18ZM265.81 223.816C265.774 223.312 265.654 222.856 265.45 222.448C265.258 222.028 265.006 221.668 264.694 221.368C264.394 221.068 264.04 220.834 263.632 220.666C263.236 220.498 262.81 220.414 262.354 220.414C261.898 220.414 261.466 220.498 261.058 220.666C260.65 220.834 260.29 221.068 259.978 221.368C259.678 221.668 259.432 222.028 259.24 222.448C259.06 222.868 258.952 223.324 258.916 223.816H265.81ZM276.753 229H275.529V223.762C275.529 222.646 275.361 221.836 275.025 221.332C274.701 220.828 274.197 220.576 273.513 220.576C273.153 220.576 272.793 220.642 272.433 220.774C272.073 220.906 271.737 221.092 271.425 221.332C271.125 221.572 270.855 221.86 270.615 222.196C270.375 222.52 270.201 222.874 270.093 223.258V229H268.869V219.622H269.985V221.746C270.369 221.062 270.915 220.51 271.623 220.09C272.343 219.67 273.123 219.46 273.963 219.46C274.479 219.46 274.917 219.556 275.277 219.748C275.637 219.94 275.925 220.21 276.141 220.558C276.357 220.906 276.513 221.332 276.609 221.836C276.705 222.34 276.753 222.898 276.753 223.51V229ZM283.215 229.18C282.567 229.18 281.967 229.048 281.415 228.784C280.863 228.508 280.389 228.148 279.993 227.704C279.597 227.26 279.285 226.75 279.057 226.174C278.841 225.586 278.733 224.974 278.733 224.338C278.733 223.678 278.841 223.054 279.057 222.466C279.273 221.866 279.567 221.344 279.939 220.9C280.323 220.456 280.773 220.108 281.289 219.856C281.817 219.592 282.393 219.46 283.017 219.46C283.809 219.46 284.511 219.67 285.123 220.09C285.735 220.498 286.215 220.996 286.563 221.584V215.86H287.787V227.416C287.787 227.752 287.931 227.92 288.219 227.92V229C288.039 229.036 287.895 229.054 287.787 229.054C287.499 229.054 287.247 228.964 287.031 228.784C286.815 228.592 286.707 228.364 286.707 228.1V227.182C286.335 227.794 285.831 228.28 285.195 228.64C284.559 229 283.899 229.18 283.215 229.18ZM283.485 228.1C283.785 228.1 284.103 228.04 284.439 227.92C284.787 227.8 285.111 227.638 285.411 227.434C285.711 227.218 285.963 226.972 286.167 226.696C286.383 226.408 286.515 226.102 286.563 225.778V222.88C286.443 222.556 286.269 222.256 286.041 221.98C285.813 221.692 285.549 221.44 285.249 221.224C284.961 221.008 284.649 220.84 284.313 220.72C283.977 220.6 283.647 220.54 283.323 220.54C282.819 220.54 282.363 220.648 281.955 220.864C281.547 221.08 281.193 221.368 280.893 221.728C280.605 222.076 280.383 222.478 280.227 222.934C280.071 223.39 279.993 223.858 279.993 224.338C279.993 224.842 280.083 225.322 280.263 225.778C280.443 226.234 280.689 226.636 281.001 226.984C281.313 227.32 281.679 227.59 282.099 227.794C282.531 227.998 282.993 228.1 283.485 228.1ZM304.51 229H303.286V223.762C303.286 222.67 303.112 221.866 302.764 221.35C302.416 220.834 301.9 220.576 301.216 220.576C300.856 220.576 300.514 220.642 300.19 220.774C299.878 220.906 299.584 221.092 299.308 221.332C299.044 221.572 298.81 221.86 298.606 222.196C298.402 222.52 298.246 222.88 298.138 223.276V229H296.914V223.762C296.914 222.646 296.746 221.836 296.41 221.332C296.074 220.828 295.558 220.576 294.862 220.576C294.154 220.576 293.524 220.822 292.972 221.314C292.42 221.806 292.024 222.454 291.784 223.258V229H290.56V219.622H291.676V221.746C292.06 221.026 292.564 220.468 293.188 220.072C293.812 219.664 294.502 219.46 295.258 219.46C296.05 219.46 296.68 219.682 297.148 220.126C297.628 220.57 297.922 221.152 298.03 221.872C298.906 220.264 300.112 219.46 301.648 219.46C302.176 219.46 302.62 219.556 302.98 219.748C303.352 219.94 303.646 220.216 303.862 220.576C304.09 220.924 304.252 221.35 304.348 221.854C304.456 222.346 304.51 222.898 304.51 223.51V229ZM311.151 229.18C310.467 229.18 309.837 229.054 309.261 228.802C308.697 228.538 308.205 228.184 307.785 227.74C307.365 227.284 307.035 226.762 306.795 226.174C306.567 225.586 306.453 224.956 306.453 224.284C306.453 223.624 306.567 223.006 306.795 222.43C307.035 221.842 307.359 221.332 307.767 220.9C308.187 220.456 308.685 220.108 309.261 219.856C309.837 219.592 310.461 219.46 311.133 219.46C311.817 219.46 312.441 219.592 313.005 219.856C313.581 220.108 314.073 220.456 314.481 220.9C314.889 221.344 315.207 221.854 315.435 222.43C315.663 223.006 315.777 223.618 315.777 224.266C315.777 224.362 315.777 224.458 315.777 224.554C315.777 224.65 315.771 224.716 315.759 224.752H307.731C307.767 225.256 307.881 225.724 308.073 226.156C308.277 226.576 308.535 226.942 308.847 227.254C309.159 227.566 309.513 227.812 309.909 227.992C310.317 228.16 310.749 228.244 311.205 228.244C311.505 228.244 311.805 228.202 312.105 228.118C312.405 228.034 312.681 227.92 312.933 227.776C313.185 227.632 313.413 227.458 313.617 227.254C313.821 227.038 313.977 226.804 314.085 226.552L315.147 226.84C315.003 227.188 314.799 227.506 314.535 227.794C314.271 228.07 313.965 228.316 313.617 228.532C313.269 228.736 312.885 228.892 312.465 229C312.045 229.12 311.607 229.18 311.151 229.18ZM314.607 223.816C314.571 223.312 314.451 222.856 314.247 222.448C314.055 222.028 313.803 221.668 313.491 221.368C313.191 221.068 312.837 220.834 312.429 220.666C312.033 220.498 311.607 220.414 311.151 220.414C310.695 220.414 310.263 220.498 309.855 220.666C309.447 220.834 309.087 221.068 308.775 221.368C308.475 221.668 308.229 222.028 308.037 222.448C307.857 222.868 307.749 223.324 307.713 223.816H314.607ZM325.549 229H324.325V223.762C324.325 222.646 324.157 221.836 323.821 221.332C323.497 220.828 322.993 220.576 322.309 220.576C321.949 220.576 321.589 220.642 321.229 220.774C320.869 220.906 320.533 221.092 320.221 221.332C319.921 221.572 319.651 221.86 319.411 222.196C319.171 222.52 318.997 222.874 318.889 223.258V229H317.665V219.622H318.781V221.746C319.165 221.062 319.711 220.51 320.419 220.09C321.139 219.67 321.919 219.46 322.759 219.46C323.275 219.46 323.713 219.556 324.073 219.748C324.433 219.94 324.721 220.21 324.937 220.558C325.153 220.906 325.309 221.332 325.405 221.836C325.501 222.34 325.549 222.898 325.549 223.51V229ZM332.572 228.55C332.5 228.586 332.392 228.634 332.248 228.694C332.116 228.754 331.96 228.814 331.78 228.874C331.6 228.934 331.396 228.988 331.168 229.036C330.94 229.084 330.7 229.108 330.448 229.108C330.184 229.108 329.932 229.072 329.692 229C329.452 228.928 329.242 228.82 329.062 228.676C328.882 228.52 328.738 228.328 328.63 228.1C328.522 227.872 328.468 227.608 328.468 227.308V220.594H327.172V219.622H328.468V216.454H329.692V219.622H331.852V220.594H329.692V226.966C329.716 227.314 329.836 227.572 330.052 227.74C330.28 227.896 330.538 227.974 330.826 227.974C331.174 227.974 331.48 227.92 331.744 227.812C332.008 227.692 332.176 227.608 332.248 227.56L332.572 228.55Z" fill="#413F60"/>
<rect width="176.106" height="118" rx="10" fill="white"/>
<path d="M108.859 19.3125H69.1094C68.1947 19.3125 67.4531 20.054 67.4531 20.9688V57.4062C67.4531 58.321 68.1947 59.0625 69.1094 59.0625H108.859C109.774 59.0625 110.516 58.321 110.516 57.4062V20.9688C110.516 20.054 109.774 19.3125 108.859 19.3125Z" fill="#C3C6C7"/>
<path d="M108.859 19.3125H69.1094C68.6701 19.3125 68.2488 19.487 67.9382 19.7976C67.6276 20.1082 67.4531 20.5295 67.4531 20.9688V25.9375H110.516V20.9688C110.516 20.5295 110.341 20.1082 110.031 19.7976C109.72 19.487 109.299 19.3125 108.859 19.3125Z" fill="#EB423F"/>
<path d="M79.0469 17.6562C79.0469 16.7415 78.3053 16 77.3906 16C76.4759 16 75.7344 16.7415 75.7344 17.6562V20.9688C75.7344 21.8835 76.4759 22.625 77.3906 22.625C78.3053 22.625 79.0469 21.8835 79.0469 20.9688V17.6562Z" fill="#C3C6C7"/>
<path d="M102.234 17.6562C102.234 16.7415 101.493 16 100.578 16C99.6634 16 98.9219 16.7415 98.9219 17.6562V20.9688C98.9219 21.8835 99.6634 22.625 100.578 22.625C101.493 22.625 102.234 21.8835 102.234 20.9688V17.6562Z" fill="#C3C6C7"/>
<path d="M103.891 55.75H67.4531V25.9375H110.516V49.125L103.891 55.75Z" fill="#E9EEF2"/>
<path d="M67.4531 56.5781C68.0317 57.3495 68.7818 57.9756 69.6443 58.4068C70.5067 58.838 71.4577 59.0625 72.4219 59.0625C73.3861 59.0625 74.3371 58.838 75.1995 58.4068C76.0619 57.9756 76.8121 57.3495 77.3906 56.5781C76.8121 55.8068 76.0619 55.1807 75.1995 54.7495C74.3371 54.3182 73.3861 54.0938 72.4219 54.0938C71.4577 54.0938 70.5067 54.3182 69.6443 54.7495C68.7818 55.1807 68.0317 55.8068 67.4531 56.5781V56.5781Z" fill="#D95A88"/>
<path d="M103.891 29.25H107.203V32.5625H103.891V29.25Z" fill="#C3C6C7"/>
<path d="M97.2656 29.25H100.578V32.5625H97.2656V29.25Z" fill="#C3C6C7"/>
<path d="M103.891 55.75V49.125H110.516L103.891 55.75Z" fill="#E1E3E6"/>
<path d="M84.0157 33.3906C83.8519 33.3907 83.6917 33.3421 83.5556 33.2511C83.4194 33.1601 83.3132 33.0308 83.2505 32.8794C83.1879 32.7281 83.1715 32.5616 83.2034 32.401C83.2354 32.2403 83.3142 32.0928 83.4301 31.9769L86.7426 28.6644C86.8979 28.5091 87.1085 28.4219 87.3282 28.4219C87.5478 28.4219 87.7584 28.5091 87.9137 28.6644C88.069 28.8197 88.1563 29.0304 88.1563 29.25C88.1563 29.4697 88.069 29.6803 87.9137 29.8356L84.6012 33.1481C84.5244 33.2251 84.4332 33.2862 84.3327 33.3278C84.2322 33.3694 84.1244 33.3908 84.0157 33.3906V33.3906Z" fill="#EB423F"/>
<path d="M87.3281 33.3906C87.2194 33.3908 87.1116 33.3694 87.0111 33.3278C86.9106 33.2862 86.8194 33.2251 86.7426 33.1481L83.4301 29.8356C83.2748 29.6803 83.1875 29.4697 83.1875 29.25C83.1875 29.0304 83.2748 28.8197 83.4301 28.6644C83.5854 28.5091 83.796 28.4219 84.0156 28.4219C84.2353 28.4219 84.4459 28.5091 84.6012 28.6644L87.9137 31.9769C88.0296 32.0928 88.1084 32.2403 88.1404 32.401C88.1723 32.5616 88.1559 32.7281 88.0933 32.8794C88.0306 33.0308 87.9244 33.1601 87.7882 33.2511C87.6521 33.3421 87.4919 33.3907 87.3281 33.3906V33.3906Z" fill="#EB423F"/>
<path d="M103.891 35.875H107.203V39.1875H103.891V35.875Z" fill="#C3C6C7"/>
<path d="M90.6406 35.875H93.9531V39.1875H90.6406V35.875Z" fill="#C3C6C7"/>
<path d="M84.0159 35.875H87.3284V39.1875H84.0159V35.875Z" fill="#C3C6C7"/>
<path d="M77.3906 35.875H80.7031V39.1875H77.3906V35.875Z" fill="#C3C6C7"/>
<path d="M103.891 42.5H107.203V45.8125H103.891V42.5Z" fill="#C3C6C7"/>
<path d="M97.2656 42.5H100.578V45.8125H97.2656V42.5Z" fill="#C3C6C7"/>
<path d="M90.6406 42.5H93.9531V45.8125H90.6406V42.5Z" fill="#C3C6C7"/>
<path d="M84.0156 49.125H87.3281V52.4375H84.0156V49.125Z" fill="#C3C6C7"/>
<path d="M70.7656 35.875H74.0781V39.1875H70.7656V35.875Z" fill="#C3C6C7"/>
<path d="M90.6407 53.2657C90.4769 53.2657 90.3167 53.2171 90.1806 53.1261C90.0444 53.0351 89.9382 52.9058 89.8755 52.7544C89.8129 52.6031 89.7965 52.4366 89.8284 52.276C89.8604 52.1153 89.9392 51.9678 90.0551 51.8519L93.3676 48.5394C93.4445 48.4625 93.5358 48.4015 93.6362 48.3599C93.7367 48.3183 93.8444 48.2969 93.9532 48.2969C94.0619 48.2969 94.1696 48.3183 94.2701 48.3599C94.3705 48.4015 94.4618 48.4625 94.5387 48.5394C94.6156 48.6163 94.6766 48.7076 94.7183 48.8081C94.7599 48.9086 94.7813 49.0163 94.7813 49.125C94.7813 49.2338 94.7599 49.3415 94.7183 49.4419C94.6766 49.5424 94.6156 49.6337 94.5387 49.7106L91.2262 53.0231C91.1494 53.1001 91.0582 53.1612 90.9577 53.2028C90.8572 53.2445 90.7494 53.2658 90.6407 53.2657Z" fill="#EB423F"/>
<path d="M93.9531 53.2657C93.8444 53.2658 93.7366 53.2445 93.6361 53.2028C93.5356 53.1612 93.4444 53.1001 93.3676 53.0231L90.0551 49.7106C89.8998 49.5553 89.8125 49.3447 89.8125 49.125C89.8125 48.9054 89.8998 48.6947 90.0551 48.5394C90.2104 48.3841 90.421 48.2969 90.6406 48.2969C90.8603 48.2969 91.0709 48.3841 91.2262 48.5394L94.5387 51.8519C94.6546 51.9678 94.7334 52.1153 94.7654 52.276C94.7973 52.4366 94.7809 52.6031 94.7183 52.7544C94.6556 52.9058 94.5494 53.0351 94.4132 53.1261C94.2771 53.2171 94.1169 53.2657 93.9531 53.2657V53.2657Z" fill="#EB423F"/>
<path d="M84.0156 42.5H87.3281V45.8125H84.0156V42.5Z" fill="#C3C6C7"/>
<path d="M97.2657 40.0156C97.1019 40.0157 96.9417 39.9671 96.8056 39.8761C96.6694 39.7851 96.5632 39.6558 96.5005 39.5044C96.4379 39.3531 96.4215 39.1866 96.4534 39.026C96.4854 38.8653 96.5642 38.7177 96.6801 38.6019L99.9926 35.2894C100.148 35.1341 100.359 35.0469 100.578 35.0469C100.798 35.0469 101.008 35.1341 101.164 35.2894C101.319 35.4447 101.406 35.6554 101.406 35.875C101.406 36.0947 101.319 36.3053 101.164 36.4606L97.8512 39.7731C97.7744 39.8501 97.6832 39.9112 97.5827 39.9528C97.4822 39.9944 97.3744 40.0158 97.2657 40.0156Z" fill="#EB423F"/>
<path d="M100.578 40.0156C100.469 40.0158 100.362 39.9944 100.261 39.9528C100.161 39.9112 100.069 39.8501 99.9926 39.7731L96.6801 36.4606C96.5248 36.3053 96.4375 36.0947 96.4375 35.875C96.4375 35.6554 96.5248 35.4447 96.6801 35.2894C96.8354 35.1341 97.046 35.0469 97.2656 35.0469C97.4853 35.0469 97.6959 35.1341 97.8512 35.2894L101.164 38.6019C101.28 38.7177 101.358 38.8653 101.39 39.026C101.422 39.1866 101.406 39.3531 101.343 39.5044C101.281 39.6558 101.174 39.7851 101.038 39.8761C100.902 39.9671 100.742 40.0157 100.578 40.0156V40.0156Z" fill="#EB423F"/>
<path d="M72.4219 54.9219C73.1932 54.3433 73.8193 53.5932 74.2505 52.7307C74.6818 51.8683 74.9062 50.9173 74.9062 49.9531C74.9062 48.9889 74.6818 48.0379 74.2505 47.1755C73.8193 46.3131 73.1932 45.5629 72.4219 44.9844C71.6505 45.5629 71.0244 46.3131 70.5932 47.1755C70.162 48.0379 69.9375 48.9889 69.9375 49.9531C69.9375 50.9173 70.162 51.8683 70.5932 52.7307C71.0244 53.5932 71.6505 54.3433 72.4219 54.9219Z" fill="#FDA2C6"/>
<path d="M72.4219 56.5781C73.0004 57.3495 73.7506 57.9756 74.613 58.4068C75.4754 58.838 76.4264 59.0625 77.3906 59.0625C78.3548 59.0625 79.3058 58.838 80.1682 58.4068C81.0307 57.9756 81.7808 57.3495 82.3594 56.5781C81.7808 55.8068 81.0307 55.1807 80.1682 54.7495C79.3058 54.3182 78.3548 54.0938 77.3906 54.0938C76.4264 54.0938 75.4754 54.3182 74.613 54.7495C73.7506 55.1807 73.0004 55.8068 72.4219 56.5781V56.5781Z" fill="#FF6AA0"/>
<path d="M62.4844 56.5781C63.0629 57.3495 63.8131 57.9756 64.6755 58.4068C65.5379 58.838 66.4889 59.0625 67.4531 59.0625C68.4173 59.0625 69.3683 58.838 70.2307 58.4068C71.0932 57.9756 71.8433 57.3495 72.4219 56.5781C71.8433 55.8068 71.0932 55.1807 70.2307 54.7495C69.3683 54.3182 68.4173 54.0938 67.4531 54.0938C66.4889 54.0938 65.5379 54.3182 64.6755 54.7495C63.8131 55.1807 63.0629 55.8068 62.4844 56.5781V56.5781Z" fill="#FF6AA0"/>
<path d="M72.1288 56.5131C73.0833 56.6494 74.0565 56.5617 74.9712 56.2568C75.886 55.9519 76.7171 55.4382 77.3989 54.7564C78.0807 54.0746 78.5944 53.2434 78.8994 52.3287C79.2043 51.4139 79.292 50.4408 79.1557 49.4862C78.2011 49.3499 77.228 49.4376 76.3133 49.7426C75.3985 50.0475 74.5673 50.5612 73.8855 51.243C73.2037 51.9248 72.69 52.7559 72.3851 53.6707C72.0802 54.5854 71.9925 55.5586 72.1288 56.5131Z" fill="#F07DA9"/>
<path d="M72.7143 56.5131C72.8506 55.5586 72.7629 54.5854 72.458 53.6707C72.153 52.7559 71.6393 51.9248 70.9575 51.243C70.2757 50.5612 69.4446 50.0475 68.5298 49.7426C67.6151 49.4376 66.6419 49.3499 65.6874 49.4862C65.5511 50.4408 65.6388 51.4139 65.9437 52.3287C66.2486 53.2434 66.7623 54.0746 67.4441 54.7564C68.1259 55.4382 68.9571 55.9519 69.8719 56.2568C70.7866 56.5617 71.7597 56.6494 72.7143 56.5131V56.5131Z" fill="#FD84B3"/>
<path d="M77.3907 46.6407C77.2269 46.6407 77.0667 46.5921 76.9306 46.5011C76.7944 46.4101 76.6882 46.2808 76.6255 46.1294C76.5629 45.9781 76.5465 45.8116 76.5784 45.651C76.6104 45.4903 76.6892 45.3428 76.8051 45.2269L80.1176 41.9144C80.2729 41.7591 80.4835 41.6719 80.7032 41.6719C80.9228 41.6719 81.1334 41.7591 81.2887 41.9144C81.444 42.0697 81.5313 42.2804 81.5313 42.5C81.5313 42.7197 81.444 42.9303 81.2887 43.0856L77.9762 46.3981C77.8994 46.4751 77.8082 46.5362 77.7077 46.5778C77.6072 46.6195 77.4994 46.6408 77.3907 46.6407V46.6407Z" fill="#EB423F"/>
<path d="M80.7031 46.6407C80.5944 46.6408 80.4866 46.6195 80.3861 46.5778C80.2856 46.5362 80.1944 46.4751 80.1176 46.3981L76.8051 43.0856C76.7282 43.0087 76.6672 42.9174 76.6255 42.8169C76.5839 42.7165 76.5625 42.6088 76.5625 42.5C76.5625 42.3913 76.5839 42.2836 76.6255 42.1831C76.6672 42.0826 76.7282 41.9913 76.8051 41.9144C76.882 41.8375 76.9733 41.7765 77.0737 41.7349C77.1742 41.6933 77.2819 41.6719 77.3906 41.6719C77.4994 41.6719 77.6071 41.6933 77.7076 41.7349C77.808 41.7765 77.8993 41.8375 77.9762 41.9144L81.2887 45.2269C81.4046 45.3428 81.4834 45.4903 81.5154 45.651C81.5473 45.8116 81.5309 45.9781 81.4683 46.1294C81.4056 46.2808 81.2994 46.4101 81.1632 46.5011C81.0271 46.5921 80.8669 46.6407 80.7031 46.6407V46.6407Z" fill="#EB423F"/>
<path d="M90.6407 33.3906C90.4769 33.3907 90.3167 33.3421 90.1806 33.2511C90.0444 33.1601 89.9382 33.0308 89.8755 32.8794C89.8129 32.7281 89.7965 32.5616 89.8284 32.401C89.8604 32.2403 89.9392 32.0928 90.0551 31.9769L93.3676 28.6644C93.4445 28.5875 93.5358 28.5265 93.6362 28.4849C93.7367 28.4433 93.8444 28.4219 93.9532 28.4219C94.0619 28.4219 94.1696 28.4433 94.2701 28.4849C94.3705 28.5265 94.4618 28.5875 94.5387 28.6644C94.6156 28.7413 94.6766 28.8326 94.7183 28.9331C94.7599 29.0336 94.7813 29.1413 94.7813 29.25C94.7813 29.3588 94.7599 29.4665 94.7183 29.5669C94.6766 29.6674 94.6156 29.7587 94.5387 29.8356L91.2262 33.1481C91.1494 33.2251 91.0582 33.2862 90.9577 33.3278C90.8572 33.3694 90.7494 33.3908 90.6407 33.3906V33.3906Z" fill="#EB423F"/>
<path d="M93.9531 33.3906C93.8444 33.3908 93.7366 33.3694 93.6361 33.3278C93.5356 33.2862 93.4444 33.2251 93.3676 33.1481L90.0551 29.8356C89.8998 29.6803 89.8125 29.4697 89.8125 29.25C89.8125 29.0304 89.8998 28.8197 90.0551 28.6644C90.2104 28.5091 90.421 28.4219 90.6406 28.4219C90.8603 28.4219 91.0709 28.5091 91.2262 28.6644L94.5387 31.9769C94.6546 32.0928 94.7334 32.2403 94.7654 32.401C94.7973 32.5616 94.7809 32.7281 94.7183 32.8794C94.6556 33.0308 94.5494 33.1601 94.4132 33.2511C94.2771 33.3421 94.1169 33.3907 93.9531 33.3906V33.3906Z" fill="#EB423F"/>
<path d="M77.3906 29.25H80.7031V32.5625H77.3906V29.25Z" fill="#C3C6C7"/>
<path d="M67.2618 87.706C67.2618 88.186 67.1658 88.63 66.9738 89.038C66.7818 89.434 66.5238 89.782 66.1998 90.082C65.8758 90.37 65.4978 90.598 65.0658 90.766C64.6338 90.922 64.1718 91 63.6798 91H57.6498V78.22H63.8058C64.2498 78.22 64.6518 78.316 65.0118 78.508C65.3718 78.7 65.6778 78.952 65.9298 79.264C66.1818 79.564 66.3738 79.912 66.5058 80.308C66.6498 80.692 66.7218 81.082 66.7218 81.478C66.7218 82.126 66.5598 82.72 66.2358 83.26C65.9118 83.788 65.4618 84.184 64.8858 84.448C65.6178 84.664 66.1938 85.066 66.6138 85.654C67.0458 86.242 67.2618 86.926 67.2618 87.706ZM66.0018 87.49C66.0018 87.178 65.9478 86.878 65.8398 86.59C65.7318 86.29 65.5758 86.032 65.3718 85.816C65.1798 85.588 64.9458 85.408 64.6698 85.276C64.4058 85.132 64.1178 85.06 63.8058 85.06H58.9098V89.902H63.6798C64.0038 89.902 64.3038 89.836 64.5798 89.704C64.8678 89.572 65.1138 89.398 65.3178 89.182C65.5338 88.954 65.7018 88.696 65.8218 88.408C65.9418 88.108 66.0018 87.802 66.0018 87.49ZM58.9098 79.318V84.034H63.3018C63.6138 84.034 63.9018 83.968 64.1658 83.836C64.4418 83.704 64.6758 83.53 64.8678 83.314C65.0598 83.098 65.2098 82.852 65.3178 82.576C65.4258 82.288 65.4798 81.988 65.4798 81.676C65.4798 81.352 65.4258 81.046 65.3178 80.758C65.2218 80.47 65.0778 80.224 64.8858 80.02C64.7058 79.804 64.4898 79.636 64.2378 79.516C63.9858 79.384 63.7098 79.318 63.4098 79.318H58.9098ZM73.3821 91.18C72.6981 91.18 72.0741 91.054 71.5101 90.802C70.9461 90.538 70.4541 90.184 70.0341 89.74C69.6261 89.296 69.3081 88.78 69.0801 88.192C68.8521 87.604 68.7381 86.986 68.7381 86.338C68.7381 85.678 68.8521 85.054 69.0801 84.466C69.3201 83.878 69.6441 83.362 70.0521 82.918C70.4721 82.474 70.9641 82.12 71.5281 81.856C72.0921 81.592 72.7101 81.46 73.3821 81.46C74.0541 81.46 74.6721 81.592 75.2361 81.856C75.8121 82.12 76.3041 82.474 76.7121 82.918C77.1321 83.362 77.4561 83.878 77.6841 84.466C77.9241 85.054 78.0441 85.678 78.0441 86.338C78.0441 86.986 77.9301 87.604 77.7021 88.192C77.4741 88.78 77.1501 89.296 76.7301 89.74C76.3221 90.184 75.8301 90.538 75.2541 90.802C74.6901 91.054 74.0661 91.18 73.3821 91.18ZM69.9801 86.356C69.9801 86.884 70.0701 87.376 70.2501 87.832C70.4301 88.276 70.6701 88.672 70.9701 89.02C71.2821 89.356 71.6421 89.62 72.0501 89.812C72.4701 90.004 72.9141 90.1 73.3821 90.1C73.8501 90.1 74.2881 90.004 74.6961 89.812C75.1161 89.608 75.4821 89.338 75.7941 89.002C76.1061 88.654 76.3521 88.252 76.5321 87.796C76.7121 87.34 76.8021 86.848 76.8021 86.32C76.8021 85.804 76.7121 85.318 76.5321 84.862C76.3521 84.394 76.1061 83.992 75.7941 83.656C75.4821 83.308 75.1161 83.038 74.6961 82.846C74.2881 82.642 73.8501 82.54 73.3821 82.54C72.9141 82.54 72.4761 82.642 72.0681 82.846C71.6601 83.038 71.3001 83.308 70.9881 83.656C70.6761 84.004 70.4301 84.412 70.2501 84.88C70.0701 85.336 69.9801 85.828 69.9801 86.356ZM84.0872 91.18C83.4032 91.18 82.7792 91.054 82.2152 90.802C81.6512 90.538 81.1592 90.184 80.7392 89.74C80.3312 89.296 80.0132 88.78 79.7852 88.192C79.5572 87.604 79.4432 86.986 79.4432 86.338C79.4432 85.678 79.5572 85.054 79.7852 84.466C80.0252 83.878 80.3492 83.362 80.7572 82.918C81.1772 82.474 81.6692 82.12 82.2332 81.856C82.7972 81.592 83.4152 81.46 84.0872 81.46C84.7592 81.46 85.3772 81.592 85.9412 81.856C86.5172 82.12 87.0092 82.474 87.4172 82.918C87.8372 83.362 88.1612 83.878 88.3892 84.466C88.6292 85.054 88.7492 85.678 88.7492 86.338C88.7492 86.986 88.6352 87.604 88.4072 88.192C88.1792 88.78 87.8552 89.296 87.4352 89.74C87.0272 90.184 86.5352 90.538 85.9592 90.802C85.3952 91.054 84.7712 91.18 84.0872 91.18ZM80.6852 86.356C80.6852 86.884 80.7752 87.376 80.9552 87.832C81.1352 88.276 81.3752 88.672 81.6752 89.02C81.9872 89.356 82.3472 89.62 82.7552 89.812C83.1752 90.004 83.6192 90.1 84.0872 90.1C84.5552 90.1 84.9932 90.004 85.4012 89.812C85.8212 89.608 86.1872 89.338 86.4992 89.002C86.8112 88.654 87.0572 88.252 87.2372 87.796C87.4172 87.34 87.5072 86.848 87.5072 86.32C87.5072 85.804 87.4172 85.318 87.2372 84.862C87.0572 84.394 86.8112 83.992 86.4992 83.656C86.1872 83.308 85.8212 83.038 85.4012 82.846C84.9932 82.642 84.5552 82.54 84.0872 82.54C83.6192 82.54 83.1812 82.642 82.7732 82.846C82.3652 83.038 82.0052 83.308 81.6932 83.656C81.3812 84.004 81.1352 84.412 80.9552 84.88C80.7752 85.336 80.6852 85.828 80.6852 86.356ZM97.4922 91L94.0362 86.194L92.0202 88.066V91H90.7962V77.86H92.0202V86.788L97.2942 81.64H98.6802L94.8462 85.474L98.8242 91H97.4922ZM103.899 91.18C103.215 91.18 102.585 91.054 102.009 90.802C101.445 90.538 100.953 90.184 100.533 89.74C100.113 89.284 99.783 88.762 99.543 88.174C99.315 87.586 99.201 86.956 99.201 86.284C99.201 85.624 99.315 85.006 99.543 84.43C99.783 83.842 100.107 83.332 100.515 82.9C100.935 82.456 101.433 82.108 102.009 81.856C102.585 81.592 103.209 81.46 103.881 81.46C104.565 81.46 105.189 81.592 105.753 81.856C106.329 82.108 106.821 82.456 107.229 82.9C107.637 83.344 107.955 83.854 108.183 84.43C108.411 85.006 108.525 85.618 108.525 86.266C108.525 86.362 108.525 86.458 108.525 86.554C108.525 86.65 108.519 86.716 108.507 86.752H100.479C100.515 87.256 100.629 87.724 100.821 88.156C101.025 88.576 101.283 88.942 101.595 89.254C101.907 89.566 102.261 89.812 102.657 89.992C103.065 90.16 103.497 90.244 103.953 90.244C104.253 90.244 104.553 90.202 104.853 90.118C105.153 90.034 105.429 89.92 105.681 89.776C105.933 89.632 106.161 89.458 106.365 89.254C106.569 89.038 106.725 88.804 106.833 88.552L107.895 88.84C107.751 89.188 107.547 89.506 107.283 89.794C107.019 90.07 106.713 90.316 106.365 90.532C106.017 90.736 105.633 90.892 105.213 91C104.793 91.12 104.355 91.18 103.899 91.18ZM107.355 85.816C107.319 85.312 107.199 84.856 106.995 84.448C106.803 84.028 106.551 83.668 106.239 83.368C105.939 83.068 105.585 82.834 105.177 82.666C104.781 82.498 104.355 82.414 103.899 82.414C103.443 82.414 103.011 82.498 102.603 82.666C102.195 82.834 101.835 83.068 101.523 83.368C101.223 83.668 100.977 84.028 100.785 84.448C100.605 84.868 100.497 85.324 100.461 85.816H107.355ZM114.265 91.18C113.617 91.18 113.017 91.048 112.465 90.784C111.913 90.508 111.439 90.148 111.043 89.704C110.647 89.26 110.335 88.75 110.107 88.174C109.891 87.586 109.783 86.974 109.783 86.338C109.783 85.678 109.891 85.054 110.107 84.466C110.323 83.866 110.617 83.344 110.989 82.9C111.373 82.456 111.823 82.108 112.339 81.856C112.867 81.592 113.443 81.46 114.067 81.46C114.859 81.46 115.561 81.67 116.173 82.09C116.785 82.498 117.265 82.996 117.613 83.584V77.86H118.837V89.416C118.837 89.752 118.981 89.92 119.269 89.92V91C119.089 91.036 118.945 91.054 118.837 91.054C118.549 91.054 118.297 90.964 118.081 90.784C117.865 90.592 117.757 90.364 117.757 90.1V89.182C117.385 89.794 116.881 90.28 116.245 90.64C115.609 91 114.949 91.18 114.265 91.18ZM114.535 90.1C114.835 90.1 115.153 90.04 115.489 89.92C115.837 89.8 116.161 89.638 116.461 89.434C116.761 89.218 117.013 88.972 117.217 88.696C117.433 88.408 117.565 88.102 117.613 87.778V84.88C117.493 84.556 117.319 84.256 117.091 83.98C116.863 83.692 116.599 83.44 116.299 83.224C116.011 83.008 115.699 82.84 115.363 82.72C115.027 82.6 114.697 82.54 114.373 82.54C113.869 82.54 113.413 82.648 113.005 82.864C112.597 83.08 112.243 83.368 111.943 83.728C111.655 84.076 111.433 84.478 111.277 84.934C111.121 85.39 111.043 85.858 111.043 86.338C111.043 86.842 111.133 87.322 111.313 87.778C111.493 88.234 111.739 88.636 112.051 88.984C112.363 89.32 112.729 89.59 113.149 89.794C113.581 89.998 114.043 90.1 114.535 90.1Z" fill="#413F60"/>
<rect x="381" width="176.106" height="118" rx="10" fill="white"/>
<path d="M441.094 91V78.22H442.354V91H441.094ZM453.191 91H451.967V85.762C451.967 84.646 451.799 83.836 451.463 83.332C451.139 82.828 450.635 82.576 449.951 82.576C449.591 82.576 449.231 82.642 448.871 82.774C448.511 82.906 448.175 83.092 447.863 83.332C447.563 83.572 447.293 83.86 447.053 84.196C446.813 84.52 446.639 84.874 446.531 85.258V91H445.307V81.622H446.423V83.746C446.807 83.062 447.353 82.51 448.061 82.09C448.781 81.67 449.561 81.46 450.401 81.46C450.917 81.46 451.355 81.556 451.715 81.748C452.075 81.94 452.363 82.21 452.579 82.558C452.795 82.906 452.951 83.332 453.047 83.836C453.143 84.34 453.191 84.898 453.191 85.51V91ZM458.915 91.18C458.183 91.18 457.469 91.06 456.773 90.82C456.077 90.58 455.477 90.232 454.973 89.776L455.531 88.948C456.059 89.38 456.593 89.704 457.133 89.92C457.685 90.136 458.273 90.244 458.897 90.244C459.653 90.244 460.253 90.094 460.697 89.794C461.153 89.482 461.381 89.044 461.381 88.48C461.381 88.216 461.321 88 461.201 87.832C461.081 87.652 460.901 87.496 460.661 87.364C460.433 87.232 460.139 87.118 459.779 87.022C459.431 86.914 459.023 86.806 458.555 86.698C458.015 86.566 457.547 86.434 457.151 86.302C456.755 86.17 456.425 86.02 456.161 85.852C455.909 85.684 455.717 85.48 455.585 85.24C455.465 84.988 455.405 84.676 455.405 84.304C455.405 83.836 455.495 83.422 455.675 83.062C455.867 82.702 456.119 82.408 456.431 82.18C456.755 81.94 457.127 81.76 457.547 81.64C457.979 81.52 458.435 81.46 458.915 81.46C459.635 81.46 460.289 81.58 460.877 81.82C461.465 82.048 461.939 82.354 462.299 82.738L461.705 83.458C461.357 83.098 460.931 82.828 460.427 82.648C459.935 82.468 459.419 82.378 458.879 82.378C458.555 82.378 458.255 82.414 457.979 82.486C457.703 82.546 457.457 82.648 457.241 82.792C457.037 82.936 456.875 83.122 456.755 83.35C456.635 83.566 456.575 83.824 456.575 84.124C456.575 84.376 456.617 84.58 456.701 84.736C456.785 84.892 456.923 85.03 457.115 85.15C457.307 85.258 457.547 85.36 457.835 85.456C458.135 85.54 458.495 85.63 458.915 85.726C459.515 85.87 460.043 86.014 460.499 86.158C460.955 86.302 461.333 86.47 461.633 86.662C461.945 86.854 462.179 87.088 462.335 87.364C462.491 87.64 462.569 87.976 462.569 88.372C462.569 89.236 462.239 89.92 461.579 90.424C460.919 90.928 460.031 91.18 458.915 91.18ZM467.507 91.18C466.487 91.18 465.725 90.844 465.221 90.172C464.729 89.488 464.483 88.474 464.483 87.13V81.622H465.707V86.914C465.707 89.038 466.433 90.1 467.885 90.1C468.245 90.1 468.599 90.04 468.947 89.92C469.295 89.8 469.613 89.626 469.901 89.398C470.201 89.17 470.465 88.9 470.693 88.588C470.933 88.276 471.125 87.922 471.269 87.526V81.622H472.493V89.416C472.493 89.752 472.637 89.92 472.925 89.92V91C472.781 91.024 472.661 91.036 472.565 91.036C472.481 91.036 472.421 91.036 472.385 91.036C472.097 91.024 471.863 90.922 471.683 90.73C471.503 90.538 471.413 90.28 471.413 89.956V88.876C471.005 89.608 470.447 90.178 469.739 90.586C469.043 90.982 468.299 91.18 467.507 91.18ZM479.94 82.702C479.112 82.726 478.392 82.954 477.78 83.386C477.168 83.818 476.736 84.412 476.484 85.168V91H475.26V81.622H476.412V83.872C476.76 83.152 477.228 82.588 477.816 82.18C478.404 81.772 479.034 81.568 479.706 81.568C479.802 81.568 479.88 81.574 479.94 81.586V82.702ZM485.146 91.18C484.462 91.18 483.832 91.054 483.256 90.802C482.692 90.538 482.2 90.184 481.78 89.74C481.36 89.284 481.03 88.762 480.79 88.174C480.562 87.586 480.448 86.956 480.448 86.284C480.448 85.624 480.562 85.006 480.79 84.43C481.03 83.842 481.354 83.332 481.762 82.9C482.182 82.456 482.68 82.108 483.256 81.856C483.832 81.592 484.456 81.46 485.128 81.46C485.812 81.46 486.436 81.592 487 81.856C487.576 82.108 488.068 82.456 488.476 82.9C488.884 83.344 489.202 83.854 489.43 84.43C489.658 85.006 489.772 85.618 489.772 86.266C489.772 86.362 489.772 86.458 489.772 86.554C489.772 86.65 489.766 86.716 489.754 86.752H481.726C481.762 87.256 481.876 87.724 482.068 88.156C482.272 88.576 482.53 88.942 482.842 89.254C483.154 89.566 483.508 89.812 483.904 89.992C484.312 90.16 484.744 90.244 485.2 90.244C485.5 90.244 485.8 90.202 486.1 90.118C486.4 90.034 486.676 89.92 486.928 89.776C487.18 89.632 487.408 89.458 487.612 89.254C487.816 89.038 487.972 88.804 488.08 88.552L489.142 88.84C488.998 89.188 488.794 89.506 488.53 89.794C488.266 90.07 487.96 90.316 487.612 90.532C487.264 90.736 486.88 90.892 486.46 91C486.04 91.12 485.602 91.18 485.146 91.18ZM488.602 85.816C488.566 85.312 488.446 84.856 488.242 84.448C488.05 84.028 487.798 83.668 487.486 83.368C487.186 83.068 486.832 82.834 486.424 82.666C486.028 82.498 485.602 82.414 485.146 82.414C484.69 82.414 484.258 82.498 483.85 82.666C483.442 82.834 483.082 83.068 482.77 83.368C482.47 83.668 482.224 84.028 482.032 84.448C481.852 84.868 481.744 85.324 481.708 85.816H488.602ZM495.513 91.18C494.865 91.18 494.265 91.048 493.713 90.784C493.161 90.508 492.687 90.148 492.291 89.704C491.895 89.26 491.583 88.75 491.355 88.174C491.139 87.586 491.031 86.974 491.031 86.338C491.031 85.678 491.139 85.054 491.355 84.466C491.571 83.866 491.865 83.344 492.237 82.9C492.621 82.456 493.071 82.108 493.587 81.856C494.115 81.592 494.691 81.46 495.315 81.46C496.107 81.46 496.809 81.67 497.421 82.09C498.033 82.498 498.513 82.996 498.861 83.584V77.86H500.085V89.416C500.085 89.752 500.229 89.92 500.517 89.92V91C500.337 91.036 500.193 91.054 500.085 91.054C499.797 91.054 499.545 90.964 499.329 90.784C499.113 90.592 499.005 90.364 499.005 90.1V89.182C498.633 89.794 498.129 90.28 497.493 90.64C496.857 91 496.197 91.18 495.513 91.18ZM495.783 90.1C496.083 90.1 496.401 90.04 496.737 89.92C497.085 89.8 497.409 89.638 497.709 89.434C498.009 89.218 498.261 88.972 498.465 88.696C498.681 88.408 498.813 88.102 498.861 87.778V84.88C498.741 84.556 498.567 84.256 498.339 83.98C498.111 83.692 497.847 83.44 497.547 83.224C497.259 83.008 496.947 82.84 496.611 82.72C496.275 82.6 495.945 82.54 495.621 82.54C495.117 82.54 494.661 82.648 494.253 82.864C493.845 83.08 493.491 83.368 493.191 83.728C492.903 84.076 492.681 84.478 492.525 84.934C492.369 85.39 492.291 85.858 492.291 86.338C492.291 86.842 492.381 87.322 492.561 87.778C492.741 88.234 492.987 88.636 493.299 88.984C493.611 89.32 493.977 89.59 494.397 89.794C494.829 89.998 495.291 90.1 495.783 90.1Z" fill="#413F60"/>
<path d="M473.445 16H454.969C452.363 16 450.242 18.1203 450.242 20.7266V55.2734C450.242 57.8797 452.363 60 454.969 60H479.031C481.637 60 483.758 57.8797 483.758 55.2734V26.3125L473.445 16Z" fill="#FF415B"/>
<path d="M467 16V60H479.031C481.637 60 483.758 57.8797 483.758 55.2734V26.3125L473.445 16H467Z" fill="#E50058"/>
<path d="M467 54.8438C466.875 54.8438 466.75 54.8256 466.63 54.7894C463.859 53.9583 461.483 52.2925 459.756 49.9722C458.03 47.6518 457.117 44.8966 457.117 42.0044V34.6484C457.117 33.9365 457.694 33.3594 458.406 33.3594C460.035 33.3594 461.5 32.4543 462.228 30.9974L462.409 30.6346C462.628 30.1977 463.074 29.9219 463.562 29.9219H470.438C470.926 29.9219 471.372 30.1977 471.591 30.6345L471.772 30.9974C472.5 32.4543 473.965 33.3594 475.594 33.3594C476.306 33.3594 476.883 33.9365 476.883 34.6484V42.0044C476.883 44.8966 475.97 47.6518 474.244 49.9722C472.517 52.2925 470.141 53.9583 467.37 54.7894C467.25 54.8256 467.125 54.8438 467 54.8438V54.8438Z" fill="white"/>
<path d="M459.695 35.8174V42.0045C459.695 46.6671 462.615 50.7173 467 52.2019C471.385 50.7173 474.305 46.6671 474.305 42.0045V35.8174C472.354 35.4492 470.658 34.2534 469.653 32.5H464.347C463.342 34.2534 461.646 35.4492 459.695 35.8174V35.8174Z" fill="#F5F5FF"/>
<path d="M469.653 32.5H467V52.2018C471.385 50.7172 474.305 46.6671 474.305 42.0044V35.8174C472.354 35.4492 470.658 34.2533 469.653 32.5V32.5Z" fill="#E2E7FA"/>
<path d="M465.785 46.1026C465.455 46.1026 465.125 45.9768 464.874 45.725L462.443 43.2943C461.94 42.7909 461.94 41.9747 462.443 41.4713C462.946 40.9679 463.763 40.9679 464.266 41.4713L465.785 42.9904L469.735 39.0407C470.238 38.5372 471.055 38.5372 471.558 39.0407C472.061 39.5441 472.061 40.3602 471.558 40.8636L466.697 45.725C466.445 45.9768 466.115 46.1026 465.785 46.1026V46.1026Z" fill="#FF415B"/>
<path d="M469.735 39.0407L467 41.7752V45.4212L471.558 40.8636C472.061 40.3602 472.061 39.5441 471.558 39.0407C471.054 38.5372 470.238 38.5372 469.735 39.0407V39.0407Z" fill="#E50058"/>
<path d="M473.445 16V25.0234C473.445 25.7353 474.022 26.3125 474.734 26.3125H483.758L473.445 16Z" fill="#B60348"/>
<rect x="190.947" width="176.106" height="118" rx="10" fill="white"/>
<path d="M256.829 79.336H252.275V91H251.015V79.336H246.461V78.22H256.829V79.336ZM261.185 82.702C260.357 82.726 259.637 82.954 259.025 83.386C258.413 83.818 257.981 84.412 257.729 85.168V91H256.505V81.622H257.657V83.872C258.005 83.152 258.473 82.588 259.061 82.18C259.649 81.772 260.279 81.568 260.951 81.568C261.047 81.568 261.125 81.574 261.185 81.586V82.702ZM265.051 91.18C264.607 91.18 264.193 91.108 263.809 90.964C263.437 90.808 263.107 90.598 262.819 90.334C262.543 90.07 262.327 89.764 262.171 89.416C262.015 89.056 261.937 88.672 261.937 88.264C261.937 87.856 262.033 87.478 262.225 87.13C262.417 86.782 262.687 86.482 263.035 86.23C263.383 85.978 263.797 85.786 264.277 85.654C264.757 85.51 265.285 85.438 265.861 85.438C266.341 85.438 266.827 85.48 267.319 85.564C267.811 85.648 268.249 85.768 268.633 85.924V85.078C268.633 84.25 268.399 83.596 267.931 83.116C267.463 82.624 266.815 82.378 265.987 82.378C265.507 82.378 265.015 82.474 264.511 82.666C264.007 82.858 263.497 83.134 262.981 83.494L262.549 82.684C263.761 81.868 264.937 81.46 266.077 81.46C267.253 81.46 268.177 81.79 268.849 82.45C269.521 83.11 269.857 84.022 269.857 85.186V89.416C269.857 89.752 270.007 89.92 270.307 89.92V91C270.103 91.036 269.947 91.054 269.839 91.054C269.527 91.054 269.281 90.976 269.101 90.82C268.933 90.664 268.843 90.448 268.831 90.172L268.795 89.434C268.363 89.998 267.817 90.43 267.157 90.73C266.509 91.03 265.807 91.18 265.051 91.18ZM265.339 90.244C265.975 90.244 266.557 90.124 267.085 89.884C267.625 89.644 268.033 89.326 268.309 88.93C268.417 88.822 268.495 88.708 268.543 88.588C268.603 88.456 268.633 88.336 268.633 88.228V86.698C268.225 86.542 267.799 86.422 267.355 86.338C266.923 86.254 266.479 86.212 266.023 86.212C265.159 86.212 264.457 86.392 263.917 86.752C263.377 87.112 263.107 87.586 263.107 88.174C263.107 88.462 263.161 88.732 263.269 88.984C263.389 89.236 263.545 89.458 263.737 89.65C263.941 89.83 264.181 89.974 264.457 90.082C264.733 90.19 265.027 90.244 265.339 90.244ZM271.853 86.284C271.853 85.624 271.967 85 272.195 84.412C272.423 83.824 272.741 83.314 273.149 82.882C273.569 82.438 274.067 82.09 274.643 81.838C275.219 81.586 275.855 81.46 276.551 81.46C277.439 81.46 278.213 81.664 278.873 82.072C279.533 82.468 280.031 83.008 280.367 83.692L279.179 84.07C278.915 83.59 278.543 83.218 278.063 82.954C277.595 82.678 277.073 82.54 276.497 82.54C276.017 82.54 275.567 82.636 275.147 82.828C274.739 83.02 274.379 83.284 274.067 83.62C273.767 83.944 273.527 84.334 273.347 84.79C273.179 85.246 273.095 85.744 273.095 86.284C273.095 86.812 273.185 87.31 273.365 87.778C273.545 88.246 273.791 88.654 274.103 89.002C274.415 89.338 274.775 89.608 275.183 89.812C275.603 90.004 276.047 90.1 276.515 90.1C276.815 90.1 277.109 90.058 277.397 89.974C277.697 89.89 277.973 89.776 278.225 89.632C278.477 89.476 278.693 89.302 278.873 89.11C279.053 88.918 279.179 88.714 279.251 88.498L280.457 88.858C280.325 89.194 280.133 89.506 279.881 89.794C279.629 90.07 279.329 90.316 278.981 90.532C278.645 90.736 278.267 90.892 277.847 91C277.439 91.12 277.013 91.18 276.569 91.18C275.885 91.18 275.255 91.054 274.679 90.802C274.103 90.538 273.605 90.184 273.185 89.74C272.765 89.284 272.435 88.762 272.195 88.174C271.967 87.586 271.853 86.956 271.853 86.284ZM289.076 91L285.62 86.194L283.604 88.066V91H282.38V77.86H283.604V86.788L288.878 81.64H290.264L286.43 85.474L290.408 91H289.076ZM295.483 91.18C294.799 91.18 294.169 91.054 293.593 90.802C293.029 90.538 292.537 90.184 292.117 89.74C291.697 89.284 291.367 88.762 291.127 88.174C290.899 87.586 290.785 86.956 290.785 86.284C290.785 85.624 290.899 85.006 291.127 84.43C291.367 83.842 291.691 83.332 292.099 82.9C292.519 82.456 293.017 82.108 293.593 81.856C294.169 81.592 294.793 81.46 295.465 81.46C296.149 81.46 296.773 81.592 297.337 81.856C297.913 82.108 298.405 82.456 298.813 82.9C299.221 83.344 299.539 83.854 299.767 84.43C299.995 85.006 300.109 85.618 300.109 86.266C300.109 86.362 300.109 86.458 300.109 86.554C300.109 86.65 300.103 86.716 300.091 86.752H292.063C292.099 87.256 292.213 87.724 292.405 88.156C292.609 88.576 292.867 88.942 293.179 89.254C293.491 89.566 293.845 89.812 294.241 89.992C294.649 90.16 295.081 90.244 295.537 90.244C295.837 90.244 296.137 90.202 296.437 90.118C296.737 90.034 297.013 89.92 297.265 89.776C297.517 89.632 297.745 89.458 297.949 89.254C298.153 89.038 298.309 88.804 298.417 88.552L299.479 88.84C299.335 89.188 299.131 89.506 298.867 89.794C298.603 90.07 298.297 90.316 297.949 90.532C297.601 90.736 297.217 90.892 296.797 91C296.377 91.12 295.939 91.18 295.483 91.18ZM298.939 85.816C298.903 85.312 298.783 84.856 298.579 84.448C298.387 84.028 298.135 83.668 297.823 83.368C297.523 83.068 297.169 82.834 296.761 82.666C296.365 82.498 295.939 82.414 295.483 82.414C295.027 82.414 294.595 82.498 294.187 82.666C293.779 82.834 293.419 83.068 293.107 83.368C292.807 83.668 292.561 84.028 292.369 84.448C292.189 84.868 292.081 85.324 292.045 85.816H298.939ZM305.849 91.18C305.201 91.18 304.601 91.048 304.049 90.784C303.497 90.508 303.023 90.148 302.627 89.704C302.231 89.26 301.919 88.75 301.691 88.174C301.475 87.586 301.367 86.974 301.367 86.338C301.367 85.678 301.475 85.054 301.691 84.466C301.907 83.866 302.201 83.344 302.573 82.9C302.957 82.456 303.407 82.108 303.923 81.856C304.451 81.592 305.027 81.46 305.651 81.46C306.443 81.46 307.145 81.67 307.757 82.09C308.369 82.498 308.849 82.996 309.197 83.584V77.86H310.421V89.416C310.421 89.752 310.565 89.92 310.853 89.92V91C310.673 91.036 310.529 91.054 310.421 91.054C310.133 91.054 309.881 90.964 309.665 90.784C309.449 90.592 309.341 90.364 309.341 90.1V89.182C308.969 89.794 308.465 90.28 307.829 90.64C307.193 91 306.533 91.18 305.849 91.18ZM306.119 90.1C306.419 90.1 306.737 90.04 307.073 89.92C307.421 89.8 307.745 89.638 308.045 89.434C308.345 89.218 308.597 88.972 308.801 88.696C309.017 88.408 309.149 88.102 309.197 87.778V84.88C309.077 84.556 308.903 84.256 308.675 83.98C308.447 83.692 308.183 83.44 307.883 83.224C307.595 83.008 307.283 82.84 306.947 82.72C306.611 82.6 306.281 82.54 305.957 82.54C305.453 82.54 304.997 82.648 304.589 82.864C304.181 83.08 303.827 83.368 303.527 83.728C303.239 84.076 303.017 84.478 302.861 84.934C302.705 85.39 302.627 85.858 302.627 86.338C302.627 86.842 302.717 87.322 302.897 87.778C303.077 88.234 303.323 88.636 303.635 88.984C303.947 89.32 304.313 89.59 304.733 89.794C305.165 89.998 305.627 90.1 306.119 90.1Z" fill="#413F60"/>
<path d="M286.889 58.9949H272.828C268.357 58.9949 264.72 55.3581 264.72 50.8878C264.72 46.4175 268.357 42.7806 272.828 42.7806H277.502C278.881 42.7806 280.002 41.6589 280.002 40.2801C280.002 38.9014 278.881 37.7797 277.502 37.7797H272.614V35.2605H277.502C280.27 35.2605 282.522 37.5123 282.522 40.2801C282.522 43.048 280.27 45.2998 277.502 45.2998H272.828C269.746 45.2998 267.24 47.8065 267.24 50.8877C267.24 53.9689 269.746 56.4757 272.828 56.4757H286.889V58.9949Z" fill="#0B799D"/>
<path d="M266.478 16L264.798 24.4746L266.477 36.4592L272.47 30.4669C274.003 28.9333 274.952 26.8146 274.952 24.4745C274.952 19.7941 271.158 16 266.478 16V16Z" fill="#E50058"/>
<path d="M258.002 24.4744C258.002 26.8146 258.951 28.9332 260.484 30.4668L266.476 36.4591V16C261.796 16 258.002 19.7941 258.002 24.4744V24.4744Z" fill="#FF415B"/>
<path d="M266.477 18.5193L264.798 24.4747L266.477 30.43C269.761 30.43 272.433 27.7585 272.433 24.4747C272.433 21.1908 269.761 18.5193 266.477 18.5193Z" fill="#FF415B"/>
<path d="M260.522 24.4747C260.522 27.7585 263.194 30.43 266.477 30.43V18.5193C263.194 18.5193 260.522 21.1908 260.522 24.4747V24.4747Z" fill="#FF7C48"/>
<path d="M269.913 24.4747C269.913 22.58 268.372 21.0386 266.477 21.0386L264.798 24.4747L266.477 27.9109C268.372 27.9109 269.913 26.3694 269.913 24.4747Z" fill="#E1EBF0"/>
<path d="M263.041 24.4747C263.041 26.3694 264.582 27.9109 266.477 27.9109V21.0386C264.582 21.0386 263.041 22.58 263.041 24.4747V24.4747Z" fill="#FFF5F5"/>
<path d="M294.279 42.7805L292.599 50.8903L294.279 59L299.029 54.2495C300.298 52.9805 300.997 51.2933 300.997 49.4989C300.997 45.7944 297.983 42.7805 294.279 42.7805V42.7805Z" fill="#E50058"/>
<path d="M287.561 49.4988C287.561 51.2933 288.26 52.9805 289.528 54.2494L294.279 58.9999V42.7805C290.575 42.7805 287.561 45.7944 287.561 49.4988V49.4988Z" fill="#FF415B"/>
<rect x="379" y="138" width="178" height="118" rx="10" fill="white"/>
<path d="M393.9 229V216.93H401.822V217.984H395.09V222.421H400.768V223.407H395.09V229H393.9ZM407.429 221.163C406.647 221.186 405.967 221.401 405.389 221.809C404.811 222.217 404.403 222.778 404.165 223.492V229H403.009V220.143H404.097V222.268C404.426 221.588 404.868 221.055 405.423 220.67C405.978 220.285 406.573 220.092 407.208 220.092C407.299 220.092 407.372 220.098 407.429 220.109V221.163ZM412.346 229.17C411.7 229.17 411.105 229.051 410.561 228.813C410.028 228.564 409.563 228.229 409.167 227.81C408.77 227.379 408.458 226.886 408.232 226.331C408.016 225.776 407.909 225.181 407.909 224.546C407.909 223.923 408.016 223.339 408.232 222.795C408.458 222.24 408.764 221.758 409.15 221.35C409.546 220.931 410.017 220.602 410.561 220.364C411.105 220.115 411.694 219.99 412.329 219.99C412.975 219.99 413.564 220.115 414.097 220.364C414.641 220.602 415.105 220.931 415.491 221.35C415.876 221.769 416.176 222.251 416.392 222.795C416.607 223.339 416.715 223.917 416.715 224.529C416.715 224.62 416.715 224.71 416.715 224.801C416.715 224.892 416.709 224.954 416.698 224.988H409.116C409.15 225.464 409.257 225.906 409.439 226.314C409.631 226.711 409.875 227.056 410.17 227.351C410.464 227.646 410.799 227.878 411.173 228.048C411.558 228.207 411.966 228.286 412.397 228.286C412.68 228.286 412.963 228.246 413.247 228.167C413.53 228.088 413.791 227.98 414.029 227.844C414.267 227.708 414.482 227.544 414.675 227.351C414.867 227.147 415.015 226.926 415.117 226.688L416.12 226.96C415.984 227.289 415.791 227.589 415.542 227.861C415.292 228.122 415.003 228.354 414.675 228.558C414.346 228.751 413.983 228.898 413.587 229C413.19 229.113 412.776 229.17 412.346 229.17ZM415.61 224.104C415.576 223.628 415.462 223.197 415.27 222.812C415.088 222.415 414.85 222.075 414.556 221.792C414.272 221.509 413.938 221.288 413.553 221.129C413.179 220.97 412.776 220.891 412.346 220.891C411.915 220.891 411.507 220.97 411.122 221.129C410.736 221.288 410.396 221.509 410.102 221.792C409.818 222.075 409.586 222.415 409.405 222.812C409.235 223.209 409.133 223.639 409.099 224.104H415.61ZM422.323 229.17C421.677 229.17 421.082 229.051 420.538 228.813C420.005 228.564 419.541 228.229 419.144 227.81C418.747 227.379 418.436 226.886 418.209 226.331C417.994 225.776 417.886 225.181 417.886 224.546C417.886 223.923 417.994 223.339 418.209 222.795C418.436 222.24 418.742 221.758 419.127 221.35C419.524 220.931 419.994 220.602 420.538 220.364C421.082 220.115 421.671 219.99 422.306 219.99C422.952 219.99 423.541 220.115 424.074 220.364C424.618 220.602 425.083 220.931 425.468 221.35C425.853 221.769 426.154 222.251 426.369 222.795C426.584 223.339 426.692 223.917 426.692 224.529C426.692 224.62 426.692 224.71 426.692 224.801C426.692 224.892 426.686 224.954 426.675 224.988H419.093C419.127 225.464 419.235 225.906 419.416 226.314C419.609 226.711 419.852 227.056 420.147 227.351C420.442 227.646 420.776 227.878 421.15 228.048C421.535 228.207 421.943 228.286 422.374 228.286C422.657 228.286 422.941 228.246 423.224 228.167C423.507 228.088 423.768 227.98 424.006 227.844C424.244 227.708 424.459 227.544 424.652 227.351C424.845 227.147 424.992 226.926 425.094 226.688L426.097 226.96C425.961 227.289 425.768 227.589 425.519 227.861C425.27 228.122 424.981 228.354 424.652 228.558C424.323 228.751 423.961 228.898 423.564 229C423.167 229.113 422.754 229.17 422.323 229.17ZM425.587 224.104C425.553 223.628 425.44 223.197 425.247 222.812C425.066 222.415 424.828 222.075 424.533 221.792C424.25 221.509 423.915 221.288 423.53 221.129C423.156 220.97 422.754 220.891 422.323 220.891C421.892 220.891 421.484 220.97 421.099 221.129C420.714 221.288 420.374 221.509 420.079 221.792C419.796 222.075 419.563 222.415 419.382 222.812C419.212 223.209 419.11 223.639 419.076 224.104H425.587ZM438.436 227.946V229H432.673V227.946H435.087V220.67C434.996 220.806 434.837 220.953 434.611 221.112C434.395 221.271 434.152 221.418 433.88 221.554C433.619 221.69 433.347 221.803 433.064 221.894C432.78 221.985 432.531 222.03 432.316 222.03V220.908C432.576 220.908 432.86 220.834 433.166 220.687C433.483 220.54 433.778 220.37 434.05 220.177C434.333 219.984 434.571 219.803 434.764 219.633C434.956 219.463 435.064 219.35 435.087 219.293H436.277V227.946H438.436ZM443.514 223.696C444.07 223.696 444.585 223.792 445.061 223.985C445.537 224.166 445.951 224.427 446.302 224.767C446.665 225.107 446.948 225.515 447.152 225.991C447.356 226.456 447.458 226.971 447.458 227.538C447.458 228.139 447.345 228.683 447.118 229.17C446.903 229.669 446.603 230.088 446.217 230.428C445.843 230.779 445.401 231.051 444.891 231.244C444.381 231.437 443.837 231.533 443.259 231.533C442.829 231.533 442.415 231.476 442.018 231.363C441.633 231.261 441.276 231.108 440.947 230.904C440.619 230.7 440.318 230.456 440.046 230.173C439.786 229.89 439.57 229.572 439.4 229.221L440.165 228.643C440.483 229.198 440.913 229.646 441.457 229.986C442.013 230.326 442.619 230.496 443.276 230.496C443.696 230.496 444.087 230.422 444.449 230.275C444.812 230.139 445.129 229.941 445.401 229.68C445.673 229.419 445.883 229.108 446.03 228.745C446.189 228.382 446.268 227.986 446.268 227.555C446.268 227.136 446.195 226.756 446.047 226.416C445.9 226.065 445.696 225.764 445.435 225.515C445.175 225.266 444.869 225.073 444.517 224.937C444.166 224.801 443.786 224.733 443.378 224.733C442.846 224.733 442.341 224.852 441.865 225.09C441.401 225.317 441.021 225.651 440.726 226.093H439.655C439.667 226.025 439.695 225.872 439.74 225.634C439.786 225.396 439.842 225.113 439.91 224.784C439.978 224.455 440.052 224.093 440.131 223.696C440.211 223.288 440.29 222.88 440.369 222.472C440.562 221.52 440.772 220.46 440.998 219.293H446.829V220.364H441.865L441.032 224.699C441.327 224.382 441.684 224.138 442.103 223.968C442.534 223.787 443.004 223.696 443.514 223.696ZM466.852 229H465.696V224.053C465.696 223.022 465.532 222.262 465.203 221.775C464.874 221.288 464.387 221.044 463.741 221.044C463.401 221.044 463.078 221.106 462.772 221.231C462.477 221.356 462.2 221.531 461.939 221.758C461.69 221.985 461.469 222.257 461.276 222.574C461.083 222.88 460.936 223.22 460.834 223.594V229H459.678V224.053C459.678 222.999 459.519 222.234 459.202 221.758C458.885 221.282 458.397 221.044 457.74 221.044C457.071 221.044 456.476 221.276 455.955 221.741C455.434 222.206 455.06 222.818 454.833 223.577V229H453.677V220.143H454.731V222.149C455.094 221.469 455.57 220.942 456.159 220.568C456.748 220.183 457.4 219.99 458.114 219.99C458.862 219.99 459.457 220.2 459.899 220.619C460.352 221.038 460.63 221.588 460.732 222.268C461.559 220.749 462.698 219.99 464.149 219.99C464.648 219.99 465.067 220.081 465.407 220.262C465.758 220.443 466.036 220.704 466.24 221.044C466.455 221.373 466.608 221.775 466.699 222.251C466.801 222.716 466.852 223.237 466.852 223.815V229ZM469.299 229V220.143H470.455V229H469.299ZM469.299 218.29V216.59H470.455V218.29H469.299ZM480.447 229H479.291V224.053C479.291 222.999 479.132 222.234 478.815 221.758C478.509 221.282 478.033 221.044 477.387 221.044C477.047 221.044 476.707 221.106 476.367 221.231C476.027 221.356 475.71 221.531 475.415 221.758C475.132 221.985 474.877 222.257 474.65 222.574C474.423 222.88 474.259 223.214 474.157 223.577V229H473.001V220.143H474.055V222.149C474.418 221.503 474.933 220.982 475.602 220.585C476.282 220.188 477.019 219.99 477.812 219.99C478.299 219.99 478.713 220.081 479.053 220.262C479.393 220.443 479.665 220.698 479.869 221.027C480.073 221.356 480.22 221.758 480.311 222.234C480.402 222.71 480.447 223.237 480.447 223.815V229ZM485.683 229.17C484.72 229.17 484 228.853 483.524 228.218C483.06 227.572 482.827 226.614 482.827 225.345V220.143H483.983V225.141C483.983 227.147 484.669 228.15 486.04 228.15C486.38 228.15 486.715 228.093 487.043 227.98C487.372 227.867 487.672 227.702 487.944 227.487C488.228 227.272 488.477 227.017 488.692 226.722C488.919 226.427 489.1 226.093 489.236 225.719V220.143H490.392V227.504C490.392 227.821 490.528 227.98 490.8 227.98V229C490.664 229.023 490.551 229.034 490.46 229.034C490.381 229.034 490.324 229.034 490.29 229.034C490.018 229.023 489.797 228.926 489.627 228.745C489.457 228.564 489.372 228.32 489.372 228.014V226.994C488.987 227.685 488.46 228.224 487.791 228.609C487.134 228.983 486.431 229.17 485.683 229.17ZM497.256 228.575C497.188 228.609 497.086 228.654 496.95 228.711C496.825 228.768 496.678 228.824 496.508 228.881C496.338 228.938 496.145 228.989 495.93 229.034C495.715 229.079 495.488 229.102 495.25 229.102C495.001 229.102 494.763 229.068 494.536 229C494.309 228.932 494.111 228.83 493.941 228.694C493.771 228.547 493.635 228.365 493.533 228.15C493.431 227.935 493.38 227.685 493.38 227.402V221.061H492.156V220.143H493.38V217.151H494.536V220.143H496.576V221.061H494.536V227.079C494.559 227.408 494.672 227.651 494.876 227.81C495.091 227.957 495.335 228.031 495.607 228.031C495.936 228.031 496.225 227.98 496.474 227.878C496.723 227.765 496.882 227.685 496.95 227.64L497.256 228.575ZM502.309 229.17C501.663 229.17 501.068 229.051 500.524 228.813C499.992 228.564 499.527 228.229 499.13 227.81C498.734 227.379 498.422 226.886 498.195 226.331C497.98 225.776 497.872 225.181 497.872 224.546C497.872 223.923 497.98 223.339 498.195 222.795C498.422 222.24 498.728 221.758 499.113 221.35C499.51 220.931 499.98 220.602 500.524 220.364C501.068 220.115 501.658 219.99 502.292 219.99C502.938 219.99 503.528 220.115 504.06 220.364C504.604 220.602 505.069 220.931 505.454 221.35C505.84 221.769 506.14 222.251 506.355 222.795C506.571 223.339 506.678 223.917 506.678 224.529C506.678 224.62 506.678 224.71 506.678 224.801C506.678 224.892 506.673 224.954 506.661 224.988H499.079C499.113 225.464 499.221 225.906 499.402 226.314C499.595 226.711 499.839 227.056 500.133 227.351C500.428 227.646 500.762 227.878 501.136 228.048C501.522 228.207 501.93 228.286 502.36 228.286C502.644 228.286 502.927 228.246 503.21 228.167C503.494 228.088 503.754 227.98 503.992 227.844C504.23 227.708 504.446 227.544 504.638 227.351C504.831 227.147 504.978 226.926 505.08 226.688L506.083 226.96C505.947 227.289 505.755 227.589 505.505 227.861C505.256 228.122 504.967 228.354 504.638 228.558C504.31 228.751 503.947 228.898 503.55 229C503.154 229.113 502.74 229.17 502.309 229.17ZM505.573 224.104C505.539 223.628 505.426 223.197 505.233 222.812C505.052 222.415 504.814 222.075 504.519 221.792C504.236 221.509 503.902 221.288 503.516 221.129C503.142 220.97 502.74 220.891 502.309 220.891C501.879 220.891 501.471 220.97 501.085 221.129C500.7 221.288 500.36 221.509 500.065 221.792C499.782 222.075 499.55 222.415 499.368 222.812C499.198 223.209 499.096 223.639 499.062 224.104H505.573ZM511.403 229.17C510.712 229.17 510.037 229.057 509.38 228.83C508.723 228.603 508.156 228.275 507.68 227.844L508.207 227.062C508.706 227.47 509.21 227.776 509.72 227.98C510.241 228.184 510.797 228.286 511.386 228.286C512.1 228.286 512.667 228.144 513.086 227.861C513.517 227.566 513.732 227.153 513.732 226.62C513.732 226.371 513.675 226.167 513.562 226.008C513.449 225.838 513.279 225.691 513.052 225.566C512.837 225.441 512.559 225.334 512.219 225.243C511.89 225.141 511.505 225.039 511.063 224.937C510.553 224.812 510.111 224.688 509.737 224.563C509.363 224.438 509.051 224.297 508.802 224.138C508.564 223.979 508.383 223.787 508.258 223.56C508.145 223.322 508.088 223.027 508.088 222.676C508.088 222.234 508.173 221.843 508.343 221.503C508.524 221.163 508.762 220.885 509.057 220.67C509.363 220.443 509.714 220.273 510.111 220.16C510.519 220.047 510.95 219.99 511.403 219.99C512.083 219.99 512.701 220.103 513.256 220.33C513.811 220.545 514.259 220.834 514.599 221.197L514.038 221.877C513.709 221.537 513.307 221.282 512.831 221.112C512.366 220.942 511.879 220.857 511.369 220.857C511.063 220.857 510.78 220.891 510.519 220.959C510.258 221.016 510.026 221.112 509.822 221.248C509.629 221.384 509.476 221.56 509.363 221.775C509.25 221.979 509.193 222.223 509.193 222.506C509.193 222.744 509.233 222.937 509.312 223.084C509.391 223.231 509.522 223.362 509.703 223.475C509.884 223.577 510.111 223.673 510.383 223.764C510.666 223.843 511.006 223.928 511.403 224.019C511.97 224.155 512.468 224.291 512.899 224.427C513.33 224.563 513.687 224.722 513.97 224.903C514.265 225.084 514.486 225.305 514.633 225.566C514.78 225.827 514.854 226.144 514.854 226.518C514.854 227.334 514.542 227.98 513.919 228.456C513.296 228.932 512.457 229.17 511.403 229.17ZM531.766 220.143H532.905L529.097 229H528.145L526.241 224.478L524.354 229H523.402L519.594 220.143H520.716L523.946 227.81L525.629 223.764L524.116 220.16H525.085L526.241 223.05L527.397 220.16H528.383L526.87 223.764L528.553 227.81L531.766 220.143ZM536.455 229.17C536.035 229.17 535.644 229.102 535.282 228.966C534.93 228.819 534.619 228.62 534.347 228.371C534.086 228.122 533.882 227.833 533.735 227.504C533.587 227.164 533.514 226.801 533.514 226.416C533.514 226.031 533.604 225.674 533.786 225.345C533.967 225.016 534.222 224.733 534.551 224.495C534.879 224.257 535.27 224.076 535.724 223.951C536.177 223.815 536.676 223.747 537.22 223.747C537.673 223.747 538.132 223.787 538.597 223.866C539.061 223.945 539.475 224.059 539.838 224.206V223.407C539.838 222.625 539.617 222.007 539.175 221.554C538.733 221.089 538.121 220.857 537.339 220.857C536.885 220.857 536.421 220.948 535.945 221.129C535.469 221.31 534.987 221.571 534.5 221.911L534.092 221.146C535.236 220.375 536.347 219.99 537.424 219.99C538.534 219.99 539.407 220.302 540.042 220.925C540.676 221.548 540.994 222.41 540.994 223.509V227.504C540.994 227.821 541.135 227.98 541.419 227.98V229C541.226 229.034 541.079 229.051 540.977 229.051C540.682 229.051 540.45 228.977 540.28 228.83C540.121 228.683 540.036 228.479 540.025 228.218L539.991 227.521C539.583 228.054 539.067 228.462 538.444 228.745C537.832 229.028 537.169 229.17 536.455 229.17ZM536.727 228.286C537.327 228.286 537.877 228.173 538.376 227.946C538.886 227.719 539.271 227.419 539.532 227.045C539.634 226.943 539.707 226.835 539.753 226.722C539.809 226.597 539.838 226.484 539.838 226.382V224.937C539.452 224.79 539.05 224.676 538.631 224.597C538.223 224.518 537.803 224.478 537.373 224.478C536.557 224.478 535.894 224.648 535.384 224.988C534.874 225.328 534.619 225.776 534.619 226.331C534.619 226.603 534.67 226.858 534.772 227.096C534.885 227.334 535.032 227.544 535.214 227.725C535.406 227.895 535.633 228.031 535.894 228.133C536.154 228.235 536.432 228.286 536.727 228.286ZM543.491 229V220.143H544.647V229H543.491ZM543.491 218.29V216.59H544.647V218.29H543.491ZM551.443 228.575C551.375 228.609 551.273 228.654 551.137 228.711C551.013 228.768 550.865 228.824 550.695 228.881C550.525 228.938 550.333 228.989 550.117 229.034C549.902 229.079 549.675 229.102 549.437 229.102C549.188 229.102 548.95 229.068 548.723 229C548.497 228.932 548.298 228.83 548.128 228.694C547.958 228.547 547.822 228.365 547.72 228.15C547.618 227.935 547.567 227.685 547.567 227.402V221.061H546.343V220.143H547.567V217.151H548.723V220.143H550.763V221.061H548.723V227.079C548.746 227.408 548.859 227.651 549.063 227.81C549.279 227.957 549.522 228.031 549.794 228.031C550.123 228.031 550.412 227.98 550.661 227.878C550.911 227.765 551.069 227.685 551.137 227.64L551.443 228.575Z" fill="#413F60"/>
<path d="M459.389 164.518L456.883 162.007C456.302 161.424 455.528 161.103 454.705 161.103C453.882 161.103 453.109 161.424 452.528 162.007L450.711 163.827C449.515 165.025 449.515 166.975 450.711 168.173L453.222 170.69C453.468 170.936 453.79 171.059 454.113 171.059C454.434 171.059 454.755 170.937 455.001 170.692C455.492 170.201 458.896 166.786 459.387 166.296C459.879 165.806 459.88 165.01 459.389 164.518Z" fill="#105C6E"/>
<path d="M468.281 156.251C467.587 156.251 467.024 156.814 467.024 157.509V161.533C467.024 162.227 467.587 162.79 468.281 162.79C468.976 162.79 469.539 162.227 469.539 161.533V157.509C469.539 156.814 468.976 156.251 468.281 156.251Z" fill="#26879C"/>
<path d="M471.383 156H465.18C464.485 156 463.922 156.563 463.922 157.257C463.922 157.952 464.485 158.515 465.18 158.515H471.383C472.078 158.515 472.641 157.952 472.641 157.257C472.641 156.563 472.078 156 471.383 156Z" fill="#FF415B"/>
<path d="M468.281 156H465.18C464.485 156 463.922 156.563 463.922 157.257C463.922 157.952 464.485 158.515 465.18 158.515H468.281V156Z" fill="#E50058"/>
<path d="M481.916 165.944C478.274 162.294 473.432 160.284 468.281 160.284C463.131 160.284 458.288 162.294 454.646 165.944C451.005 169.592 449 174.443 449 179.603C449 184.763 451.005 189.614 454.646 193.263C458.288 196.912 463.131 198.922 468.281 198.922C473.432 198.922 478.274 196.912 481.916 193.263C485.557 189.614 487.563 184.763 487.563 179.603C487.563 174.443 485.557 169.592 481.916 165.944Z" fill="#FF415B"/>
<path d="M468.281 160.284C463.131 160.284 458.288 162.294 454.646 165.944C451.005 169.592 449 174.443 449 179.603C449 184.763 451.005 189.614 454.646 193.263C458.288 196.912 463.131 198.922 468.281 198.922V160.284Z" fill="#E50058"/>
<path d="M468.281 165.099C460.299 165.099 453.805 171.606 453.805 179.603C453.805 187.601 460.299 194.108 468.281 194.108C476.263 194.108 482.758 187.601 482.758 179.603C482.758 171.606 476.263 165.099 468.281 165.099Z" fill="#D9E6FC"/>
<path d="M468.281 165.099C460.299 165.099 453.805 171.606 453.805 179.603C453.805 187.601 460.299 194.108 468.281 194.108V165.099Z" fill="#EEF4FF"/>
<path d="M468.281 168.24C468.976 168.24 469.539 167.677 469.539 166.983V165.154C469.124 165.119 468.705 165.099 468.281 165.099C467.858 165.099 467.438 165.119 467.024 165.154V166.983C467.024 167.677 467.587 168.24 468.281 168.24Z" fill="#105C6E"/>
<path d="M468.281 190.966C467.587 190.966 467.024 191.529 467.024 192.224V194.052C467.438 194.088 467.858 194.107 468.281 194.107C468.705 194.107 469.124 194.088 469.539 194.052V192.224C469.539 191.529 468.976 190.966 468.281 190.966Z" fill="#105C6E"/>
<path d="M482.702 178.346H480.902C480.207 178.346 479.644 178.909 479.644 179.603C479.644 180.298 480.207 180.861 480.902 180.861H482.702C482.738 180.446 482.757 180.027 482.757 179.603C482.757 179.179 482.738 178.76 482.702 178.346Z" fill="#105C6E"/>
<path d="M456.918 179.603C456.918 178.909 456.355 178.346 455.66 178.346H453.86C453.824 178.76 453.805 179.179 453.805 179.603C453.805 180.027 453.824 180.446 453.86 180.861H455.66C456.355 180.861 456.918 180.298 456.918 179.603Z" fill="#105C6E"/>
<path d="M471.383 178.877H469.609V173.792C469.609 173.097 469.046 172.534 468.351 172.534C467.657 172.534 467.094 173.097 467.094 173.792V180.135C467.094 180.829 467.657 181.392 468.351 181.392H471.383C472.077 181.392 472.64 180.829 472.64 180.135C472.64 179.441 472.077 178.877 471.383 178.877Z" fill="#105C6E"/>
<defs>
<clipPath id="clip0">
<rect width="50" height="50" fill="white" transform="translate(66 155)"/>
</clipPath>
<clipPath id="clip1">
<rect width="39" height="39" fill="white" transform="translate(265 157)"/>
</clipPath>
</defs>
</svg>
